<svg width="727" height="739" xmlns="http://www.w3.org/2000/svg" xmlns:xlink="http://www.w3.org/1999/xlink" overflow="hidden"><defs><clipPath id="clip0"><rect x="5573" y="2503" width="727" height="739"/></clipPath></defs><g clip-path="url(#clip0)" transform="translate(-5573 -2503)"><path d="M893.395 772.671C893.399 736.876 864.385 707.855 828.59 707.85 792.796 707.846 763.774 736.86 763.77 772.654 763.766 805.567 788.43 833.256 821.123 837.044L783.515 837.044C752.358 837.044 727.101 862.301 727.101 893.457L727.101 933.949C727.101 965.105 752.358 990.362 783.515 990.362L873.149 990.362C904.305 990.362 929.562 965.105 929.562 933.949L929.562 893.332C929.562 862.176 904.305 836.919 873.149 836.919L835.54 836.919C868.365 833.346 893.269 805.689 893.395 772.671ZM904.426 893.457 904.426 933.949C904.426 951.258 890.395 965.29 873.086 965.29L784.016 965.29C766.707 965.29 752.675 951.258 752.675 933.949L752.675 893.332C752.675 876.023 766.707 861.991 784.016 861.991L873.149 861.991C890.457 862.026 904.461 876.085 904.427 893.394 904.427 893.415 904.427 893.436 904.427 893.457ZM828.582 812.411C806.635 812.411 788.842 794.618 788.842 772.671 788.842 750.723 806.635 732.931 828.582 732.931 850.53 732.931 868.322 750.723 868.322 772.671 868.288 794.604 850.516 812.376 828.582 812.411Z" fill="#FFFFFF" transform="matrix(1.00072 0 0 1 5296.38 2250.39)"/><path d="M925.487 258.56 836.229 258.56 836.229 366.309 749.479 399.53 749.479 357.283 624.116 405.422 624.116 521.131 925.738 521.131ZM724.406 496.059 649.189 496.059 649.189 422.596 724.406 393.7ZM834.913 496.059 759.696 496.059 759.696 422.596 834.913 393.7ZM900.415 283.632 900.415 377.278 861.302 377.278 861.302 283.632ZM861.302 496.059 861.302 402.037 900.415 402.037 900.415 496.059Z" fill="#FFFFFF" transform="matrix(1.00072 0 0 1 5296.38 2250.39)"/><path d="M286.954 811.533 328.7 811.533C329.707 840.837 354.28 863.776 383.584 862.769 411.473 861.81 433.86 839.423 434.819 811.533L450.176 811.533C451.6 840.82 476.497 863.407 505.783 861.982 533.077 860.655 554.905 838.827 556.233 811.533L615.842 811.533 615.842 672.193 569.02 608.007 491.734 608.007 491.734 550.466 276.299 550.466 276.299 742.27 286.954 742.27ZM381.728 837.044C366.234 837.01 353.682 824.458 353.647 808.963 353.661 806.617 353.956 804.281 354.525 802.005 358.303 786.964 373.56 777.834 388.601 781.612 398.637 784.133 406.473 791.969 408.995 802.005 409.571 804.237 409.866 806.533 409.872 808.838 409.907 824.381 397.334 837.009 381.791 837.044 381.77 837.044 381.749 837.044 381.728 837.044ZM503.204 837.044C487.71 837.01 475.158 824.458 475.123 808.963 475.137 806.617 475.432 804.281 476.001 802.005 479.705 786.981 494.888 777.805 509.912 781.51 520.022 784.003 527.915 791.896 530.408 802.005 530.981 804.259 531.276 806.575 531.285 808.9 531.286 824.419 518.723 837.01 503.204 837.044ZM556.233 633.08 590.77 680.592 590.77 786.711 551.594 786.711C539.229 760.125 507.652 748.596 481.066 760.961 469.715 766.24 460.595 775.361 455.316 786.711L430.243 786.711C417.833 760.107 386.207 748.601 359.603 761.011 348.282 766.292 339.183 775.391 333.903 786.711L312.027 786.711 312.027 742.834 491.734 742.834 491.734 633.08ZM301.371 575.538 466.661 575.538 466.661 717.198 301.371 717.198Z" fill="#FFFFFF" transform="matrix(1.00072 0 0 1 5296.38 2250.39)"/><path d="M646.368 293.285C700.262 293.272 753.245 307.177 800.188 333.652L812.724 311.839C650.118 220.04 443.883 277.44 352.084 440.045 338.909 463.383 328.555 488.204 321.241 513.986L345.311 520.254C384.066 386.096 506.725 293.623 646.368 293.285Z" fill="#FFFFFF" transform="matrix(1.00072 0 0 1 5296.38 2250.39)"/><path d="M709.488 938.274 704.85 913.641C685.568 917.277 665.989 919.102 646.368 919.094 575.038 919.397 505.795 895.039 450.364 850.145L434.631 869.701C494.678 917.905 569.366 944.194 646.368 944.229 667.547 944.198 688.677 942.205 709.488 938.274Z" fill="#FFFFFF" transform="matrix(1.00072 0 0 1 5296.38 2250.39)"/><path d="M938.337 493.363C976.505 592.307 962.047 703.841 899.913 789.783L920.222 804.45C987.164 711.742 1002.77 591.502 961.717 484.776Z" fill="#FFFFFF" transform="matrix(1.00072 0 0 1 5296.38 2250.39)"/></g></svg>