<svg width="751" height="775" xmlns="http://www.w3.org/2000/svg" xmlns:xlink="http://www.w3.org/1999/xlink" overflow="hidden"><defs><clipPath id="clip0"><rect x="2668" y="314" width="751" height="775"/></clipPath></defs><g clip-path="url(#clip0)" transform="translate(-2668 -314)"><path d="M468.977 737.689 381.454 737.689C376.591 737.689 372.663 733.76 372.663 728.898 372.663 724.035 376.591 720.107 381.454 720.107L468.977 720.107C473.84 720.107 477.768 724.035 477.768 728.898 477.768 733.76 473.84 737.689 468.977 737.689" fill="#FFFFFF" transform="matrix(1.00088 0 0 1 2295.27 -41.15)"/><path d="M1113.7 739.818 1026.17 739.818C1021.3 739.818 1017.37 735.875 1017.37 731.027 1017.37 726.178 1021.3 722.236 1026.17 722.236L1113.7 722.236C1118.55 722.236 1122.49 726.178 1122.49 731.027 1122.49 735.875 1118.55 739.818 1113.7 739.818" fill="#FFFFFF" transform="matrix(1.00088 0 0 1 2295.27 -41.15)"/><path d="M993.31 607.516C990.192 607.516 987.156 605.84 985.576 602.9 983.269 598.615 984.876 593.299 989.148 590.991L1066.19 549.455C1070.48 547.147 1075.79 548.741 1078.1 553.012 1080.41 557.284 1078.81 562.627 1074.54 564.921L997.485 606.472C996.153 607.186 994.724 607.516 993.31 607.516" fill="#FFFFFF" transform="matrix(1.00088 0 0 1 2295.27 -41.15)"/><path d="M880.196 493.757C878.795 493.757 877.38 493.413 876.062 492.713 871.776 490.419 870.169 485.089 872.463 480.804L913.835 403.678C916.115 399.392 921.458 397.785 925.73 400.079 930.002 402.373 931.609 407.703 929.315 411.974L887.957 489.128C886.364 492.067 883.342 493.757 880.196 493.757" fill="#FFFFFF" transform="matrix(1.00088 0 0 1 2295.27 -41.15)"/><path d="M488.111 599.508C486.71 599.508 485.282 599.164 483.949 598.45L406.906 556.927C402.634 554.633 401.041 549.29 403.335 545.018 405.642 540.746 410.958 539.139 415.257 541.447L492.301 582.97C496.572 585.277 498.166 590.621 495.872 594.892 494.265 597.832 491.243 599.508 488.111 599.508" fill="#FFFFFF" transform="matrix(1.00088 0 0 1 2295.27 -41.15)"/><path d="M601.238 485.762C598.107 485.762 595.071 484.073 593.491 481.12L552.12 403.98C549.826 399.695 551.433 394.365 555.705 392.071 559.99 389.777 565.32 391.385 567.613 395.656L608.985 472.81C611.279 477.095 609.672 482.411 605.386 484.719 604.068 485.419 602.653 485.762 601.238 485.762" fill="#FFFFFF" transform="matrix(1.00088 0 0 1 2295.27 -41.15)"/><path d="M749.446 460.159C749.446 460.159 749.433 460.159 749.433 460.159 744.57 460.145 740.642 456.203 740.655 451.355L740.903 363.817C740.916 358.982 744.845 355.054 749.694 355.054 749.694 355.054 749.721 355.054 749.721 355.054 754.583 355.067 758.498 359.023 758.484 363.872L758.237 451.396C758.223 456.244 754.295 460.159 749.446 460.159" fill="#FFFFFF" transform="matrix(1.00088 0 0 1 2295.27 -41.15)"/><path d="M814.869 717.113C814.114 729.914 810.062 739.254 802.755 745.092 799.897 742.784 797.26 740.271 794.884 737.524 783.25 724.173 779.418 707.319 783.181 686.015 786.835 665.26 792.26 661.043 793.552 661.043 793.579 661.043 793.593 661.043 793.607 661.043 801.216 661.936 816.463 689.614 814.869 717.113ZM705.561 736.164C703.83 738.417 701.907 740.518 699.819 742.482 689.627 733.307 686.496 719.503 685.644 709.764 683.309 683.323 694.201 661.758 699.531 660.81 699.545 660.81 699.572 660.81 699.586 660.81 700.671 660.81 706.756 665.082 712.484 686.317 717.992 706.715 715.739 723.033 705.561 736.164ZM898.987 770.283C898.561 770.297 873.768 771.039 847.093 764.817 846.036 764.583 842.739 763.841 841.489 763.416 833.495 761.245 825.487 758.429 818.042 754.735 826.503 745.916 831.531 733.485 832.424 718.129 834.237 686.729 817.63 646.154 795.653 643.585 785.406 642.39 771.973 648.256 765.86 682.952 761.19 709.462 766.492 731.714 781.615 749.075 782.467 750.064 783.36 751.04 784.266 751.974 782.343 752.166 780.324 752.276 778.209 752.276L728.293 752.125C723.829 752.125 719.832 751.658 716.233 750.82 717.346 749.57 718.431 748.279 719.461 746.96 733.046 729.406 736.411 707.456 729.461 681.729 720.066 646.964 706.385 641.745 696.454 643.503 676.551 647.033 665.549 682.073 668.131 711.302 669.669 728.843 675.658 743.004 685.259 752.976 651.772 771.671 602.392 771.506 601.623 771.492 596.884 771.368 592.805 775.338 592.75 780.201 592.708 785.049 596.582 789.019 601.444 789.074 601.568 789.074 601.815 789.074 602.159 789.074 606.417 789.074 626.581 788.785 649.849 783.868L708.885 1001.65C709.929 1005.58 713.486 1008.14 717.36 1008.14 718.115 1008.14 718.884 1008.05 719.654 1007.83 724.337 1006.56 727.112 1001.74 725.848 997.059L666.881 779.5C678.666 775.874 690.465 770.888 700.767 764.02 708.734 767.742 717.978 769.706 728.266 769.706L778.181 769.858C786.904 769.858 794.76 768.415 801.614 765.682 810.9 771.368 821.147 775.599 831.407 778.758L772.605 995.768C771.327 1000.45 774.102 1005.29 778.786 1006.55 779.555 1006.76 780.324 1006.87 781.093 1006.87 784.967 1006.87 788.511 1004.28 789.582 1000.37L848.439 783.112C874.936 788.607 897.86 787.906 899.632 787.851 904.481 787.673 908.272 783.593 908.093 778.745 907.915 773.896 903.753 770.064 898.987 770.283" fill="#FFFFFF" transform="matrix(1.00088 0 0 1 2295.27 -41.15)"/><path d="M836.077 1087.63C833.22 1102.69 825.679 1112.55 819.182 1112.55L676.166 1112.55C669.669 1112.55 662.129 1102.69 659.272 1087.63L641.47 1087.63C645.138 1112.37 659.162 1130.13 676.166 1130.13L819.182 1130.13C836.187 1130.13 850.198 1112.37 853.865 1087.63L836.077 1087.63" fill="#FFFFFF" transform="matrix(1.00088 0 0 1 2295.27 -41.15)"/><path d="M845.308 1077.77 651.731 1077.77C645.412 1077.77 640.069 1073.83 640.069 1069.16L640.069 1047.94 856.983 1047.94 856.983 1069.16C856.983 1073.83 851.64 1077.77 845.308 1077.77ZM640.069 1010.56 856.983 1010.56 856.983 1030.35 640.069 1030.35ZM523.041 727.456C523.041 603.148 624.177 502.025 748.485 502.025 872.793 502.025 973.915 603.148 973.915 727.456 973.915 807.85 930.551 882.737 860.747 922.928 858.027 924.494 856.337 927.392 856.337 930.538L856.337 992.98 640.632 992.98 640.632 930.538C640.632 927.392 638.956 924.494 636.223 922.928 566.405 882.737 523.041 807.837 523.041 727.456ZM991.497 727.456C991.497 593.45 882.49 484.444 748.485 484.444 614.493 484.444 505.459 593.45 505.459 727.456 505.459 812.411 550.389 891.666 623.051 935.565L623.051 1000.99C622.707 1001.94 622.487 1002.92 622.487 1003.98L622.487 1069.16C622.487 1083.59 635.605 1095.35 651.731 1095.35L845.308 1095.35C861.433 1095.35 874.565 1083.59 874.565 1069.16L874.565 1002.22C874.565 1001.07 874.317 999.999 873.919 998.996L873.919 935.565C946.581 891.679 991.497 812.411 991.497 727.456" fill="#FFFFFF" transform="matrix(1.00088 0 0 1 2295.27 -41.15)"/></g></svg>