<svg width="1499" height="1499" xmlns="http://www.w3.org/2000/svg" xmlns:xlink="http://www.w3.org/1999/xlink" overflow="hidden"><defs><clipPath id="clip0"><rect x="1050" y="0" width="1499" height="1499"/></clipPath></defs><g clip-path="url(#clip0)" transform="translate(-1050 0)"><path d="M1468.54 1047.75C1448.62 1047.75 1432.4 1031.53 1432.4 1011.61 1432.4 991.66 1448.62 975.443 1468.54 975.443 1488.49 975.443 1504.71 991.66 1504.71 1011.61 1504.71 1031.53 1488.49 1047.75 1468.54 1047.75ZM1669.45 819.726C1664.58 819.726 1660.63 823.639 1660.63 828.54L1660.63 992.189C1660.63 998.358 1655.63 1003.36 1649.46 1003.36L1521.63 1003.36C1517.64 977.593 1495.4 957.816 1468.54 957.816 1438.89 957.816 1414.77 981.965 1414.77 1011.61 1414.77 1041.26 1438.89 1065.38 1468.54 1065.38 1495.01 1065.38 1516.97 1046.16 1521.45 1020.99L1649.46 1020.99C1665.36 1020.99 1678.26 1008.09 1678.26 992.189L1678.26 828.54C1678.26 823.639 1674.31 819.726 1669.45 819.726" fill="#FFFFFF"/><path d="M2130.46 1047.75C2110.51 1047.75 2094.29 1031.53 2094.29 1011.61 2094.29 991.66 2110.51 975.443 2130.46 975.443 2150.38 975.443 2166.6 991.66 2166.6 1011.61 2166.6 1031.53 2150.38 1047.75 2130.46 1047.75ZM2130.46 957.816C2103.6 957.816 2081.36 977.593 2077.37 1003.36L1949.54 1003.36C1943.37 1003.36 1938.37 998.358 1938.37 992.189L1938.37 828.54C1938.37 823.639 1934.42 819.726 1929.55 819.726 1924.69 819.726 1920.74 823.639 1920.74 828.54L1920.74 992.189C1920.74 1008.09 1933.64 1020.99 1949.54 1020.99L2077.55 1020.99C2081.99 1046.16 2104.02 1065.38 2130.46 1065.38 2160.11 1065.38 2184.23 1041.26 2184.23 1011.61 2184.23 981.965 2160.11 957.816 2130.46 957.816" fill="#FFFFFF"/><path d="M1799.5 1115.47C1779.58 1115.47 1763.36 1099.26 1763.36 1079.34 1763.36 1059.38 1779.58 1043.17 1799.5 1043.17 1819.42 1043.17 1835.67 1059.38 1835.67 1079.34 1835.67 1099.26 1819.42 1115.47 1799.5 1115.47ZM1808.31 1026.35 1808.31 828.54C1808.31 823.639 1804.36 819.726 1799.5 819.726 1794.64 819.726 1790.69 823.639 1790.69 828.54L1790.69 1026.35C1765.23 1030.55 1745.74 1052.68 1745.74 1079.34 1745.74 1108.99 1769.85 1133.1 1799.5 1133.1 1829.15 1133.1 1853.3 1108.99 1853.3 1079.34 1853.3 1052.68 1833.77 1030.55 1808.31 1026.35" fill="#FFFFFF"/><path d="M1612.16 524.685C1531.64 524.685 1466.14 590.187 1466.14 670.672 1466.14 751.157 1531.64 816.659 1612.16 816.659L1983.98 816.659C2064.5 816.659 2130.01 751.157 2130.01 670.672 2130.01 590.187 2064.5 524.685 1983.98 524.685 1975.42 524.685 1966.6 525.461 1957.9 527.047 1955.5 527.47 1953.03 526.906 1951.09 525.461 1949.12 524.016 1947.85 521.794 1947.57 519.362 1938.68 441.944 1873.11 383.528 1795.06 383.528 1717.46 383.528 1651.93 441.521 1642.62 518.481 1642.34 520.807 1641.1 522.958 1639.24 524.403 1637.37 525.849 1635 526.483 1632.64 526.131 1625.73 525.144 1618.86 524.685 1612.16 524.685ZM1983.98 834.286 1612.16 834.286C1521.91 834.286 1448.51 760.887 1448.51 670.672 1448.51 580.457 1521.91 507.058 1612.16 507.058 1616.85 507.058 1621.61 507.27 1626.4 507.693 1640.47 426.256 1711.47 365.901 1795.06 365.901 1879 365.901 1950 426.503 1963.82 508.327 1970.55 507.481 1977.32 507.058 1983.98 507.058 2074.23 507.058 2147.63 580.457 2147.63 670.672 2147.63 760.887 2074.23 834.286 1983.98 834.286" fill="#FFFFFF"/></g></svg>