<svg width="1403" height="1403" xmlns="http://www.w3.org/2000/svg" xmlns:xlink="http://www.w3.org/1999/xlink" overflow="hidden"><defs><clipPath id="clip0"><rect x="0" y="0" width="1403" height="1403"/></clipPath></defs><g clip-path="url(#clip0)"><path d="M545.263 750.037C495.669 750.037 455.315 790.392 455.315 839.985 455.315 889.611 495.669 929.966 545.263 929.966 594.889 929.966 635.243 889.611 635.243 839.985 635.243 790.392 594.889 750.037 545.263 750.037ZM545.263 946.464C486.562 946.464 438.817 898.718 438.817 839.985 438.817 781.285 486.562 733.539 545.263 733.539 603.996 733.539 651.742 781.285 651.742 839.985 651.742 898.718 603.996 946.464 545.263 946.464ZM515.566 1041.79 574.959 1041.79 574.959 984.938C574.959 981.176 577.5 977.876 581.13 976.952 584.759 975.996 588.587 977.612 590.402 980.879L618.283 1030.47 670.055 1001.34 638.807 945.738C636.992 942.504 637.553 938.446 640.193 935.839 642.833 933.232 646.891 932.705 650.092 934.552L705.393 966.361 734.991 914.886 683.253 885.091C679.986 883.243 678.436 879.416 679.359 875.819 680.349 872.222 683.616 869.682 687.344 869.682L747.068 869.682 747.068 810.289 697.144 810.289C693.35 810.289 690.05 807.715 689.126 804.052 688.202 800.39 689.918 796.562 693.251 794.78L737.334 771.287 709.386 718.856 653.094 748.883C649.795 750.631 645.769 749.971 643.229 747.266 640.655 744.56 640.226 740.501 642.14 737.334L675.169 682.758 624.388 652.006 590.27 708.33C588.356 711.498 584.561 713.016 580.998 712.026 577.434 711.003 574.959 707.769 574.959 704.074L574.959 638.213 515.566 638.213 515.566 695.099C515.566 698.827 513.025 702.127 509.429 703.051 505.799 704.008 501.972 702.391 500.124 699.124L472.242 649.564 420.504 678.667 451.751 734.265C453.566 737.499 453.005 741.524 450.366 744.164 447.726 746.771 443.667 747.299 440.434 745.451L385.165 713.643 355.534 765.117 407.306 794.912C410.572 796.76 412.123 800.555 411.166 804.184 410.209 807.781 406.943 810.289 403.214 810.289L343.491 810.289 343.491 869.682 393.414 869.682C397.209 869.682 400.508 872.288 401.432 875.951 402.323 879.614 400.64 883.441 397.308 885.223L353.225 908.716 381.172 961.147 437.464 931.121C440.731 929.372 444.789 930.032 447.33 932.737 449.871 935.443 450.333 939.502 448.386 942.669L415.357 997.245 466.171 1028 500.256 971.673C502.203 968.505 505.964 966.988 509.561 967.977 513.124 968.967 515.566 972.234 515.566 975.93ZM583.208 1058.29 507.317 1058.29C502.764 1058.29 499.068 1054.59 499.068 1050.04L499.068 1005.49 476.004 1043.6C474.882 1045.49 473.034 1046.81 470.922 1047.33 468.777 1047.86 466.534 1047.53 464.686 1046.38L399.749 1007.08C395.856 1004.74 394.602 999.654 396.978 995.76L418.755 959.794 381.634 979.559C377.642 981.704 372.626 980.186 370.482 976.161L334.78 909.211C333.757 907.264 333.526 905.021 334.186 902.909 334.813 900.83 336.265 899.081 338.178 898.025L360.418 886.18 335.242 886.18C330.655 886.18 326.986 882.517 326.986 877.931L326.986 802.039C326.986 797.519 330.655 793.79 335.242 793.79L372.329 793.79 340.158 775.312C336.232 773.036 334.846 767.987 337.122 764.061L374.969 698.266C376.058 696.385 377.873 694.967 379.985 694.406 382.096 693.845 384.34 694.142 386.221 695.231L422.682 716.183 402.059 679.557C401.003 677.644 400.739 675.4 401.3 673.288 401.894 671.176 403.313 669.395 405.227 668.306L471.384 631.119C473.265 630.063 475.542 629.766 477.62 630.36 479.732 630.954 481.514 632.34 482.603 634.287L499.068 663.587 499.068 629.964C499.068 625.411 502.764 621.715 507.317 621.715L583.208 621.715C587.762 621.715 591.457 625.411 591.457 629.964L591.457 674.509 614.555 636.398C616.898 632.505 621.979 631.251 625.872 633.594L690.809 672.925C692.657 674.047 694.01 675.895 694.538 678.007 695.033 680.118 694.703 682.362 693.581 684.243L671.803 720.209 708.891 700.444C712.917 698.299 717.899 699.817 720.077 703.843L755.746 770.825C756.802 772.739 757 775.016 756.373 777.094 755.746 779.173 754.294 780.955 752.38 781.945L730.141 793.79 755.317 793.79C759.87 793.79 763.566 797.519 763.566 802.039L763.566 877.931C763.566 882.517 759.87 886.18 755.317 886.18L718.229 886.18 750.367 904.691C752.281 905.78 753.667 907.561 754.228 909.706 754.789 911.818 754.492 914.062 753.436 915.942L715.589 981.737C714.5 983.651 712.686 985.003 710.574 985.598 708.462 986.158 706.218 985.861 704.305 984.773L667.877 963.82 688.499 1000.45C690.71 1004.44 689.291 1009.45 685.332 1011.7L619.174 1048.88C615.215 1051.09 610.199 1049.71 607.956 1045.75L591.457 1016.42 591.457 1050.04C591.457 1054.59 587.762 1058.29 583.208 1058.29" fill="#FFFFFF"/><path d="M870.342 467.029C823.355 467.029 785.145 505.238 785.145 552.225 785.145 599.212 823.355 637.454 870.342 637.454 917.328 637.454 955.571 599.212 955.571 552.225 955.571 505.238 917.328 467.029 870.342 467.029ZM870.342 653.952C814.248 653.952 768.647 608.319 768.647 552.225 768.647 496.131 814.248 450.531 870.342 450.531 926.435 450.531 972.069 496.131 972.069 552.225 972.069 608.319 926.435 653.952 870.342 653.952ZM869.781 685.398 869.814 685.398C873.212 685.431 876.215 687.51 877.469 690.611L897.267 740.798 979.46 708.363 960.058 659.133C958.805 655.965 959.629 652.401 962.071 650.092 964.546 647.782 968.208 647.188 971.244 648.64L1019.09 671.209 1056.77 591.26 989.689 559.616C986.818 558.263 985.003 555.393 984.971 552.225 984.938 549.024 986.752 546.154 989.59 544.735L1056.24 512.201 1017.41 432.779 972.993 454.457C969.924 455.975 966.262 455.447 963.754 453.104 961.246 450.762 960.454 447.165 961.741 443.964L980.714 396.978 898.751 363.882 878.558 413.872C877.304 417.006 874.268 419.052 870.903 419.052L870.87 419.052C867.504 419.019 864.468 416.973 863.247 413.806L843.45 363.651 761.223 396.12 780.658 445.317C781.879 448.452 781.054 452.048 778.612 454.358 776.137 456.668 772.508 457.229 769.439 455.81L721.595 433.241 683.913 513.19 754.327 546.385C757.198 547.737 759.045 550.641 759.078 553.809 759.078 556.976 757.297 559.88 754.426 561.266L684.474 595.45 723.277 674.872 766.107 653.952C769.175 652.435 772.838 652.995 775.345 655.338 777.82 657.648 778.645 661.278 777.358 664.445L759.969 707.472 841.932 740.567 862.159 690.578C863.412 687.443 866.415 685.398 869.781 685.398ZM892.614 759.738C891.492 759.738 890.37 759.507 889.314 759.078 887.335 758.187 885.751 756.571 884.959 754.525L869.682 715.886 854.14 754.393C852.458 758.616 847.64 760.662 843.417 758.979L746.177 719.681C744.131 718.856 742.514 717.272 741.656 715.259 740.798 713.247 740.765 710.97 741.59 708.957L754.03 678.205 723.112 693.317C719.021 695.297 714.071 693.614 712.059 689.522L666.029 595.285C664.016 591.193 665.732 586.244 669.824 584.231L731.757 553.974 669.428 524.607C665.303 522.66 663.521 517.744 665.468 513.619L710.178 418.755C711.135 416.775 712.818 415.225 714.863 414.499 716.942 413.74 719.186 413.872 721.166 414.796L757.659 431.987 742.844 394.47C741.161 390.246 743.24 385.462 747.497 383.779L845.066 345.273C847.079 344.481 849.356 344.514 851.369 345.405 853.382 346.262 854.965 347.879 855.757 349.925L871.002 388.531 886.543 350.057C888.259 345.833 893.076 343.788 897.3 345.471L994.539 384.769C998.763 386.452 1000.81 391.269 999.093 395.493L985.07 430.205 1017.57 414.334C1019.55 413.377 1021.83 413.212 1023.87 413.938 1025.95 414.631 1027.67 416.148 1028.62 418.128L1074.69 512.365C1076.67 516.457 1074.98 521.406 1070.89 523.386L1012.29 552.027 1071.29 579.843C1075.41 581.79 1077.16 586.706 1075.22 590.831L1030.51 685.695C1029.58 687.674 1027.9 689.225 1025.82 689.951 1023.77 690.677 1021.5 690.578 1019.52 689.654L983.057 672.43 997.839 709.947C999.522 714.203 997.443 718.988 993.22 720.671L895.65 759.177C894.66 759.54 893.637 759.738 892.614 759.738" fill="#FFFFFF"/></g></svg>