<svg width="743" height="628" xmlns="http://www.w3.org/2000/svg" xmlns:xlink="http://www.w3.org/1999/xlink" overflow="hidden"><defs><clipPath id="clip0"><rect x="2297" y="2696" width="743" height="628"/></clipPath></defs><g clip-path="url(#clip0)" transform="translate(-2297 -2696)"><path d="M827.213 512.335C815.547 531.673 797.254 549.081 773.956 564.015 768.282 513.459 753.597 466.943 732.217 427.689 744.212 422.764 755.606 417.329 766.364 411.405 793.168 439.934 814.333 473.82 828.03 511.246 827.735 511.586 827.451 511.938 827.213 512.335ZM668.917 606.4C668.622 549.16 662.71 496.187 652.542 451.112 675.84 446.573 698.014 440.467 718.69 432.921 740.536 472.549 755.265 520.234 760.213 572.208 734.26 586.62 703.268 598.23 668.917 606.4ZM632.285 791.126C610.372 793.078 586.881 793.543 561.053 793.634L561.053 634.373C593.509 633.681 624.886 630.22 654.301 624.353 653.268 686.586 645.154 744.451 632.285 791.126ZM561.053 902.008 561.053 808.159C585.066 808.068 607.127 807.671 627.894 806.071 610.894 860.145 587.177 896.3 561.053 902.008ZM285.917 726.759C306.639 745.699 333.886 762.018 365.706 774.966 387.551 822.197 418.554 860.679 455.231 885.667 379.301 858.341 317.873 800.374 285.917 726.759ZM271.198 537.88C286.484 555.935 307.07 572.004 331.786 585.576 331.275 593.94 331.014 602.406 331.014 610.951 331.014 663.334 340.626 712.687 357.546 755.856 319.542 738.413 289.821 715.694 272.628 689.287 265.672 664.355 261.938 638.084 261.938 610.951 261.938 585.724 265.161 561.246 271.198 537.88ZM380.844 418.066C369.473 413.799 358.591 409.078 348.298 403.915 378.291 374.137 414.696 350.828 455.231 336.235 426.35 355.924 400.987 383.965 380.844 418.066ZM596.062 325.147C641.625 338.357 681.786 372.492 711.189 420.041 691.772 426.918 670.937 432.558 649.092 436.802 636.235 386.496 617.851 347.379 596.062 325.147ZM561.053 446.153 561.053 319.893C590.808 326.396 617.442 372.413 634.578 439.401 610.837 443.293 586.144 445.586 561.053 446.153ZM561.053 460.679C587.528 460.122 613.323 457.773 638.016 453.722 648.264 499.069 654.312 552.735 654.414 609.612 625.113 615.592 593.679 619.144 561.053 619.848ZM462.982 801.452C475.488 843.895 492.17 876.997 511.53 896.766 459.941 881.797 415.286 840.013 385.327 782.319 409.317 790.592 435.429 797.061 462.982 801.452ZM458.023 438.663C435.803 434.816 414.548 429.551 394.632 422.957 424.194 373.888 465.048 338.629 511.53 325.147 489.48 347.651 470.903 387.46 458.023 438.663ZM472.617 440.967C489.73 373.139 516.546 326.453 546.527 319.893L546.527 446.289C521.21 446.187 496.437 444.371 472.617 440.967ZM453.177 611.314C453.177 611.189 453.177 611.076 453.177 610.951 453.177 554.176 459.113 500.556 469.246 455.141 494.156 458.772 520.075 460.713 546.527 460.815L546.527 619.961C514.242 619.825 482.773 616.807 453.177 611.314ZM546.527 808.159 546.527 902.008C520.041 896.221 496.028 859.112 478.983 803.767 500.828 806.559 523.457 808.057 546.527 808.159ZM474.603 788.561C462.279 742.817 454.46 686.654 453.325 626.305 482.83 631.525 514.162 634.351 546.527 634.487L546.527 793.634C521.845 793.52 497.73 791.772 474.603 788.561ZM387.324 435.792C408.454 442.964 431.049 448.672 454.687 452.803 444.621 498.037 438.833 551.101 438.663 608.398 404.664 600.987 373.525 590.252 346.97 576.827 351.35 524.319 365.706 476.021 387.324 435.792ZM337.812 414.855C349.115 420.722 361.098 426.067 373.672 430.867 352.485 470.835 338.152 518.089 333.08 569.337 308.965 555.39 289.492 539.015 276.203 520.801 289.128 481.094 310.338 445.075 337.812 414.855ZM345.949 592.851C373.173 606.003 404.562 616.387 438.754 623.502 439.628 684.26 446.857 739.945 458.761 786.132 429.119 781.037 401.373 773.479 376.475 763.845 356.877 719.349 345.54 666.977 345.54 610.951 345.54 604.868 345.688 598.842 345.949 592.851ZM755.731 400.647C746.028 405.799 735.713 410.554 724.852 414.889 705.073 382.308 680.47 355.447 652.576 336.382 691.409 350.443 726.464 372.537 755.731 400.647ZM769.768 393.634C711.972 336.201 635.27 304.573 553.79 304.573 384.85 304.573 247.413 442.011 247.413 610.951 247.413 639.412 251.328 666.977 258.625 693.134 258.704 693.758 258.874 694.371 259.124 694.961 295.733 823.184 413.97 917.34 553.79 917.34 610.94 917.34 664.753 903.609 709.442 877.655 712.914 875.635 714.083 871.187 712.074 867.726 710.054 864.253 705.606 863.073 702.145 865.093 685.213 874.932 666.852 882.887 647.469 888.935 663.947 878.472 679.528 865.286 693.747 849.489 696.437 846.505 696.187 841.92 693.214 839.23 690.229 836.541 685.633 836.779 682.955 839.764 657.081 868.497 627.542 887.778 595.994 896.834 614.9 877.565 631.264 845.574 643.668 804.585 656.344 803.155 668.588 801.169 680.572 798.388 684.487 797.492 686.915 793.588 686.019 789.684 685.111 785.781 681.196 783.329 677.304 784.237 667.771 786.45 658.023 788.141 647.969 789.435 660.542 742.045 668.123 684.317 668.872 621.21 703.257 613.243 734.6 601.906 761.393 587.823 761.825 595.461 762.052 603.166 762.052 610.951 762.052 612.937 762.04 614.923 762.006 616.909 761.938 620.915 765.15 624.217 769.156 624.285 773.241 624.342 776.464 621.142 776.532 617.136 776.566 615.082 776.577 613.016 776.577 610.951 776.577 600.477 776.191 590.138 775.442 579.936 800.023 565.184 819.939 547.901 833.783 528.643 841.319 554.165 845.461 581.117 845.642 608.988 845.676 612.982 848.922 616.205 852.905 616.205 852.928 616.205 852.939 616.205 852.962 616.205 856.968 616.182 860.202 612.903 860.168 608.897 859.634 527.485 827.531 451.044 769.768 393.634" fill="#FFFFFF" transform="matrix(1.00217 0 0 1 2048.95 2392.08)"/><path d="M824.024 693.373C784.317 693.373 751.997 725.681 751.997 765.399 751.997 805.118 784.317 837.426 824.024 837.426 863.742 837.426 896.051 805.118 896.051 765.399 896.051 725.681 863.742 693.373 824.024 693.373ZM824.024 851.952C776.305 851.952 737.471 813.13 737.471 765.399 737.471 717.669 776.305 678.847 824.024 678.847 871.754 678.847 910.576 717.669 910.576 765.399 910.576 813.13 871.754 851.952 824.024 851.952ZM823.581 870.29C823.593 870.29 823.604 870.29 823.615 870.29 826.577 870.302 829.244 872.129 830.333 874.886L845.778 914.003 909.634 888.799 894.496 850.442C893.407 847.674 894.11 844.519 896.289 842.476 898.468 840.445 901.645 839.934 904.358 841.216L941.648 858.795 970.926 796.686 918.361 771.913C915.842 770.733 914.219 768.191 914.208 765.399 914.185 762.608 915.762 760.043 918.282 758.817L970.472 733.318 940.331 671.63 905.753 688.527C903.053 689.855 899.807 689.367 897.617 687.324 895.415 685.27 894.7 682.07 895.824 679.278L910.61 642.68 846.947 616.965 831.207 655.958C830.095 658.704 827.428 660.497 824.466 660.497 824.466 660.497 824.444 660.497 824.444 660.497 821.471 660.486 818.804 658.67 817.714 655.901L802.281 616.795 738.413 641.988 753.552 680.345C754.641 683.114 753.938 686.269 751.759 688.311 749.591 690.343 746.403 690.853 743.702 689.582L706.412 671.993 677.133 734.101 732.331 760.122C734.85 761.314 736.473 763.845 736.496 766.636 736.518 769.439 734.93 771.993 732.422 773.218L677.587 800.011 707.717 861.688 741.035 845.415C743.747 844.099 746.97 844.587 749.171 846.629 751.373 848.683 752.088 851.872 750.953 854.664L737.449 888.118 801.101 913.833 816.852 874.841C817.953 872.095 820.62 870.29 823.581 870.29ZM841.693 930.697C838.799 930.697 836.053 928.949 834.93 926.089L823.502 897.14 811.847 925.999C810.349 929.721 806.117 931.514 802.394 930.016L725.272 898.865C723.479 898.139 722.061 896.743 721.3 894.973 720.551 893.191 720.529 891.205 721.255 889.412L730.39 866.784 707.569 877.928C703.96 879.698 699.625 878.2 697.855 874.591L661.348 799.852C659.589 796.255 661.076 791.909 664.684 790.138L712.449 766.807 664.367 744.133C660.747 742.431 659.192 738.096 660.894 734.476L696.368 659.237C697.186 657.49 698.661 656.151 700.477 655.504 702.292 654.846 704.289 654.936 706.037 655.765L733.307 668.622 722.242 640.57C720.767 636.836 722.594 632.626 726.328 631.151L803.699 600.613C807.444 599.126 811.654 600.976 813.118 604.698L824.546 633.647 836.201 604.789C837.71 601.067 841.931 599.274 845.665 600.783L922.787 631.922C924.58 632.649 925.999 634.056 926.759 635.826 927.508 637.596 927.519 639.594 926.804 641.375L916.387 667.158 940.479 655.39C942.204 654.551 944.212 654.426 946.028 655.05 947.855 655.674 949.353 657.002 950.193 658.727L986.711 733.466C988.47 737.074 986.972 741.421 983.375 743.18L938.255 765.229 983.681 786.643C987.313 788.357 988.867 792.68 987.154 796.312L951.691 871.561C950.874 873.298 949.387 874.637 947.571 875.295 945.756 875.953 943.758 875.851 942.022 875.023L914.741 862.165 925.817 890.229C927.281 893.963 925.454 898.173 921.72 899.648L844.36 930.186C843.475 930.526 842.578 930.697 841.693 930.697" fill="#FFFFFF" transform="matrix(1.00217 0 0 1 2048.95 2392.08)"/></g></svg>