<svg width="605" height="603" xmlns="http://www.w3.org/2000/svg" xmlns:xlink="http://www.w3.org/1999/xlink" overflow="hidden"><defs><clipPath id="clip0"><rect x="3616" y="448" width="605" height="603"/></clipPath></defs><g clip-path="url(#clip0)" transform="translate(-3616 -448)"><path d="M445.035 79.1173C439.573 79.1173 435.145 83.545 435.145 89.007L435.145 148.345C435.145 153.807 439.573 158.235 445.035 158.235 450.497 158.235 454.924 153.807 454.924 148.345L454.924 89.007C454.924 83.545 450.497 79.1173 445.035 79.1173Z" fill="#FFFFFF" transform="matrix(1 0 0 1.00079 3607.84 428.266)"/><path d="M553.821 415.366 553.821 356.028C553.821 350.566 549.393 346.138 543.931 346.138 538.469 346.138 534.042 350.566 534.042 356.028L534.042 415.366C534.042 420.828 538.469 425.255 543.931 425.255 549.393 425.255 553.821 420.828 553.821 415.366Z" fill="#FFFFFF" transform="matrix(1 0 0 1.00079 3607.84 428.266)"/><path d="M445.035 474.704C439.573 474.704 435.145 479.131 435.145 484.593L435.145 543.931C435.145 549.393 439.573 553.821 445.035 553.821 450.497 553.821 454.924 549.393 454.924 543.931L454.924 484.593C454.924 479.131 450.497 474.704 445.035 474.704Z" fill="#FFFFFF" transform="matrix(1 0 0 1.00079 3607.84 428.266)"/><path d="M514.262 237.352 514.262 257.131C514.262 273.517 527.546 286.8 543.931 286.8 560.317 286.8 573.6 273.517 573.6 257.131L573.6 237.352C573.6 220.966 560.317 207.683 543.931 207.683 527.546 207.683 514.262 220.966 514.262 237.352ZM534.042 237.352C534.042 231.89 538.469 227.462 543.931 227.462 549.393 227.462 553.821 231.89 553.821 237.352L553.821 257.131C553.821 262.593 549.393 267.021 543.931 267.021 538.469 267.021 534.042 262.593 534.042 257.131Z" fill="#FFFFFF" transform="matrix(1 0 0 1.00079 3607.84 428.266)"/><path d="M543.931 474.704C527.546 474.704 514.262 487.987 514.262 504.373L514.262 524.152C514.262 540.538 527.546 553.821 543.931 553.821 560.317 553.821 573.6 540.538 573.6 524.152L573.6 504.373C573.6 487.987 560.317 474.704 543.931 474.704ZM553.821 524.152C553.821 529.614 549.393 534.042 543.931 534.042 538.469 534.042 534.042 529.614 534.042 524.152L534.042 504.373C534.042 498.911 538.469 494.483 543.931 494.483 549.393 494.483 553.821 498.911 553.821 504.373Z" fill="#FFFFFF" transform="matrix(1 0 0 1.00079 3607.84 428.266)"/><path d="M454.924 316.469C454.924 321.931 450.497 326.359 445.035 326.359 439.573 326.359 435.145 321.931 435.145 316.469 435.145 311.007 439.573 306.579 445.035 306.579 450.497 306.579 454.924 311.007 454.924 316.469Z" fill="#FFFFFF" transform="matrix(1 0 0 1.00079 3607.84 428.266)"/><path d="M610.86 142.016 511.963 23.3396C510.026 21.1656 507.283 19.8791 504.373 19.7793L207.683 19.7793C202.221 19.7793 197.793 24.2071 197.793 29.669L197.793 170.782C192.849 174.813 188.113 179.092 183.602 183.602 118.355 248.849 111.382 350.49 162.351 423.685L127.404 458.633C119.299 453.972 109.078 455.309 102.445 461.897L26.3312 538.01C8.22078 555.379 8.22078 586.655 26.3312 604.023 44.569 622.232 74.107 622.232 92.3447 604.023L168.458 527.861C174.684 521.605 176.258 512.089 172.377 504.163L197.793 478.796 197.793 601.922C197.793 607.384 202.221 611.812 207.683 611.812L603.269 611.812C608.731 611.812 613.159 607.384 613.159 601.922 613.159 601.922 613.085 148.011 613.072 147.838 612.966 145.713 612.191 143.675 610.86 142.016ZM502.79 94.4215 510.356 52.2916 582.155 138.455 536.255 138.455C514.745 138.591 497.574 116.611 502.79 94.4215ZM154.526 513.929 78.3632 590.042C68.2016 600.203 50.4744 600.203 40.3127 590.042 29.8791 580.029 29.8791 562.005 40.3127 551.991L116.426 475.94C116.812 475.555 117.437 475.555 117.823 475.94L154.526 512.544C154.908 512.924 154.91 513.543 154.529 513.925 154.528 513.926 154.527 513.927 154.526 513.929ZM159.322 489.353 142.016 472.046 174.59 439.472C179.857 445.719 185.597 451.55 191.761 456.915ZM183.231 418.679C132.67 352.814 137.367 257.861 197.633 197.583 228.642 167.08 270.115 149.551 313.601 148.567 359.14 147.872 403.041 165.538 435.405 197.583 500.924 263.102 500.924 369.799 435.405 435.355 403.001 467.439 359.034 485.109 313.44 484.371 263.782 483.703 213.654 459.338 183.181 418.679ZM346.138 128.566 346.138 108.786C346.138 103.324 350.566 98.8966 356.028 98.8966 361.49 98.8966 365.917 103.324 365.917 108.786L365.917 128.566C365.923 130.78 365.163 132.929 363.766 134.648 358.204 133.214 352.245 132.175 346.46 131.149 346.232 130.307 346.124 129.438 346.138 128.566ZM365.917 504.373 365.917 524.152C365.917 529.614 361.49 534.042 356.028 534.042 350.566 534.042 346.138 529.614 346.138 524.152L346.138 504.373C346.136 503.499 346.257 502.629 346.497 501.789 352.245 500.8 358.204 499.725 363.804 498.291 365.187 500.014 365.934 502.162 365.917 504.373ZM593.38 592.032 217.573 592.032 217.573 476.101C227.036 481.894 236.959 486.901 247.242 491.071L247.242 543.931C247.242 549.393 251.669 553.821 257.131 553.821 262.593 553.821 267.021 549.393 267.021 543.931L267.021 497.549C286.338 502.795 306.372 504.911 326.359 503.816 326.359 504.002 326.359 524.152 326.359 524.152 326.359 540.538 339.642 553.821 356.028 553.821 372.414 553.821 385.697 540.538 385.697 524.152L385.697 504.373C385.638 500.151 384.664 495.992 382.841 492.184 407.721 482.634 430.36 468.047 449.337 449.337 522.594 376.067 522.594 256.872 449.337 183.552 430.363 164.838 407.723 150.25 382.841 140.705 384.657 136.912 385.631 132.771 385.697 128.566L385.697 108.786C385.697 92.4005 372.414 79.1173 356.028 79.1173 339.642 79.1173 326.359 92.4005 326.359 108.786 326.359 108.786 326.359 128.924 326.359 129.11 306.372 128.043 286.342 130.163 267.021 135.389L267.021 89.007C267.021 83.545 262.593 79.1173 257.131 79.1173 251.669 79.1173 247.242 83.545 247.242 89.007L247.242 141.867C236.956 146.037 227.033 151.048 217.573 156.85L217.573 39.5586 492.542 39.5586 483.357 90.9231C475.705 124.857 502.741 158.643 536.255 158.235L593.38 158.235Z" fill="#FFFFFF" transform="matrix(1 0 0 1.00079 3607.84 428.266)"/><path d="M414.377 414.377C429.881 398.873 441.497 379.921 448.274 359.069 449.95 353.87 447.094 348.296 441.895 346.62 436.696 344.944 431.122 347.8 429.446 352.999 409.271 415.252 342.45 449.363 280.197 429.188 217.944 409.013 183.833 342.192 204.008 279.939 224.183 217.686 291.004 183.575 353.257 203.75 389.399 215.463 417.733 243.797 429.446 279.939 431.122 285.138 436.696 287.994 441.895 286.318 447.094 284.642 449.95 279.069 448.274 273.869 424.77 201.105 346.728 161.171 273.964 184.675 201.199 208.179 161.265 286.22 184.769 358.985 208.273 431.75 286.314 471.684 359.079 448.18 379.926 441.446 398.878 429.861 414.377 414.377Z" fill="#FFFFFF" transform="matrix(1 0 0 1.00079 3607.84 428.266)"/><path d="M326.359 247.242C320.897 247.242 316.469 251.669 316.469 257.131L316.469 277.702 286.8 277.702C281.338 277.702 276.91 282.129 276.91 287.591L276.91 308.162 247.242 308.162C241.78 308.162 237.352 312.59 237.352 318.051L237.352 365.917C237.352 371.379 241.78 375.807 247.242 375.807L365.917 375.807C371.379 375.807 375.807 371.379 375.807 365.917L375.807 257.131C375.807 251.669 371.379 247.242 365.917 247.242ZM276.91 356.028 257.131 356.028 257.131 327.941 276.91 327.941ZM316.469 356.028 296.69 356.028 296.69 297.481 316.469 297.481ZM356.028 356.028 336.248 356.028 336.248 267.021 356.028 267.021Z" fill="#FFFFFF" transform="matrix(1 0 0 1.00079 3607.84 428.266)"/></g></svg>