<?xml version="1.0" encoding="UTF-8"?>
<!DOCTYPE svg PUBLIC "-//W3C//DTD SVG 1.1//EN" "http://www.w3.org/Graphics/SVG/1.1/DTD/svg11.dtd">
<svg xmlns="http://www.w3.org/2000/svg" version="1.1" width="205px" height="202px" style="shape-rendering:geometricPrecision; text-rendering:geometricPrecision; image-rendering:optimizeQuality; fill-rule:evenodd; clip-rule:evenodd" xmlns:xlink="http://www.w3.org/1999/xlink">
<g><path style="opacity:1" fill="#4e4e4e" d="M 67.5,3.5 C 67.6107,4.11742 67.944,4.61742 68.5,5C 66.6079,5.97345 64.6079,6.64011 62.5,7C 65.3102,7.78226 67.9768,8.61559 70.5,9.5C 65.761,8.61099 62.4276,10.2777 60.5,14.5C 59.8333,14.8333 59.1667,15.1667 58.5,15.5C 58.5299,14.5028 58.0299,13.8361 57,13.5C 55.415,14.0439 53.915,14.7106 52.5,15.5C 54.4273,12.2327 56.7606,9.23273 59.5,6.5C 61.6174,4.3455 64.284,3.3455 67.5,3.5 Z"/></g>
<g><path style="opacity:0.353" fill="#c6c6c4" d="M 75.5,4.5 C 79.7671,5.76842 82.7671,8.43509 84.5,12.5C 83.1667,11.5 81.8333,10.5 80.5,9.5C 78.6397,8.06133 76.973,6.39466 75.5,4.5 Z"/></g>
<g><path style="opacity:1" fill="#494948" d="M 67.5,3.5 C 70.2788,3.27863 72.9455,3.61197 75.5,4.5C 76.973,6.39466 78.6397,8.06133 80.5,9.5C 79.828,10.2674 78.9947,10.9341 78,11.5C 76.2111,9.77099 74.0444,9.10433 71.5,9.5C 71.1667,9.5 70.8333,9.5 70.5,9.5C 67.9768,8.61559 65.3102,7.78226 62.5,7C 64.6079,6.64011 66.6079,5.97345 68.5,5C 67.944,4.61742 67.6107,4.11742 67.5,3.5 Z"/></g>
<g><path style="opacity:0.451" fill="#bcbcbb" d="M 70.5,9.5 C 70.8333,9.5 71.1667,9.5 71.5,9.5C 72.6935,10.2719 73.6935,11.2719 74.5,12.5C 69.491,10.8346 64.8244,11.5013 60.5,14.5C 62.4276,10.2777 65.761,8.61099 70.5,9.5 Z"/></g>
<g><path style="opacity:0.004" fill="#fefffe" d="M 13.5,10.5 C 14.8333,11.1667 14.8333,11.1667 13.5,10.5 Z"/></g>
<g><path style="opacity:0.996" fill="#5b5b5c" d="M 138.5,11.5 C 136.29,11.894 134.957,13.2273 134.5,15.5C 134.167,15.5 133.833,15.5 133.5,15.5C 132.5,15.1667 131.833,14.5 131.5,13.5C 130.694,12.2719 129.694,11.2719 128.5,10.5C 130.312,10.2287 131.978,9.56205 133.5,8.5C 127.71,4.444 121.377,3.77733 114.5,6.5C 115.058,5.21009 116.058,4.37675 117.5,4C 124.544,2.43685 130.878,3.77018 136.5,8C 137.823,8.81595 138.489,9.98261 138.5,11.5 Z"/></g>
<g><path style="opacity:1" fill="#4c4c4b" d="M 128.5,10.5 C 121.554,8.09639 116.221,10.0964 112.5,16.5C 110.423,15.4766 108.423,15.81 106.5,17.5C 106.833,16.1667 107.167,14.8333 107.5,13.5C 108.833,10.1667 111.167,7.83333 114.5,6.5C 121.377,3.77733 127.71,4.444 133.5,8.5C 131.978,9.56205 130.312,10.2287 128.5,10.5 Z"/></g>
<g><path style="opacity:1" fill="#4b4b4b" d="M 71.5,9.5 C 74.0444,9.10433 76.2111,9.77099 78,11.5C 78.9947,10.9341 79.828,10.2674 80.5,9.5C 81.8333,10.5 83.1667,11.5 84.5,12.5C 84.7549,14.9674 85.7549,16.9674 87.5,18.5C 87.5,19.8333 87.5,21.1667 87.5,22.5C 86.7784,22.0825 86.2784,21.4158 86,20.5C 85.6667,21.5 85.3333,22.5 85,23.5C 84.31,22.2617 83.81,22.2617 83.5,23.5C 82.1543,18.473 79.1543,14.8064 74.5,12.5C 73.6935,11.2719 72.6935,10.2719 71.5,9.5 Z"/></g>
<g><path style="opacity:0.004" fill="#fefffe" d="M 185.5,15.5 C 186.833,16.1667 186.833,16.1667 185.5,15.5 Z"/></g>
<g><path style="opacity:0.063" fill="#cbcbcb" d="M 60.5,14.5 C 56.4336,22.3674 55.4336,30.7007 57.5,39.5C 56.3127,37.9275 55.3127,36.2608 54.5,34.5C 54.5,34.1667 54.5,33.8333 54.5,33.5C 53.5378,26.8752 54.8711,20.8752 58.5,15.5C 59.1667,15.1667 59.8333,14.8333 60.5,14.5 Z"/></g>
<g><path style="opacity:0.376" fill="#b2b2b2" d="M 84.5,12.5 C 86.2451,14.0326 87.2451,16.0326 87.5,18.5C 85.7549,16.9674 84.7549,14.9674 84.5,12.5 Z"/></g>
<g><path style="opacity:1" fill="#4c4c4c" d="M 138.5,11.5 C 139.292,15.1337 140.792,18.4671 143,21.5C 143.814,26.0204 143.647,30.3537 142.5,34.5C 142.809,29.7325 142.309,25.0658 141,20.5C 140.764,22.1193 139.931,23.1193 138.5,23.5C 137.199,20.8987 135.866,18.232 134.5,15.5C 134.957,13.2273 136.29,11.894 138.5,11.5 Z"/></g>
<g><path style="opacity:1" fill="#505050" d="M 58.5,15.5 C 54.8711,20.8752 53.5378,26.8752 54.5,33.5C 53.9243,29.7319 52.7577,26.0652 51,22.5C 50.5008,27.1548 50.3342,31.8215 50.5,36.5C 47.5291,29.2063 48.1958,22.2063 52.5,15.5C 53.915,14.7106 55.415,14.0439 57,13.5C 58.0299,13.8361 58.5299,14.5028 58.5,15.5 Z"/></g>
<g><path style="opacity:0.004" fill="#fefffe" d="M 27.5,21.5 C 28.8333,22.1667 28.8333,22.1667 27.5,21.5 Z"/></g>
<g><path style="opacity:1" fill="#4a4a4a" d="M 87.5,22.5 C 88.8875,29.117 88.5541,35.7836 86.5,42.5C 85.2719,43.3065 84.2719,44.3065 83.5,45.5C 83.631,44.7611 83.4643,44.0944 83,43.5C 81.6598,44.8678 80.3264,46.2011 79,47.5C 78.5,47.3333 78,47.1667 77.5,47C 78.8333,46.3333 79.8333,45.3333 80.5,44C 79.9056,43.5357 79.2389,43.369 78.5,43.5C 82.8985,37.6414 84.5652,30.9747 83.5,23.5C 83.81,22.2617 84.31,22.2617 85,23.5C 85.3333,22.5 85.6667,21.5 86,20.5C 86.2784,21.4158 86.7784,22.0825 87.5,22.5 Z"/></g>
<g><path style="opacity:0.106" fill="#cccccc" d="M 128.5,10.5 C 129.694,11.2719 130.694,12.2719 131.5,13.5C 117.718,9.75195 111.051,15.252 111.5,30C 111.582,34.4081 112.582,38.5747 114.5,42.5C 112.271,39.8104 110.604,36.8104 109.5,33.5C 108.995,27.5143 109.995,21.8476 112.5,16.5C 116.221,10.0964 121.554,8.09639 128.5,10.5 Z"/></g>
<g><path style="opacity:0.153" fill="#c8c8c8" d="M 59.5,6.5 C 56.7606,9.23273 54.4273,12.2327 52.5,15.5C 48.1958,22.2063 47.5291,29.2063 50.5,36.5C 50.7073,39.2406 51.7073,41.5739 53.5,43.5C 54.4706,45.4832 55.4706,47.4832 56.5,49.5C 50.2425,44.1083 47.2425,37.1083 47.5,28.5C 47.3683,18.7533 51.3683,11.42 59.5,6.5 Z"/></g>
<g><path style="opacity:1" fill="#424242" d="M 54.5,33.5 C 54.5,33.8333 54.5,34.1667 54.5,34.5C 54.3573,36.2624 54.6906,37.9291 55.5,39.5C 55.1543,40.6956 54.6543,40.6956 54,39.5C 54.3308,41.0187 54.1641,42.352 53.5,43.5C 51.7073,41.5739 50.7073,39.2406 50.5,36.5C 50.3342,31.8215 50.5008,27.1548 51,22.5C 52.7577,26.0652 53.9243,29.7319 54.5,33.5 Z"/></g>
<g><path style="opacity:1" fill="#484848" d="M 112.5,16.5 C 109.995,21.8476 108.995,27.5143 109.5,33.5C 110.237,36.2384 110.237,38.905 109.5,41.5C 110.937,43.5771 111.604,45.9105 111.5,48.5C 109.388,45.25 107.055,42.25 104.5,39.5C 104.5,39.1667 104.5,38.8333 104.5,38.5C 103.999,31.2757 104.666,24.2757 106.5,17.5C 108.423,15.81 110.423,15.4766 112.5,16.5 Z"/></g>
<g><path style="opacity:0.616" fill="#b0b0b0" d="M 107.5,13.5 C 107.167,14.8333 106.833,16.1667 106.5,17.5C 104.666,24.2757 103.999,31.2757 104.5,38.5C 101.732,30.4559 102.232,22.4559 106,14.5C 106.383,13.944 106.883,13.6107 107.5,13.5 Z"/></g>
<g><path style="opacity:0.004" fill="#fefffe" d="M 43.5,28.5 C 44.8333,29.1667 44.8333,29.1667 43.5,28.5 Z"/></g>
<g><path style="opacity:0.42" fill="#bdbdbd" d="M 87.5,18.5 C 89.0392,21.8646 89.7058,25.5313 89.5,29.5C 89.3333,32.1667 89.1667,34.8333 89,37.5C 88.6264,39.4913 87.793,41.158 86.5,42.5C 88.5541,35.7836 88.8875,29.117 87.5,22.5C 87.5,21.1667 87.5,19.8333 87.5,18.5 Z"/></g>
<g><path style="opacity:0.996" fill="#969696" d="M 138.5,11.5 C 140.708,12.8936 142.208,14.8936 143,17.5C 146.333,25.1667 146.333,32.8333 143,40.5C 141.974,43.2387 140.474,45.572 138.5,47.5C 139.156,45.516 139.822,43.516 140.5,41.5C 138.958,40.9316 138.125,39.2649 138,36.5C 136.723,38.7472 135.223,40.7472 133.5,42.5C 137.498,33.4872 137.498,24.4872 133.5,15.5C 133.833,15.5 134.167,15.5 134.5,15.5C 135.866,18.232 137.199,20.8987 138.5,23.5C 137.932,28.8128 138.765,33.8128 141,38.5C 141.791,37.255 142.291,35.9217 142.5,34.5C 143.647,30.3537 143.814,26.0204 143,21.5C 140.792,18.4671 139.292,15.1337 138.5,11.5 Z"/></g>
<g><path style="opacity:0.999" fill="#424242" d="M 142.5,34.5 C 142.291,35.9217 141.791,37.255 141,38.5C 138.765,33.8128 137.932,28.8128 138.5,23.5C 139.931,23.1193 140.764,22.1193 141,20.5C 142.309,25.0658 142.809,29.7325 142.5,34.5 Z"/></g>
<g><path style="opacity:0.004" fill="#fefffe" d="M 13.5,38.5 C 14.8333,39.1667 14.8333,39.1667 13.5,38.5 Z"/></g>
<g><path style="opacity:0.165" fill="#cccccd" d="M 30.5,40.5 C 25.6734,40.2207 21.0068,40.8874 16.5,42.5C 17.347,41.0337 18.6803,40.2004 20.5,40C 24.0267,39.1925 27.3601,39.3592 30.5,40.5 Z"/></g>
<g><path style="opacity:1" fill="#525252" d="M 138.5,47.5 C 137.833,48.8333 136.833,49.8333 135.5,50.5C 135.167,50.5 134.833,50.5 134.5,50.5C 134.631,49.6236 134.298,48.9569 133.5,48.5C 131.214,49.4196 128.881,49.4196 126.5,48.5C 128.662,47.8724 130.328,46.539 131.5,44.5C 131.5,43.1667 132.167,42.5 133.5,42.5C 135.223,40.7472 136.723,38.7472 138,36.5C 138.125,39.2649 138.958,40.9316 140.5,41.5C 139.822,43.516 139.156,45.516 138.5,47.5 Z"/></g>
<g><path style="opacity:0.416" fill="#b5b5b5" d="M 30.5,40.5 C 33.09,41.1283 35.4234,42.295 37.5,44C 38.8228,44.8159 39.4894,45.9826 39.5,47.5C 36.8333,45.8333 34.1667,44.1667 31.5,42.5C 31.1667,41.8333 30.8333,41.1667 30.5,40.5 Z"/></g>
<g><path style="opacity:0.447" fill="#b0b0b0" d="M 104.5,39.5 C 107.055,42.25 109.388,45.25 111.5,48.5C 111.5,48.8333 111.5,49.1667 111.5,49.5C 108.208,46.9427 105.874,43.6094 104.5,39.5 Z"/></g>
<g><path style="opacity:0.459" fill="#c1c1c1" d="M 114.5,42.5 C 117.026,44.9317 120.026,46.5983 123.5,47.5C 126.374,46.8779 129.04,45.8779 131.5,44.5C 130.328,46.539 128.662,47.8724 126.5,48.5C 124.167,48.5 121.833,48.5 119.5,48.5C 117.117,47.1149 115.45,45.1149 114.5,42.5 Z"/></g>
<g><path style="opacity:0.373" fill="#bbbbbb" d="M 183.5,49.5 C 177.28,42.4276 169.613,39.7609 160.5,41.5C 166.613,38.6084 172.613,39.1084 178.5,43C 180.79,44.7772 182.457,46.9438 183.5,49.5 Z"/></g>
<g><path style="opacity:0.004" fill="#fefffe" d="M 4.5,44.5 C 5.83333,45.1667 5.83333,45.1667 4.5,44.5 Z"/></g>
<g><path style="opacity:1" fill="#505050" d="M 30.5,40.5 C 30.8333,41.1667 31.1667,41.8333 31.5,42.5C 27.4569,41.0993 23.4569,41.266 19.5,43C 21.3008,43.3173 21.6341,43.984 20.5,45C 23.0356,45.1862 25.369,45.6862 27.5,46.5C 24.3508,46.2114 21.3508,46.7114 18.5,48C 16.2659,50.0627 14.2659,52.2294 12.5,54.5C 12.0472,53.5416 11.3805,52.7083 10.5,52C 12.5,49.3333 14.8333,47 17.5,45C 16.9056,44.5357 16.2389,44.369 15.5,44.5C 15.8333,43.8333 16.1667,43.1667 16.5,42.5C 21.0068,40.8874 25.6734,40.2207 30.5,40.5 Z"/></g>
<g><path style="opacity:0.608" fill="#b3b3b3" d="M 74.5,12.5 C 79.1543,14.8064 82.1543,18.473 83.5,23.5C 84.5652,30.9747 82.8985,37.6414 78.5,43.5C 76.66,45.9145 74.3267,47.5812 71.5,48.5C 65.4921,49.0001 61.1587,46.6668 58.5,41.5C 69.2772,50.4102 76.7772,48.0769 81,34.5C 82.8578,26.216 80.6911,18.8827 74.5,12.5 Z"/></g>
<g><path style="opacity:0.694" fill="#9a9a9a" d="M 16.5,42.5 C 16.1667,43.1667 15.8333,43.8333 15.5,44.5C 13.1667,46.5 10.8333,48.5 8.5,50.5C 10.1667,46.8333 12.8333,44.1667 16.5,42.5 Z"/></g>
<g><path style="opacity:1" fill="#4a4a4a" d="M 31.5,42.5 C 34.1667,44.1667 36.8333,45.8333 39.5,47.5C 40.9063,47.9731 41.573,48.9731 41.5,50.5C 41.5,51.1667 41.5,51.8333 41.5,52.5C 39.9345,51.9394 38.6011,52.6061 37.5,54.5C 35.7865,51.7872 33.4532,49.7872 30.5,48.5C 30.0269,47.0937 29.0269,46.427 27.5,46.5C 25.369,45.6862 23.0356,45.1862 20.5,45C 21.6341,43.984 21.3008,43.3173 19.5,43C 23.4569,41.266 27.4569,41.0993 31.5,42.5 Z"/></g>
<g><path style="opacity:1" fill="#4b4b4b" d="M 54.5,34.5 C 55.3127,36.2608 56.3127,37.9275 57.5,39.5C 58.3382,39.8417 58.6716,40.5084 58.5,41.5C 61.1587,46.6668 65.4921,49.0001 71.5,48.5C 69.7078,49.3091 67.7078,49.8091 65.5,50C 66.8333,50.3333 68.1667,50.6667 69.5,51C 69.1667,51.3333 68.8333,51.6667 68.5,52C 70.8098,52.4966 73.1432,52.6633 75.5,52.5C 72.0242,53.6433 68.3575,53.8099 64.5,53C 63.8742,52.2496 63.3742,51.4162 63,50.5C 62.4387,51.0219 61.772,51.3552 61,51.5C 59.5936,50.5862 58.0936,49.9195 56.5,49.5C 55.4706,47.4832 54.4706,45.4832 53.5,43.5C 54.1641,42.352 54.3308,41.0187 54,39.5C 54.6543,40.6956 55.1543,40.6956 55.5,39.5C 54.6906,37.9291 54.3573,36.2624 54.5,34.5 Z"/></g>
<g><path style="opacity:0.993" fill="#4c4c4c" d="M 109.5,33.5 C 110.604,36.8104 112.271,39.8104 114.5,42.5C 115.45,45.1149 117.117,47.1149 119.5,48.5C 116.903,48.7208 116.903,49.2208 119.5,50C 121.833,50.3333 124.167,50.6667 126.5,51C 123.635,51.1829 120.969,51.6829 118.5,52.5C 116.685,51.3702 114.685,50.7036 112.5,50.5C 111.833,50.5 111.5,50.1667 111.5,49.5C 111.5,49.1667 111.5,48.8333 111.5,48.5C 111.604,45.9105 110.937,43.5771 109.5,41.5C 110.237,38.905 110.237,36.2384 109.5,33.5 Z"/></g>
<g><path style="opacity:0.416" fill="#bebebe" d="M 160.5,41.5 C 160.167,42.1667 159.833,42.8333 159.5,43.5C 155.855,45.1449 153.188,47.8116 151.5,51.5C 151.167,51.5 150.833,51.5 150.5,51.5C 152.167,46.5 155.5,43.1667 160.5,41.5 Z"/></g>
<g><path style="opacity:1" fill="#474747" d="M 164.5,46.5 C 162.246,47.4151 160.246,48.7484 158.5,50.5C 157.624,50.6309 156.957,50.2975 156.5,49.5C 157.506,48.6043 157.506,47.9377 156.5,47.5C 154.216,49.1695 153.382,51.1695 154,53.5C 152.984,52.3659 152.317,52.6992 152,54.5C 151.517,53.552 151.351,52.552 151.5,51.5C 153.188,47.8116 155.855,45.1449 159.5,43.5C 163.969,42.6378 168.302,43.1378 172.5,45C 169.635,45.1829 166.969,45.6829 164.5,46.5 Z"/></g>
<g><path style="opacity:1" fill="#4b4b4b" d="M 183.5,49.5 C 183.927,52.0098 184.593,54.3432 185.5,56.5C 185.657,57.8734 185.49,59.2068 185,60.5C 184.71,58.9559 184.044,57.6226 183,56.5C 182.658,58.6192 181.825,58.9526 180.5,57.5C 179.396,52.865 176.73,49.865 172.5,48.5C 172.389,47.8826 172.056,47.3826 171.5,47C 169.19,46.5034 166.857,46.3367 164.5,46.5C 166.969,45.6829 169.635,45.1829 172.5,45C 168.302,43.1378 163.969,42.6378 159.5,43.5C 159.833,42.8333 160.167,42.1667 160.5,41.5C 169.613,39.7609 177.28,42.4276 183.5,49.5 Z"/></g>
<g><path style="opacity:1" fill="#474747" d="M 78.5,43.5 C 79.2389,43.369 79.9056,43.5357 80.5,44C 79.8333,45.3333 78.8333,46.3333 77.5,47C 78,47.1667 78.5,47.3333 79,47.5C 80.3264,46.2011 81.6598,44.8678 83,43.5C 83.4643,44.0944 83.631,44.7611 83.5,45.5C 81.4509,48.5497 78.7843,50.883 75.5,52.5C 73.1432,52.6633 70.8098,52.4966 68.5,52C 68.8333,51.6667 69.1667,51.3333 69.5,51C 68.1667,50.6667 66.8333,50.3333 65.5,50C 67.7078,49.8091 69.7078,49.3091 71.5,48.5C 74.3267,47.5812 76.66,45.9145 78.5,43.5 Z"/></g>
<g><path style="opacity:1" fill="#464646" d="M 119.5,48.5 C 121.833,48.5 124.167,48.5 126.5,48.5C 128.881,49.4196 131.214,49.4196 133.5,48.5C 134.298,48.9569 134.631,49.6236 134.5,50.5C 129.361,53.5098 124.027,54.1765 118.5,52.5C 120.969,51.6829 123.635,51.1829 126.5,51C 124.167,50.6667 121.833,50.3333 119.5,50C 116.903,49.2208 116.903,48.7208 119.5,48.5 Z"/></g>
<g><path style="opacity:0.004" fill="#fefffe" d="M 199.5,49.5 C 200.833,50.1667 200.833,50.1667 199.5,49.5 Z"/></g>
<g><path style="opacity:0.035" fill="#d0d1d1" d="M 164.5,46.5 C 166.857,46.3367 169.19,46.5034 171.5,47C 172.056,47.3826 172.389,47.8826 172.5,48.5C 166.502,46.6664 161.668,48.3331 158,53.5C 155.333,60.6696 154.833,68.003 156.5,75.5C 155.833,74.8333 155.167,74.1667 154.5,73.5C 152.274,65.15 153.607,57.4833 158.5,50.5C 160.246,48.7484 162.246,47.4151 164.5,46.5 Z"/></g>
<g><path style="opacity:0.988" fill="#9c9c9c" d="M 86.5,42.5 C 82.5979,52.6196 75.2646,56.7863 64.5,55C 61.2444,53.884 58.5777,52.0507 56.5,49.5C 58.0936,49.9195 59.5936,50.5862 61,51.5C 61.772,51.3552 62.4387,51.0219 63,50.5C 63.3742,51.4162 63.8742,52.2496 64.5,53C 68.3575,53.8099 72.0242,53.6433 75.5,52.5C 78.7843,50.883 81.4509,48.5497 83.5,45.5C 84.2719,44.3065 85.2719,43.3065 86.5,42.5 Z"/></g>
<g><path style="opacity:0.125" fill="#d5d5d5" d="M 41.5,50.5 C 44.0376,53.2452 45.5376,56.5785 46,60.5C 46.8099,64.3575 46.6433,68.0242 45.5,71.5C 45.8772,66.5474 45.2105,61.8807 43.5,57.5C 43.2041,55.597 42.5375,53.9303 41.5,52.5C 41.5,51.8333 41.5,51.1667 41.5,50.5 Z"/></g>
<g><path style="opacity:1" fill="#505050" d="M 158.5,50.5 C 153.607,57.4833 152.274,65.15 154.5,73.5C 153.883,73.3893 153.383,73.056 153,72.5C 153.018,67.9308 152.185,63.5975 150.5,59.5C 152.147,57.512 151.814,56.1787 149.5,55.5C 149.833,54.1667 150.167,52.8333 150.5,51.5C 150.833,51.5 151.167,51.5 151.5,51.5C 151.351,52.552 151.517,53.552 152,54.5C 152.317,52.6992 152.984,52.3659 154,53.5C 153.382,51.1695 154.216,49.1695 156.5,47.5C 157.506,47.9377 157.506,48.6043 156.5,49.5C 156.957,50.2975 157.624,50.6309 158.5,50.5 Z"/></g>
<g><path style="opacity:0.211" fill="#c2c2c2" d="M 112.5,50.5 C 114.685,50.7036 116.685,51.3702 118.5,52.5C 124.027,54.1765 129.361,53.5098 134.5,50.5C 134.833,50.5 135.167,50.5 135.5,50.5C 130.869,55.2344 125.202,56.7344 118.5,55C 115.823,54.1864 113.823,52.6864 112.5,50.5 Z"/></g>
<g><path style="opacity:1" fill="#474747" d="M 15.5,44.5 C 16.2389,44.369 16.9056,44.5357 17.5,45C 14.8333,47 12.5,49.3333 10.5,52C 11.3805,52.7083 12.0472,53.5416 12.5,54.5C 11.962,56.1172 11.6287,57.7839 11.5,59.5C 10.9574,65.4906 10.1241,71.4906 9,77.5C 8.62576,76.5838 8.12576,75.7504 7.5,75C 8.23741,72.7748 8.23741,70.4415 7.5,68C 7.80117,63.5526 8.30117,63.7193 9,68.5C 9.66667,66.1667 9.66667,63.8333 9,61.5C 8.23703,64.0635 7.73703,64.0635 7.5,61.5C 7.96721,59.4317 8.63388,57.4317 9.5,55.5C 9.04311,54.7025 8.37644,54.3691 7.5,54.5C 7.83333,53.1667 8.16667,51.8333 8.5,50.5C 10.8333,48.5 13.1667,46.5 15.5,44.5 Z"/></g>
<g><path style="opacity:1" fill="#525252" d="M 185.5,56.5 C 186.991,59.1864 187.657,62.1864 187.5,65.5C 187.495,67.6965 187.162,69.6965 186.5,71.5C 186.663,69.1432 186.497,66.8098 186,64.5C 184.711,67.3508 184.211,70.3508 184.5,73.5C 183.167,73.5 181.833,73.5 180.5,73.5C 181.833,68.1667 181.833,62.8333 180.5,57.5C 181.825,58.9526 182.658,58.6192 183,56.5C 184.044,57.6226 184.71,58.9559 185,60.5C 185.49,59.2068 185.657,57.8734 185.5,56.5 Z"/></g>
<g><path style="opacity:1" fill="#454545" d="M 41.5,52.5 C 42.5375,53.9303 43.2041,55.597 43.5,57.5C 43.5,62.8333 43.5,68.1667 43.5,73.5C 41.552,70.5071 40.2187,67.1738 39.5,63.5C 39.2444,60.4021 38.5778,57.4021 37.5,54.5C 38.6011,52.6061 39.9345,51.9394 41.5,52.5 Z"/></g>
<g><path style="opacity:0.004" fill="#fefffe" d="M 87.5,57.5 C 88.8333,58.1667 88.8333,58.1667 87.5,57.5 Z"/></g>
<g><path style="opacity:0.004" fill="#fefffe" d="M 106.5,59.5 C 107.833,60.1667 107.833,60.1667 106.5,59.5 Z"/></g>
<g><path style="opacity:0.004" fill="#fefffe" d="M 129.5,59.5 C 130.833,60.1667 130.833,60.1667 129.5,59.5 Z"/></g>
<g><path style="opacity:0.641" fill="#ababab" d="M 129.5,76.5 C 127.116,74.1153 124.45,72.1153 121.5,70.5C 116.97,67.2098 111.97,64.8765 106.5,63.5C 99.8833,62.411 93.2166,62.2443 86.5,63C 82.6536,64.0859 79.3203,65.9193 76.5,68.5C 75.1667,68.5 73.8333,68.5 72.5,68.5C 90.5373,57.3902 108.204,58.2236 125.5,71C 127.464,72.451 128.797,74.2843 129.5,76.5 Z"/></g>
<g><path style="opacity:1" fill="#4f4f4f" d="M 7.5,54.5 C 8.37644,54.3691 9.04311,54.7025 9.5,55.5C 8.63388,57.4317 7.96721,59.4317 7.5,61.5C 7.73703,64.0635 8.23703,64.0635 9,61.5C 9.66667,63.8333 9.66667,66.1667 9,68.5C 8.30117,63.7193 7.80117,63.5526 7.5,68C 8.23741,70.4415 8.23741,72.7748 7.5,75C 8.12576,75.7504 8.62576,76.5838 9,77.5C 10.1241,71.4906 10.9574,65.4906 11.5,59.5C 11.313,65.2124 11.6463,70.8791 12.5,76.5C 11.5,77.5 10.5,78.5 9.5,79.5C 7.59047,78.0254 6.42381,76.0254 6,73.5C 5.33333,68.1667 5.33333,62.8333 6,57.5C 6.23209,56.2625 6.73209,55.2625 7.5,54.5 Z"/></g>
<g><path style="opacity:0.99" fill="#818181" d="M 43.5,57.5 C 45.2105,61.8807 45.8772,66.5474 45.5,71.5C 45.5848,74.6489 44.5848,77.3155 42.5,79.5C 42.5172,77.4352 42.8505,75.4352 43.5,73.5C 43.5,68.1667 43.5,62.8333 43.5,57.5 Z"/></g>
<g><path style="opacity:1" fill="#454545" d="M 106.5,63.5 C 102.018,64.3255 97.3514,64.8255 92.5,65C 95.1667,65.3333 97.8333,65.6667 100.5,66C 97.3054,66.1805 94.3054,66.6805 91.5,67.5C 89.4352,67.5172 87.4352,67.8505 85.5,68.5C 85.38,67.4138 84.7133,66.7472 83.5,66.5C 81.2383,67.4669 78.905,68.1336 76.5,68.5C 79.3203,65.9193 82.6536,64.0859 86.5,63C 93.2166,62.2443 99.8833,62.411 106.5,63.5 Z"/></g>
<g><path style="opacity:0.35" fill="#c4c4c4" d="M 183.5,49.5 C 189.919,58.9572 190.752,68.9572 186,79.5C 181.493,88.3581 174.326,92.5248 164.5,92C 162.509,91.6264 160.842,90.793 159.5,89.5C 160.167,89.5 160.833,89.5 161.5,89.5C 168.388,91.7069 174.388,90.3736 179.5,85.5C 183.569,81.747 185.903,77.0803 186.5,71.5C 187.162,69.6965 187.495,67.6965 187.5,65.5C 187.657,62.1864 186.991,59.1864 185.5,56.5C 184.593,54.3432 183.927,52.0098 183.5,49.5 Z"/></g>
<g><path style="opacity:0.167" fill="#c9c9c9" d="M 172.5,48.5 C 176.73,49.865 179.396,52.865 180.5,57.5C 181.833,62.8333 181.833,68.1667 180.5,73.5C 180.167,74.5 179.5,75.1667 178.5,75.5C 182.083,65.0632 180.083,56.0632 172.5,48.5 Z"/></g>
<g><path style="opacity:1" fill="#4b4b4b" d="M 186.5,71.5 C 185.903,77.0803 183.569,81.747 179.5,85.5C 179.225,83.1582 178.392,83.1582 177,85.5C 176.383,84.5509 176.549,83.7175 177.5,83C 176.906,82.5357 176.239,82.369 175.5,82.5C 177.025,80.7837 178.025,78.7837 178.5,76.5C 178.5,76.1667 178.5,75.8333 178.5,75.5C 179.5,75.1667 180.167,74.5 180.5,73.5C 181.833,73.5 183.167,73.5 184.5,73.5C 184.211,70.3508 184.711,67.3508 186,64.5C 186.497,66.8098 186.663,69.1432 186.5,71.5 Z"/></g>
<g><path style="opacity:1" fill="#484848" d="M 106.5,63.5 C 111.97,64.8765 116.97,67.2098 121.5,70.5C 120.928,71.9733 120.095,73.3066 119,74.5C 117.49,72.7923 115.99,71.1256 114.5,69.5C 112.674,69.9202 110.674,69.9202 108.5,69.5C 102.989,67.7897 97.3228,67.123 91.5,67.5C 94.3054,66.6805 97.3054,66.1805 100.5,66C 97.8333,65.6667 95.1667,65.3333 92.5,65C 97.3514,64.8255 102.018,64.3255 106.5,63.5 Z"/></g>
<g><path style="opacity:0.999" fill="#4e4e4e" d="M 39.5,63.5 C 40.2187,67.1738 41.552,70.5071 43.5,73.5C 42.8505,75.4352 42.5172,77.4352 42.5,79.5C 41.8333,79.8333 41.1667,80.1667 40.5,80.5C 40.6602,78.8008 40.4935,77.1341 40,75.5C 38.3107,77.76 37.144,80.26 36.5,83C 34.8659,83.4935 33.1992,83.6602 31.5,83.5C 36.9395,77.9527 39.6062,71.286 39.5,63.5 Z"/></g>
<g><path style="opacity:1" fill="#494949" d="M 85.5,68.5 C 81.4038,69.5696 77.7371,71.5696 74.5,74.5C 73.5,75.1667 72.5,75.8333 71.5,76.5C 69.368,76.4456 68.0347,75.4456 67.5,73.5C 69.3603,72.0613 71.027,70.3947 72.5,68.5C 73.8333,68.5 75.1667,68.5 76.5,68.5C 78.905,68.1336 81.2383,67.4669 83.5,66.5C 84.7133,66.7472 85.38,67.4138 85.5,68.5 Z"/></g>
<g><path style="opacity:0.247" fill="#b8b8b8" d="M 91.5,67.5 C 97.3228,67.123 102.989,67.7897 108.5,69.5C 108.5,69.8333 108.5,70.1667 108.5,70.5C 97.3083,68.1954 86.6416,69.5287 76.5,74.5C 75.8333,74.5 75.1667,74.5 74.5,74.5C 77.7371,71.5696 81.4038,69.5696 85.5,68.5C 87.4352,67.8505 89.4352,67.5172 91.5,67.5 Z"/></g>
<g><path style="opacity:0.118" fill="#d6d6d6" d="M 108.5,70.5 C 111.754,70.7936 114.421,72.127 116.5,74.5C 113.515,73.6743 110.849,72.341 108.5,70.5 Z"/></g>
<g><path style="opacity:0.325" fill="#b4b4b4" d="M 150.5,51.5 C 150.167,52.8333 149.833,54.1667 149.5,55.5C 148.421,61.4492 148.254,67.4492 149,73.5C 149.67,76.1739 150.837,78.5073 152.5,80.5C 154.427,83.7673 156.761,86.7673 159.5,89.5C 156.269,87.7801 153.436,85.4468 151,82.5C 145.06,72.7844 144.394,62.7844 149,52.5C 149.383,51.944 149.883,51.6107 150.5,51.5 Z"/></g>
<g><path style="opacity:1" fill="#444444" d="M 149.5,55.5 C 151.814,56.1787 152.147,57.512 150.5,59.5C 152.185,63.5975 153.018,67.9308 153,72.5C 153.383,73.056 153.883,73.3893 154.5,73.5C 154.662,75.5273 154.495,77.5273 154,79.5C 153.617,80.056 153.117,80.3893 152.5,80.5C 150.837,78.5073 149.67,76.1739 149,73.5C 148.254,67.4492 148.421,61.4492 149.5,55.5 Z"/></g>
<g><path style="opacity:1" fill="#4f4f4f" d="M 108.5,70.5 C 108.5,70.1667 108.5,69.8333 108.5,69.5C 110.674,69.9202 112.674,69.9202 114.5,69.5C 115.99,71.1256 117.49,72.7923 119,74.5C 120.095,73.3066 120.928,71.9733 121.5,70.5C 124.45,72.1153 127.116,74.1153 129.5,76.5C 129.5,77.1667 129.5,77.8333 129.5,78.5C 126.87,77.8262 126.87,78.4928 129.5,80.5C 128.754,81.7362 128.421,83.0695 128.5,84.5C 126.126,81.126 123.126,78.4593 119.5,76.5C 117.973,76.573 116.973,75.9063 116.5,74.5C 114.421,72.127 111.754,70.7936 108.5,70.5 Z"/></g>
<g><path style="opacity:0.184" fill="#bfbfbf" d="M 8.5,50.5 C 8.16667,51.8333 7.83333,53.1667 7.5,54.5C 6.73209,55.2625 6.23209,56.2625 6,57.5C 5.33333,62.8333 5.33333,68.1667 6,73.5C 6.42381,76.0254 7.59047,78.0254 9.5,79.5C 11.3498,84.8487 15.0164,88.3487 20.5,90C 23.592,90.7358 26.592,90.5691 29.5,89.5C 34.6507,88.3523 38.3174,85.3523 40.5,80.5C 41.1667,80.1667 41.8333,79.8333 42.5,79.5C 38.601,88.7859 31.601,92.9525 21.5,92C 8.03472,85.915 2.20138,75.415 4,60.5C 4.4624,56.5785 5.9624,53.2452 8.5,50.5 Z"/></g>
<g><path style="opacity:0.145" fill="#c9c9c9" d="M 27.5,46.5 C 29.0269,46.427 30.0269,47.0937 30.5,48.5C 33.4532,49.7872 35.7865,51.7872 37.5,54.5C 38.5778,57.4021 39.2444,60.4021 39.5,63.5C 39.6062,71.286 36.9395,77.9527 31.5,83.5C 28.2356,84.3242 24.9023,84.6576 21.5,84.5C 17.8739,82.5407 14.8739,79.874 12.5,76.5C 11.6463,70.8791 11.313,65.2124 11.5,59.5C 11.6287,57.7839 11.962,56.1172 12.5,54.5C 14.2659,52.2294 16.2659,50.0627 18.5,48C 21.3508,46.7114 24.3508,46.2114 27.5,46.5 Z M 30.5,48.5 C 37.0129,55.2206 39.1796,63.2206 37,72.5C 32.5628,84.4965 25.5628,86.4965 16,78.5C 11.1425,69.2801 11.4758,60.2801 17,51.5C 20.8666,47.6268 25.3666,46.6268 30.5,48.5 Z"/></g>
<g><path style="opacity:0.981" fill="#4a4a4a" d="M 67.5,73.5 C 68.0347,75.4456 69.368,76.4456 71.5,76.5C 64.8333,84.1667 58.1667,91.8333 51.5,99.5C 50.5041,99.5858 49.6708,99.2524 49,98.5C 47.0924,101.332 46.259,100.999 46.5,97.5C 52.7837,88.8823 59.7837,80.8823 67.5,73.5 Z"/></g>
<g><path style="opacity:0.98" fill="#9a9a9a" d="M 156.5,75.5 C 160.191,82.6746 165.858,84.8412 173.5,82C 175.3,80.1881 176.967,78.3548 178.5,76.5C 178.025,78.7837 177.025,80.7837 175.5,82.5C 172.419,85.1925 168.753,86.1925 164.5,85.5C 161.649,83.4952 158.649,81.6618 155.5,80C 156.38,78.6439 156.714,77.1439 156.5,75.5 Z"/></g>
<g><path style="opacity:0.373" fill="#c2c2c2" d="M 129.5,76.5 C 132.243,78.2393 134.243,80.5726 135.5,83.5C 133.5,81.8333 131.5,80.1667 129.5,78.5C 129.5,77.8333 129.5,77.1667 129.5,76.5 Z"/></g>
<g><path style="opacity:0.482" fill="#b9b9b9" d="M 72.5,68.5 C 71.027,70.3947 69.3603,72.0613 67.5,73.5C 59.7837,80.8823 52.7837,88.8823 46.5,97.5C 45.1667,98.5 43.8333,99.5 42.5,100.5C 49.8492,89.9718 58.1825,80.1385 67.5,71C 69.0779,69.9055 70.7446,69.0722 72.5,68.5 Z"/></g>
<g><path style="opacity:1" fill="#4a4b4b" d="M 154.5,73.5 C 155.167,74.1667 155.833,74.8333 156.5,75.5C 156.714,77.1439 156.38,78.6439 155.5,80C 158.649,81.6618 161.649,83.4952 164.5,85.5C 164.189,86.4778 163.522,87.1445 162.5,87.5C 158.839,86.1766 158.506,86.8433 161.5,89.5C 160.833,89.5 160.167,89.5 159.5,89.5C 156.761,86.7673 154.427,83.7673 152.5,80.5C 153.117,80.3893 153.617,80.056 154,79.5C 154.495,77.5273 154.662,75.5273 154.5,73.5 Z"/></g>
<g><path style="opacity:0.298" fill="#bfbfbf" d="M 119.5,76.5 C 123.126,78.4593 126.126,81.126 128.5,84.5C 130.58,86.5732 132.246,88.9066 133.5,91.5C 128.146,87.1131 123.48,82.1131 119.5,76.5 Z"/></g>
<g><path style="opacity:1" fill="#484848" d="M 12.5,76.5 C 14.8739,79.874 17.8739,82.5407 21.5,84.5C 23.4849,88.2606 26.4849,89.4273 30.5,88C 29.944,88.3826 29.6107,88.8826 29.5,89.5C 26.592,90.5691 23.592,90.7358 20.5,90C 15.0164,88.3487 11.3498,84.8487 9.5,79.5C 10.5,78.5 11.5,77.5 12.5,76.5 Z"/></g>
<g><path style="opacity:1" fill="#4b4b4b" d="M 40.5,80.5 C 38.3174,85.3523 34.6507,88.3523 29.5,89.5C 29.6107,88.8826 29.944,88.3826 30.5,88C 26.4849,89.4273 23.4849,88.2606 21.5,84.5C 24.9023,84.6576 28.2356,84.3242 31.5,83.5C 33.1992,83.6602 34.8659,83.4935 36.5,83C 37.144,80.26 38.3107,77.76 40,75.5C 40.4935,77.1341 40.6602,78.8008 40.5,80.5 Z"/></g>
<g><path style="opacity:0.997" fill="#484848" d="M 129.5,78.5 C 131.5,80.1667 133.5,81.8333 135.5,83.5C 136.373,85.8863 137.873,87.8863 140,89.5C 140.483,90.448 140.649,91.448 140.5,92.5C 140.869,94.4412 141.536,96.2745 142.5,98C 141.906,98.4643 141.239,98.631 140.5,98.5C 140.158,97.6618 139.492,97.3284 138.5,97.5C 137.581,94.9108 135.914,92.9108 133.5,91.5C 132.246,88.9066 130.58,86.5732 128.5,84.5C 128.421,83.0695 128.754,81.7362 129.5,80.5C 126.87,78.4928 126.87,77.8262 129.5,78.5 Z"/></g>
<g><path style="opacity:0.596" fill="#ababab" d="M 135.5,83.5 C 138.903,85.8998 141.57,88.8998 143.5,92.5C 142.5,92.5 141.5,92.5 140.5,92.5C 140.649,91.448 140.483,90.448 140,89.5C 137.873,87.8863 136.373,85.8863 135.5,83.5 Z"/></g>
<g><path style="opacity:0.999" fill="#484848" d="M 175.5,82.5 C 176.239,82.369 176.906,82.5357 177.5,83C 176.549,83.7175 176.383,84.5509 177,85.5C 178.392,83.1582 179.225,83.1582 179.5,85.5C 174.388,90.3736 168.388,91.7069 161.5,89.5C 158.506,86.8433 158.839,86.1766 162.5,87.5C 163.522,87.1445 164.189,86.4778 164.5,85.5C 168.753,86.1925 172.419,85.1925 175.5,82.5 Z"/></g>
<g><path style="opacity:0.047" fill="#c5c5c5" d="M 133.5,91.5 C 135.914,92.9108 137.581,94.9108 138.5,97.5C 136.086,96.0892 134.419,94.0892 133.5,91.5 Z"/></g>
<g><path style="opacity:0.475" fill="#c5c5c5" d="M 143.5,92.5 C 145.914,93.9108 147.581,95.9108 148.5,98.5C 146.086,97.0892 144.419,95.0892 143.5,92.5 Z"/></g>
<g><path style="opacity:0.004" fill="#fefffe" d="M 164.5,95.5 C 165.833,96.1667 165.833,96.1667 164.5,95.5 Z"/></g>
<g><path style="opacity:0.161" fill="#cbcbcb" d="M 74.5,74.5 C 75.1667,74.5 75.8333,74.5 76.5,74.5C 59.4504,92.549 43.1171,111.216 27.5,130.5C 28.3742,127.087 30.0408,124.087 32.5,121.5C 36.4041,117.352 40.0708,113.019 43.5,108.5C 46.1379,105.526 48.8046,102.526 51.5,99.5C 58.1667,91.8333 64.8333,84.1667 71.5,76.5C 72.5,75.8333 73.5,75.1667 74.5,74.5 Z"/></g>
<g><path style="opacity:0.424" fill="#b3b3b3" d="M 138.5,97.5 C 139.492,97.3284 140.158,97.6618 140.5,98.5C 141.925,99.922 142.925,101.589 143.5,103.5C 141.11,102.109 139.443,100.109 138.5,97.5 Z"/></g>
<g><path style="opacity:0.561" fill="#c2c2c2" d="M 148.5,98.5 C 151.573,100.569 153.906,103.236 155.5,106.5C 154.833,106.167 154.167,105.833 153.5,105.5C 151.42,103.427 149.754,101.093 148.5,98.5 Z"/></g>
<g><path style="opacity:1" fill="#4c4c4c" d="M 46.5,97.5 C 46.259,100.999 47.0924,101.332 49,98.5C 49.6708,99.2524 50.5041,99.5858 51.5,99.5C 48.8046,102.526 46.1379,105.526 43.5,108.5C 43.631,107.761 43.4643,107.094 43,106.5C 42,107.5 41,108.5 40,109.5C 39.5831,108.244 38.7498,107.577 37.5,107.5C 39.5798,105.427 41.2464,103.093 42.5,100.5C 43.8333,99.5 45.1667,98.5 46.5,97.5 Z"/></g>
<g><path style="opacity:0.482" fill="#b9b9b9" d="M 42.5,100.5 C 41.2464,103.093 39.5798,105.427 37.5,107.5C 35.863,109.475 34.1964,111.475 32.5,113.5C 29.1667,117.167 25.8333,120.833 22.5,124.5C 28.0431,115.618 34.7097,107.618 42.5,100.5 Z"/></g>
<g><path style="opacity:1" fill="#4a4a4a" d="M 140.5,92.5 C 141.5,92.5 142.5,92.5 143.5,92.5C 144.419,95.0892 146.086,97.0892 148.5,98.5C 149.754,101.093 151.42,103.427 153.5,105.5C 152.833,107.5 151.5,108.833 149.5,109.5C 147.785,107.118 145.785,105.118 143.5,103.5C 142.925,101.589 141.925,99.922 140.5,98.5C 141.239,98.631 141.906,98.4643 142.5,98C 141.536,96.2745 140.869,94.4412 140.5,92.5 Z"/></g>
<g><path style="opacity:0.027" fill="#c1c1c1" d="M 143.5,103.5 C 145.785,105.118 147.785,107.118 149.5,109.5C 149.5,109.833 149.5,110.167 149.5,110.5C 146.781,108.781 144.781,106.447 143.5,103.5 Z"/></g>
<g><path style="opacity:0.482" fill="#bdbdbd" d="M 155.5,106.5 C 157.587,107.585 158.92,109.251 159.5,111.5C 157.413,110.415 156.08,108.749 155.5,106.5 Z"/></g>
<g><path style="opacity:1" fill="#4b4b4b" d="M 153.5,105.5 C 154.167,105.833 154.833,106.167 155.5,106.5C 156.08,108.749 157.413,110.415 159.5,111.5C 159.5,112.167 159.5,112.833 159.5,113.5C 158.105,111.946 157.439,112.279 157.5,114.5C 158.046,116.135 158.38,117.801 158.5,119.5C 155.785,116.118 152.785,113.118 149.5,110.5C 149.5,110.167 149.5,109.833 149.5,109.5C 151.5,108.833 152.833,107.5 153.5,105.5 Z"/></g>
<g><path style="opacity:0.137" fill="#cccccc" d="M 107.5,111.5 C 111.311,110.355 115.311,110.188 119.5,111C 122.595,111.935 124.929,113.769 126.5,116.5C 124.079,114.762 121.412,113.429 118.5,112.5C 115.038,111.518 111.371,111.185 107.5,111.5 Z"/></g>
<g><path style="opacity:0.604" fill="#b7b7b7" d="M 159.5,111.5 C 162.573,113.569 164.906,116.236 166.5,119.5C 164.167,117.5 161.833,115.5 159.5,113.5C 159.5,112.833 159.5,112.167 159.5,111.5 Z"/></g>
<g><path style="opacity:1" fill="#494949" d="M 43.5,108.5 C 40.0708,113.019 36.4041,117.352 32.5,121.5C 29.9991,121.489 29.8324,120.822 32,119.5C 32.4955,117.527 32.6621,115.527 32.5,113.5C 34.1964,111.475 35.863,109.475 37.5,107.5C 38.7498,107.577 39.5831,108.244 40,109.5C 41,108.5 42,107.5 43,106.5C 43.4643,107.094 43.631,107.761 43.5,108.5 Z"/></g>
<g><path style="opacity:0.302" fill="#cacaca" d="M 107.5,111.5 C 103.771,113.718 100.438,116.551 97.5,120C 95.9343,120.3 94.601,119.8 93.5,118.5C 91.8525,116.674 89.8525,115.34 87.5,114.5C 87.1193,113.069 86.1193,112.236 84.5,112C 80.141,111.466 75.8076,111.632 71.5,112.5C 77.0562,109.447 82.7228,109.28 88.5,112C 91.3116,113.977 93.9783,116.144 96.5,118.5C 98.6499,116.851 100.65,115.018 102.5,113C 104.025,111.991 105.692,111.491 107.5,111.5 Z"/></g>
<g><path style="opacity:1" fill="#464646" d="M 118.5,112.5 C 122.283,115.16 121.617,116.826 116.5,117.5C 113.061,117.253 109.728,117.586 106.5,118.5C 102.71,118.992 102.044,118.159 104.5,116C 106.5,115.667 108.5,115.333 110.5,115C 109.5,114.667 108.5,114.333 107.5,114C 111.026,112.663 114.692,112.163 118.5,112.5 Z"/></g>
<g><path style="opacity:1" fill="#4f4f4f" d="M 87.5,114.5 C 86.009,114.901 84.3423,115.068 82.5,115C 84.0557,115.72 85.0557,116.887 85.5,118.5C 82.2356,117.676 78.9023,117.342 75.5,117.5C 77.2922,116.691 79.2922,116.191 81.5,116C 77.8573,114.155 74.1906,114.155 70.5,116C 69.9103,117.509 69.2436,119.009 68.5,120.5C 67.7348,119.388 66.7348,118.721 65.5,118.5C 67.5,116.5 69.5,114.5 71.5,112.5C 75.8076,111.632 80.141,111.466 84.5,112C 86.1193,112.236 87.1193,113.069 87.5,114.5 Z"/></g>
<g><path style="opacity:1" fill="#464646" d="M 75.5,117.5 C 71.855,119.145 69.1884,121.812 67.5,125.5C 66.5,125.5 65.5,125.5 64.5,125.5C 64.5,123.833 64.5,122.167 64.5,120.5C 64.8333,119.833 65.1667,119.167 65.5,118.5C 66.7348,118.721 67.7348,119.388 68.5,120.5C 69.2436,119.009 69.9103,117.509 70.5,116C 74.1906,114.155 77.8573,114.155 81.5,116C 79.2922,116.191 77.2922,116.691 75.5,117.5 Z"/></g>
<g><path style="opacity:1" fill="#474747" d="M 87.5,114.5 C 89.8525,115.34 91.8525,116.674 93.5,118.5C 93.4142,119.496 93.7476,120.329 94.5,121C 93.8333,121.333 93.1667,121.667 92.5,122C 93.5,123.667 94.8333,125 96.5,126C 95.9056,126.464 95.2389,126.631 94.5,126.5C 91.7673,123.761 88.7673,121.427 85.5,119.5C 85.5,119.167 85.5,118.833 85.5,118.5C 85.0557,116.887 84.0557,115.72 82.5,115C 84.3423,115.068 86.009,114.901 87.5,114.5 Z"/></g>
<g><path style="opacity:1" fill="#626262" d="M 118.5,112.5 C 121.412,113.429 124.079,114.762 126.5,116.5C 129.112,118.052 130.445,120.386 130.5,123.5C 130.813,127.042 130.479,130.375 129.5,133.5C 130.638,127.292 129.138,121.959 125,117.5C 124.508,118.549 124.674,119.549 125.5,120.5C 125.154,121.696 124.654,121.696 124,120.5C 123.536,121.094 123.369,121.761 123.5,122.5C 122.833,122.167 122.167,121.833 121.5,121.5C 119.566,120.89 117.899,119.89 116.5,118.5C 116.5,118.167 116.5,117.833 116.5,117.5C 121.617,116.826 122.283,115.16 118.5,112.5 Z"/></g>
<g><path style="opacity:0.275" fill="#c0c0c0" d="M 149.5,110.5 C 152.785,113.118 155.785,116.118 158.5,119.5C 160.529,121.858 162.529,124.192 164.5,126.5C 166.983,131.21 168.65,136.21 169.5,141.5C 169.5,141.833 169.5,142.167 169.5,142.5C 169.167,142.5 168.833,142.5 168.5,142.5C 167.585,137.328 165.751,132.328 163,127.5C 158.01,122.167 153.51,116.5 149.5,110.5 Z"/></g>
<g><path style="opacity:1" fill="#494949" d="M 159.5,113.5 C 161.833,115.5 164.167,117.5 166.5,119.5C 164.069,120.741 164.069,121.908 166.5,123C 165.695,124.113 165.028,125.279 164.5,126.5C 162.529,124.192 160.529,121.858 158.5,119.5C 158.38,117.801 158.046,116.135 157.5,114.5C 157.439,112.279 158.105,111.946 159.5,113.5 Z"/></g>
<g><path style="opacity:0.983" fill="#4e4e4e" d="M 107.5,111.5 C 111.371,111.185 115.038,111.518 118.5,112.5C 114.692,112.163 111.026,112.663 107.5,114C 108.5,114.333 109.5,114.667 110.5,115C 108.5,115.333 106.5,115.667 104.5,116C 102.044,118.159 102.71,118.992 106.5,118.5C 104.038,121.464 101.371,124.297 98.5,127C 96.9343,127.765 95.6009,127.598 94.5,126.5C 95.2389,126.631 95.9056,126.464 96.5,126C 94.8333,125 93.5,123.667 92.5,122C 93.1667,121.667 93.8333,121.333 94.5,121C 93.7476,120.329 93.4142,119.496 93.5,118.5C 94.601,119.8 95.9343,120.3 97.5,120C 100.438,116.551 103.771,113.718 107.5,111.5 Z"/></g>
<g><path style="opacity:0.012" fill="#cbcbcb" d="M 116.5,117.5 C 116.5,117.833 116.5,118.167 116.5,118.5C 113.351,118.211 110.351,118.711 107.5,120C 104.276,123.727 100.609,126.894 96.5,129.5C 92.1889,126.855 88.5223,123.521 85.5,119.5C 88.7673,121.427 91.7673,123.761 94.5,126.5C 95.6009,127.598 96.9343,127.765 98.5,127C 101.371,124.297 104.038,121.464 106.5,118.5C 109.728,117.586 113.061,117.253 116.5,117.5 Z"/></g>
<g><path style="opacity:0.999" fill="#434343" d="M 129.5,133.5 C 128.883,133.611 128.383,133.944 128,134.5C 127.08,131.899 126.413,129.232 126,126.5C 125.617,125.944 125.117,125.611 124.5,125.5C 124.443,124.391 124.11,123.391 123.5,122.5C 123.369,121.761 123.536,121.094 124,120.5C 124.654,121.696 125.154,121.696 125.5,120.5C 124.674,119.549 124.508,118.549 125,117.5C 129.138,121.959 130.638,127.292 129.5,133.5 Z"/></g>
<g><path style="opacity:1" fill="#4c4c4c" d="M 32.5,113.5 C 32.6621,115.527 32.4955,117.527 32,119.5C 29.8324,120.822 29.9991,121.489 32.5,121.5C 30.0408,124.087 28.3742,127.087 27.5,130.5C 26.1667,131.833 24.8333,133.167 23.5,134.5C 22.5902,136.019 21.7568,137.685 21,139.5C 20.5811,135.148 19.9145,134.815 19,138.5C 18.5007,143.489 18.3341,148.489 18.5,153.5C 17.3493,148.35 17.1826,143.016 18,137.5C 19.514,133.146 21.014,128.812 22.5,124.5C 25.8333,120.833 29.1667,117.167 32.5,113.5 Z"/></g>
<g><path style="opacity:1" fill="#4c4c4c" d="M 64.5,120.5 C 64.5,122.167 64.5,123.833 64.5,125.5C 65.5,125.5 66.5,125.5 67.5,125.5C 66.9086,129.964 68.242,133.631 71.5,136.5C 75.1667,141.167 78.8333,145.833 82.5,150.5C 79.7571,149.674 77.2571,148.341 75,146.5C 74.5357,147.094 74.369,147.761 74.5,148.5C 70.532,144.361 66.6987,140.027 63,135.5C 62.3333,131.5 62.3333,127.5 63,123.5C 63.2321,122.263 63.7321,121.263 64.5,120.5 Z"/></g>
<g><path style="opacity:0.18" fill="#c1c1c1" d="M 170.5,125.5 C 172.837,127.965 174.337,130.965 175,134.5C 176.506,141.433 176.839,148.433 176,155.5C 175.495,158.865 174.328,161.865 172.5,164.5C 172.674,162.139 173.007,159.806 173.5,157.5C 175.464,151.676 175.964,145.676 175,139.5C 173.772,134.719 172.272,130.053 170.5,125.5 Z"/></g>
<g><path style="opacity:0.004" fill="#fefffe" d="M 0.5,128.5 C 1.83333,129.167 1.83333,129.167 0.5,128.5 Z"/></g>
<g><path style="opacity:0.004" fill="#fefffe" d="M 188.5,129.5 C 189.833,130.167 189.833,130.167 188.5,129.5 Z"/></g>
<g><path style="opacity:1" fill="#4d4d4d" d="M 166.5,119.5 C 168.822,120.802 170.155,122.802 170.5,125.5C 172.272,130.053 173.772,134.719 175,139.5C 175.964,145.676 175.464,151.676 173.5,157.5C 172.778,157.918 172.278,158.584 172,159.5C 171.355,153.327 170.522,147.327 169.5,141.5C 168.65,136.21 166.983,131.21 164.5,126.5C 165.028,125.279 165.695,124.113 166.5,123C 164.069,121.908 164.069,120.741 166.5,119.5 Z"/></g>
<g><path style="opacity:0.145" fill="#c3c3c3" d="M 75.5,117.5 C 78.9023,117.342 82.2356,117.676 85.5,118.5C 85.5,118.833 85.5,119.167 85.5,119.5C 71.4061,117.266 66.7394,122.933 71.5,136.5C 68.242,133.631 66.9086,129.964 67.5,125.5C 69.1884,121.812 71.855,119.145 75.5,117.5 Z"/></g>
<g><path style="opacity:0.004" fill="#fefffe" d="M 191.5,134.5 C 192.833,135.167 192.833,135.167 191.5,134.5 Z"/></g>
<g><path style="opacity:0.004" fill="#fefffe" d="M 9.5,137.5 C 10.8333,138.167 10.8333,138.167 9.5,137.5 Z"/></g>
<g><path style="opacity:1" fill="#434343" d="M 23.5,134.5 C 23.5,135.833 23.5,137.167 23.5,138.5C 22.8335,143.681 22.1668,149.015 21.5,154.5C 20.8281,155.949 20.1614,157.282 19.5,158.5C 18.962,156.883 18.6287,155.216 18.5,153.5C 18.3341,148.489 18.5007,143.489 19,138.5C 19.9145,134.815 20.5811,135.148 21,139.5C 21.7568,137.685 22.5902,136.019 23.5,134.5 Z"/></g>
<g><path style="opacity:0.537" fill="#cacaca" d="M 71.5,136.5 C 79.6005,143.262 86.6005,150.929 92.5,159.5C 89.1667,156.5 85.8333,153.5 82.5,150.5C 78.8333,145.833 75.1667,141.167 71.5,136.5 Z"/></g>
<g><path style="opacity:1" fill="#4c4c4c" d="M 124.5,125.5 C 125.117,125.611 125.617,125.944 126,126.5C 126.413,129.232 127.08,131.899 128,134.5C 128.383,133.944 128.883,133.611 129.5,133.5C 127.323,139.007 123.99,143.674 119.5,147.5C 117.213,145.233 117.38,143.566 120,142.5C 121.298,141.054 121.465,139.721 120.5,138.5C 124.002,134.927 125.336,130.594 124.5,125.5 Z"/></g>
<g><path style="opacity:0.004" fill="#fefffe" d="M 11.5,140.5 C 12.8333,141.167 12.8333,141.167 11.5,140.5 Z"/></g>
<g><path style="opacity:0.122" fill="#cfcfcf" d="M 130.5,123.5 C 132.746,127.295 132.746,131.462 130.5,136C 126.082,143.626 120.082,150.459 112.5,156.5C 114.427,153.233 116.761,150.233 119.5,147.5C 123.99,143.674 127.323,139.007 129.5,133.5C 130.479,130.375 130.813,127.042 130.5,123.5 Z"/></g>
<g><path style="opacity:0.322" fill="#bebebe" d="M 71.5,112.5 C 69.5,114.5 67.5,116.5 65.5,118.5C 65.1667,119.167 64.8333,119.833 64.5,120.5C 63.7321,121.263 63.2321,122.263 63,123.5C 62.3333,127.5 62.3333,131.5 63,135.5C 66.6987,140.027 70.532,144.361 74.5,148.5C 78.1266,153.794 82.46,158.461 87.5,162.5C 87.5,163.167 87.5,163.833 87.5,164.5C 78.4967,155.662 69.9967,146.328 62,136.5C 58.5264,125.638 61.6931,117.638 71.5,112.5 Z"/></g>
<g><path style="opacity:0.051" fill="#cecece" d="M 27.5,130.5 C 23.5457,141.486 23.5457,152.486 27.5,163.5C 25.2872,161.042 24.1205,158.042 24,154.5C 23.5006,149.177 23.334,143.844 23.5,138.5C 23.5,137.167 23.5,135.833 23.5,134.5C 24.8333,133.167 26.1667,131.833 27.5,130.5 Z"/></g>
<g><path style="opacity:0.4" fill="#bdbdbd" d="M 121.5,121.5 C 122.167,121.833 122.833,122.167 123.5,122.5C 124.11,123.391 124.443,124.391 124.5,125.5C 125.336,130.594 124.002,134.927 120.5,138.5C 116.17,142.998 112.003,147.665 108,152.5C 104.239,156.77 100.072,160.437 95.5,163.5C 94.5,162.833 93.5,162.167 92.5,161.5C 92.5,160.833 92.5,160.167 92.5,159.5C 93.7942,160.29 94.9609,161.29 96,162.5C 103.667,154.5 111.333,146.5 119,138.5C 123.747,133.354 124.581,127.688 121.5,121.5 Z"/></g>
<g><path style="opacity:0.386" fill="#c2c1c2" d="M 22.5,124.5 C 21.014,128.812 19.514,133.146 18,137.5C 17.1826,143.016 17.3493,148.35 18.5,153.5C 18.6287,155.216 18.962,156.883 19.5,158.5C 19.6741,160.861 20.0074,163.194 20.5,165.5C 15.1231,154.974 14.2897,143.974 18,132.5C 18.8596,129.367 20.3596,126.7 22.5,124.5 Z"/></g>
<g><path style="opacity:1" fill="#494949" d="M 82.5,150.5 C 85.8333,153.5 89.1667,156.5 92.5,159.5C 92.5,160.167 92.5,160.833 92.5,161.5C 90.5853,161.216 88.9187,161.549 87.5,162.5C 82.46,158.461 78.1266,153.794 74.5,148.5C 74.369,147.761 74.5357,147.094 75,146.5C 77.2571,148.341 79.7571,149.674 82.5,150.5 Z"/></g>
<g><path style="opacity:1" fill="#4c4c4c" d="M 120.5,138.5 C 121.465,139.721 121.298,141.054 120,142.5C 117.38,143.566 117.213,145.233 119.5,147.5C 116.761,150.233 114.427,153.233 112.5,156.5C 108.485,159.516 105.152,163.183 102.5,167.5C 102.5,168.5 102.5,169.5 102.5,170.5C 99.3147,170.278 98.3147,168.778 99.5,166C 98.1416,165.066 96.8083,164.232 95.5,163.5C 100.072,160.437 104.239,156.77 108,152.5C 112.003,147.665 116.17,142.998 120.5,138.5 Z"/></g>
<g><path style="opacity:1" fill="#4f4f4f" d="M 169.5,141.5 C 170.522,147.327 171.355,153.327 172,159.5C 172.278,158.584 172.778,157.918 173.5,157.5C 173.007,159.806 172.674,162.139 172.5,164.5C 171.833,164.833 171.167,165.167 170.5,165.5C 167.805,165.681 165.472,166.681 163.5,168.5C 168.319,160.552 170.319,151.886 169.5,142.5C 169.5,142.167 169.5,141.833 169.5,141.5 Z"/></g>
<g><path style="opacity:0.004" fill="#fefffe" d="M 192.5,159.5 C 193.833,160.167 193.833,160.167 192.5,159.5 Z"/></g>
<g><path style="opacity:0.063" fill="#c8c8c8" d="M 112.5,156.5 C 109.899,160.771 106.566,164.437 102.5,167.5C 105.152,163.183 108.485,159.516 112.5,156.5 Z"/></g>
<g><path style="opacity:0.999" fill="#585858" d="M 23.5,138.5 C 23.334,143.844 23.5006,149.177 24,154.5C 24.1205,158.042 25.2872,161.042 27.5,163.5C 28.8897,164.899 29.8897,166.566 30.5,168.5C 26.8433,169.147 25.8433,171.147 27.5,174.5C 26.8333,174.5 26.1667,174.5 25.5,174.5C 25.5,174.167 25.5,173.833 25.5,173.5C 24.5462,170.249 22.8796,167.582 20.5,165.5C 20.0074,163.194 19.6741,160.861 19.5,158.5C 20.1614,157.282 20.8281,155.949 21.5,154.5C 22.1668,149.015 22.8335,143.681 23.5,138.5 Z"/></g>
<g><path style="opacity:0.004" fill="#fefffe" d="M 187.5,162.5 C 188.833,163.167 188.833,163.167 187.5,162.5 Z"/></g>
<g><path style="opacity:0.004" fill="#fefffe" d="M 193.5,164.5 C 194.833,165.167 194.833,165.167 193.5,164.5 Z"/></g>
<g><path style="opacity:1" fill="#474747" d="M 92.5,161.5 C 93.5,162.167 94.5,162.833 95.5,163.5C 96.8083,164.232 98.1416,165.066 99.5,166C 98.3147,168.778 99.3147,170.278 102.5,170.5C 104.145,174.145 106.812,176.812 110.5,178.5C 110.649,179.552 110.483,180.552 110,181.5C 108.736,179.393 106.903,178.393 104.5,178.5C 104.5,177.5 104.5,176.5 104.5,175.5C 103.448,175.351 102.448,175.517 101.5,176C 102.451,176.718 102.617,177.551 102,178.5C 100.871,176.859 99.371,175.859 97.5,175.5C 97.5,175.167 97.5,174.833 97.5,174.5C 97.4226,173.25 96.756,172.417 95.5,172C 95.8333,171.667 96.1667,171.333 96.5,171C 93.906,168.235 90.906,166.068 87.5,164.5C 87.5,163.833 87.5,163.167 87.5,162.5C 88.9187,161.549 90.5853,161.216 92.5,161.5 Z"/></g>
<g><path style="opacity:0.294" fill="#bcbcbc" d="M 172.5,164.5 C 171.521,168.461 169.521,171.794 166.5,174.5C 168.091,171.648 169.424,168.648 170.5,165.5C 171.167,165.167 171.833,164.833 172.5,164.5 Z"/></g>
<g><path style="opacity:0.165" fill="#b6b6b6" d="M 20.5,165.5 C 22.8796,167.582 24.5462,170.249 25.5,173.5C 22.8361,171.516 21.1695,168.849 20.5,165.5 Z"/></g>
<g><path style="opacity:0.004" fill="#fefffe" d="M 181.5,169.5 C 182.833,170.167 182.833,170.167 181.5,169.5 Z"/></g>
<g><path style="opacity:0.302" fill="#c5c5c5" d="M 30.5,168.5 C 43.8517,183.728 59.8517,187.395 78.5,179.5C 76.1367,181.68 73.47,183.347 70.5,184.5C 63.3134,184.825 56.3134,184.491 49.5,183.5C 46.2441,182.214 42.9108,180.88 39.5,179.5C 36.0985,176.105 33.0985,172.438 30.5,168.5 Z"/></g>
<g><path style="opacity:1" fill="#4c4c4c" d="M 170.5,165.5 C 169.424,168.648 168.091,171.648 166.5,174.5C 166.5,175.167 166.167,175.5 165.5,175.5C 163.5,177.167 161.5,178.833 159.5,180.5C 159.297,178.61 159.963,177.11 161.5,176C 159.893,176.019 158.226,176.185 156.5,176.5C 158.862,173.808 161.196,171.141 163.5,168.5C 165.472,166.681 167.805,165.681 170.5,165.5 Z"/></g>
<g><path style="opacity:0.004" fill="#fefffe" d="M 179.5,170.5 C 180.833,171.167 180.833,171.167 179.5,170.5 Z"/></g>
<g><path style="opacity:0.999" fill="#5a5a5a" d="M 87.5,164.5 C 90.906,166.068 93.906,168.235 96.5,171C 96.1667,171.333 95.8333,171.667 95.5,172C 96.756,172.417 97.4226,173.25 97.5,174.5C 93.6676,175.655 90.6676,177.988 88.5,181.5C 85.8388,184.502 82.5055,186.502 78.5,187.5C 79.8037,185.062 81.4704,182.895 83.5,181C 83.1639,179.97 82.4972,179.47 81.5,179.5C 84.771,176.732 87.9377,173.732 91,170.5C 91.7401,169.251 91.5735,168.251 90.5,167.5C 88.8564,167.19 87.8564,166.19 87.5,164.5 Z"/></g>
<g><path style="opacity:0.361" fill="#cbcbcb" d="M 90.5,167.5 C 91.5735,168.251 91.7401,169.251 91,170.5C 87.9377,173.732 84.771,176.732 81.5,179.5C 80.5,179.5 79.5,179.5 78.5,179.5C 83.4939,176.506 87.4939,172.506 90.5,167.5 Z"/></g>
<g><path style="opacity:0.439" fill="#c2c2c2" d="M 168.5,142.5 C 168.833,142.5 169.167,142.5 169.5,142.5C 170.319,151.886 168.319,160.552 163.5,168.5C 161.196,171.141 158.862,173.808 156.5,176.5C 153.661,178.42 150.661,180.087 147.5,181.5C 141.127,184.122 134.461,185.122 127.5,184.5C 125.833,184.5 124.167,184.5 122.5,184.5C 120.064,183.129 117.397,182.129 114.5,181.5C 113.205,180.512 111.872,179.512 110.5,178.5C 106.812,176.812 104.145,174.145 102.5,170.5C 118.4,185.594 135.734,187.428 154.5,176C 164.515,167.133 169.182,155.967 168.5,142.5 Z"/></g>
<g><path style="opacity:0.412" fill="#b9b9b9" d="M 25.5,174.5 C 26.1667,174.5 26.8333,174.5 27.5,174.5C 29.1667,176.833 31.1667,178.833 33.5,180.5C 33.8333,181.167 34.1667,181.833 34.5,182.5C 30.8998,180.57 27.8998,177.903 25.5,174.5 Z"/></g>
<g><path style="opacity:1" fill="#484848" d="M 30.5,168.5 C 33.0985,172.438 36.0985,176.105 39.5,179.5C 37.842,181.654 35.842,181.987 33.5,180.5C 31.1667,178.833 29.1667,176.833 27.5,174.5C 25.8433,171.147 26.8433,169.147 30.5,168.5 Z"/></g>
<g><path style="opacity:0.004" fill="#fefffe" d="M 174.5,174.5 C 175.833,175.167 175.833,175.167 174.5,174.5 Z"/></g>
<g><path style="opacity:1" fill="#636363" d="M 39.5,179.5 C 42.9108,180.88 46.2441,182.214 49.5,183.5C 46.1368,184.474 42.8035,184.64 39.5,184C 41.6312,185.47 43.6312,186.97 45.5,188.5C 41.3418,187.328 37.6751,185.328 34.5,182.5C 34.1667,181.833 33.8333,181.167 33.5,180.5C 35.842,181.987 37.842,181.654 39.5,179.5 Z"/></g>
<g><path style="opacity:0.063" fill="#cdcdcd" d="M 97.5,174.5 C 97.5,174.833 97.5,175.167 97.5,175.5C 94.5,177.5 91.5,179.5 88.5,181.5C 90.6676,177.988 93.6676,175.655 97.5,174.5 Z"/></g>
<g><path style="opacity:1" fill="#4b4b4b" d="M 159.5,180.5 C 159.5,180.833 159.5,181.167 159.5,181.5C 157.147,182.34 155.147,183.674 153.5,185.5C 153.158,186.338 152.492,186.672 151.5,186.5C 148.792,187.449 146.126,187.449 143.5,186.5C 144.767,184.683 146.1,183.016 147.5,181.5C 150.661,180.087 153.661,178.42 156.5,176.5C 158.226,176.185 159.893,176.019 161.5,176C 159.963,177.11 159.297,178.61 159.5,180.5 Z"/></g>
<g><path style="opacity:0.027" fill="#d0d0d0" d="M 165.5,175.5 C 164.5,178.5 162.5,180.5 159.5,181.5C 159.5,181.167 159.5,180.833 159.5,180.5C 161.5,178.833 163.5,177.167 165.5,175.5 Z"/></g>
<g><path style="opacity:0.004" fill="#fefffe" d="M 13.5,180.5 C 14.8333,181.167 14.8333,181.167 13.5,180.5 Z"/></g>
<g><path style="opacity:0.004" fill="#fefffe" d="M 179.5,180.5 C 180.833,181.167 180.833,181.167 179.5,180.5 Z"/></g>
<g><path style="opacity:1" fill="#646464" d="M 114.5,181.5 C 117.397,182.129 120.064,183.129 122.5,184.5C 120.335,184.116 118.668,184.783 117.5,186.5C 123.793,189.262 130.46,190.262 137.5,189.5C 133.03,190.486 128.363,190.819 123.5,190.5C 118.539,190.176 114.206,188.509 110.5,185.5C 112.54,186.519 114.54,186.519 116.5,185.5C 115.636,183.803 114.303,182.637 112.5,182C 113.094,181.536 113.761,181.369 114.5,181.5 Z"/></g>
<g><path style="opacity:0.996" fill="#555555" d="M 97.5,175.5 C 99.371,175.859 100.871,176.859 102,178.5C 102.617,177.551 102.451,176.718 101.5,176C 102.448,175.517 103.448,175.351 104.5,175.5C 104.5,176.5 104.5,177.5 104.5,178.5C 106.903,178.393 108.736,179.393 110,181.5C 110.483,180.552 110.649,179.552 110.5,178.5C 111.872,179.512 113.205,180.512 114.5,181.5C 113.761,181.369 113.094,181.536 112.5,182C 114.303,182.637 115.636,183.803 116.5,185.5C 114.54,186.519 112.54,186.519 110.5,185.5C 105.257,183.375 100.923,180.042 97.5,175.5 Z"/></g>
<g><path style="opacity:1" fill="#484848" d="M 49.5,183.5 C 56.3134,184.491 63.3134,184.825 70.5,184.5C 70.3057,185.968 68.9724,186.635 66.5,186.5C 66.5,187.5 66.5,188.5 66.5,189.5C 59.4648,189.674 52.4648,189.341 45.5,188.5C 43.6312,186.97 41.6312,185.47 39.5,184C 42.8035,184.64 46.1368,184.474 49.5,183.5 Z"/></g>
<g><path style="opacity:0.996" fill="#494949" d="M 78.5,179.5 C 79.5,179.5 80.5,179.5 81.5,179.5C 82.4972,179.47 83.1639,179.97 83.5,181C 81.4704,182.895 79.8037,185.062 78.5,187.5C 74.318,187.32 70.318,187.987 66.5,189.5C 66.5,188.5 66.5,187.5 66.5,186.5C 68.9724,186.635 70.3057,185.968 70.5,184.5C 73.47,183.347 76.1367,181.68 78.5,179.5 Z"/></g>
<g><path style="opacity:1" fill="#606060" d="M 147.5,181.5 C 146.1,183.016 144.767,184.683 143.5,186.5C 146.126,187.449 148.792,187.449 151.5,186.5C 150.486,187.674 149.153,188.34 147.5,188.5C 145.139,188.674 142.806,189.007 140.5,189.5C 139.391,188.71 138.058,188.21 136.5,188C 137.5,187.667 138.5,187.333 139.5,187C 139.167,186.667 138.833,186.333 138.5,186C 134.644,185.823 130.977,185.323 127.5,184.5C 134.461,185.122 141.127,184.122 147.5,181.5 Z"/></g>
<g><path style="opacity:0.047" fill="#c6c6c6" d="M 159.5,181.5 C 158.198,183.822 156.198,185.155 153.5,185.5C 155.147,183.674 157.147,182.34 159.5,181.5 Z"/></g>
<g><path style="opacity:1" fill="#434343" d="M 122.5,184.5 C 124.167,184.5 125.833,184.5 127.5,184.5C 130.977,185.323 134.644,185.823 138.5,186C 138.833,186.333 139.167,186.667 139.5,187C 138.5,187.333 137.5,187.667 136.5,188C 138.058,188.21 139.391,188.71 140.5,189.5C 139.5,189.5 138.5,189.5 137.5,189.5C 130.46,190.262 123.793,189.262 117.5,186.5C 118.668,184.783 120.335,184.116 122.5,184.5 Z"/></g>
<g><path style="opacity:0.004" fill="#fefffe" d="M 4.5,189.5 C 5.83333,190.167 5.83333,190.167 4.5,189.5 Z"/></g>
<g><path style="opacity:0.895" fill="#8d8a8d" d="M 78.5,187.5 C 67.5105,193.095 56.5105,193.428 45.5,188.5C 52.4648,189.341 59.4648,189.674 66.5,189.5C 70.318,187.987 74.318,187.32 78.5,187.5 Z"/></g>
<g><path style="opacity:0.435" fill="#b2b2b3" d="M 147.5,188.5 C 145.438,189.776 143.104,190.61 140.5,191C 134.651,191.818 128.985,191.652 123.5,190.5C 128.363,190.819 133.03,190.486 137.5,189.5C 138.5,189.5 139.5,189.5 140.5,189.5C 142.806,189.007 145.139,188.674 147.5,188.5 Z"/></g>
<g><path style="opacity:0.004" fill="#fefffe" d="M 173.5,190.5 C 174.833,191.167 174.833,191.167 173.5,190.5 Z"/></g>
<g><path style="opacity:0.004" fill="#fefffe" d="M 186.5,190.5 C 187.833,191.167 187.833,191.167 186.5,190.5 Z"/></g>
<g><path style="opacity:0.004" fill="#fefffe" d="M 163.5,192.5 C 164.833,193.167 164.833,193.167 163.5,192.5 Z"/></g>
<g><path style="opacity:0.004" fill="#fefffe" d="M 94.5,194.5 C 95.8333,195.167 95.8333,195.167 94.5,194.5 Z"/></g>
<g><path style="opacity:0.004" fill="#fefffe" d="M 100.5,194.5 C 101.833,195.167 101.833,195.167 100.5,194.5 Z"/></g>
<g><path style="opacity:0.004" fill="#fefffe" d="M 87.5,195.5 C 88.8333,196.167 88.8333,196.167 87.5,195.5 Z"/></g>
<g><path style="opacity:0.004" fill="#fefffe" d="M 160.5,195.5 C 161.833,196.167 161.833,196.167 160.5,195.5 Z"/></g>
<g><path style="opacity:0.004" fill="#fefffe" d="M 87.5,198.5 C 88.8333,199.167 88.8333,199.167 87.5,198.5 Z"/></g>
<g><path style="opacity:0.004" fill="#fefffe" d="M 193.5,198.5 C 194.833,199.167 194.833,199.167 193.5,198.5 Z"/></g>
<g><path style="opacity:0.004" fill="#fefffe" d="M 187.5,201.5 C 186.833,200.167 186.833,200.167 187.5,201.5 Z"/></g>
</svg>
