<svg width="698" height="714" xmlns="http://www.w3.org/2000/svg" xmlns:xlink="http://www.w3.org/1999/xlink" overflow="hidden"><defs><clipPath id="clip0"><rect x="4563" y="1499" width="698" height="714"/></clipPath></defs><g clip-path="url(#clip0)" transform="translate(-4563 -1499)"><path d="M348.882 385.441C343.372 385.441 338.885 389.928 338.885 395.438L338.885 796.953C338.885 802.463 343.372 806.949 348.882 806.949L993.507 806.949C999.017 806.949 1003.5 802.463 1003.5 796.953L1003.5 395.438C1003.5 389.928 999.017 385.441 993.507 385.441ZM993.507 822.727 348.882 822.727C334.67 822.727 323.108 811.165 323.108 796.953L323.108 395.438C323.108 381.226 334.67 369.664 348.882 369.664L993.507 369.664C1007.72 369.664 1019.28 381.226 1019.28 395.438L1019.28 796.953C1019.28 811.165 1007.72 822.727 993.507 822.727" fill="#FFFFFF" transform="matrix(1 0 0 1.00029 4241.14 1185.1)"/><path d="M1004.01 851.595C1004.01 857.105 999.522 861.591 994.012 861.591L347.723 861.591C342.201 861.591 337.714 857.105 337.714 851.595L337.714 340.796C337.714 335.286 342.201 330.787 347.723 330.787L994.012 330.787C999.522 330.787 1004.01 335.286 1004.01 340.796ZM794.759 887.698 794.759 955.234C794.759 960.756 790.272 965.243 784.762 965.243L556.961 965.243C551.451 965.243 546.964 960.756 546.964 955.234L546.964 887.698C546.964 882.189 551.451 877.702 556.961 877.702L784.762 877.702C790.272 877.702 794.759 882.189 794.759 887.698ZM863.97 993.001 863.97 1000.93C863.97 1006.45 859.484 1010.94 853.974 1010.94L487.096 1010.94C481.574 1010.94 477.087 1006.45 477.087 1000.93L477.087 993.001C477.087 987.492 481.574 983.005 487.096 983.005L853.974 983.005C859.484 983.005 863.97 987.492 863.97 993.001ZM994.012 315.009 347.723 315.009C333.499 315.009 321.937 326.584 321.937 340.796L321.937 851.595C321.937 865.807 333.499 877.369 347.723 877.369L533.356 877.369C531.963 880.537 531.187 884.025 531.187 887.698L531.187 955.234C531.187 959.56 532.271 963.64 534.157 967.227L487.096 967.227C472.871 967.227 461.309 978.789 461.309 993.001L461.309 1000.93C461.309 1015.15 472.871 1026.71 487.096 1026.71L853.974 1026.71C868.186 1026.71 879.748 1015.15 879.748 1000.93L879.748 993.001C879.748 978.789 868.186 967.227 853.974 967.227L807.566 967.227C809.452 963.64 810.536 959.56 810.536 955.234L810.536 887.698C810.536 884.025 809.76 880.537 808.367 877.369L994.012 877.369C1008.22 877.369 1019.79 865.807 1019.79 851.595L1019.79 340.796C1019.79 326.584 1008.22 315.009 994.012 315.009" fill="#FFFFFF" transform="matrix(1 0 0 1.00029 4241.14 1185.1)"/><path d="M884.617 768.294 460.644 768.294C456.293 768.294 452.755 764.769 452.755 760.405 452.755 756.054 456.293 752.517 460.644 752.517L884.617 752.517C888.968 752.517 892.506 756.054 892.506 760.405 892.506 764.769 888.968 768.294 884.617 768.294" fill="#FFFFFF" transform="matrix(1 0 0 1.00029 4241.14 1185.1)"/><path d="M578.951 718.644 619.973 718.644 619.973 498.781 578.951 498.781ZM623.547 734.422 575.364 734.422C568.634 734.422 563.173 728.961 563.173 722.231L563.173 495.206C563.173 488.476 568.634 483.004 575.364 483.004L623.547 483.004C630.277 483.004 635.75 488.476 635.75 495.206L635.75 722.231C635.75 728.961 630.277 734.422 623.547 734.422" fill="#FFFFFF" transform="matrix(1 0 0 1.00029 4241.14 1185.1)"/><path d="M658.221 718.644 699.23 718.644 699.23 447.985 658.221 447.985ZM702.817 734.422 654.646 734.422C647.916 734.422 642.443 728.961 642.443 722.231L642.443 444.398C642.443 437.668 647.916 432.207 654.646 432.207L702.817 432.207C709.535 432.207 715.008 437.668 715.008 444.398L715.008 722.231C715.008 728.961 709.535 734.422 702.817 734.422" fill="#FFFFFF" transform="matrix(1 0 0 1.00029 4241.14 1185.1)"/><path d="M499.669 718.644 540.69 718.644 540.69 458.437 499.669 458.437ZM544.265 734.422 496.082 734.422C489.364 734.422 483.891 728.961 483.891 722.231L483.891 454.85C483.891 448.12 489.364 442.66 496.082 442.66L544.265 442.66C550.995 442.66 556.468 448.12 556.468 454.85L556.468 722.231C556.468 728.961 550.995 734.422 544.265 734.422" fill="#FFFFFF" transform="matrix(1 0 0 1.00029 4241.14 1185.1)"/><path d="M737.454 718.644 778.476 718.644 778.476 498.547 737.454 498.547ZM782.063 734.422 733.879 734.422C727.149 734.422 721.676 728.961 721.676 722.231L721.676 494.96C721.676 488.23 727.149 482.769 733.879 482.769L782.063 482.769C788.793 482.769 794.253 488.23 794.253 494.96L794.253 722.231C794.253 728.961 788.793 734.422 782.063 734.422" fill="#FFFFFF" transform="matrix(1 0 0 1.00029 4241.14 1185.1)"/><path d="M816.786 718.644 857.795 718.644 857.795 449.476 816.786 449.476ZM861.37 734.422 813.186 734.422C806.469 734.422 801.008 728.961 801.008 722.231L801.008 445.889C801.008 439.171 806.469 433.699 813.186 433.699L861.37 433.699C868.1 433.699 873.573 439.171 873.573 445.889L873.573 722.231C873.573 728.961 868.1 734.422 861.37 734.422" fill="#FFFFFF" transform="matrix(1 0 0 1.00029 4241.14 1185.1)"/></g></svg>