<svg width="797" height="792" xmlns="http://www.w3.org/2000/svg" xmlns:xlink="http://www.w3.org/1999/xlink" overflow="hidden"><defs><clipPath id="clip0"><rect x="1414" y="1403" width="797" height="792"/></clipPath></defs><g clip-path="url(#clip0)" transform="translate(-1414 -1403)"><path d="M1071.43 478.224C1065.12 478.224 1059.97 473.079 1059.97 466.762L1059.97 404.986 1129.1 478.224ZM1147.49 468.712 1072.28 390.711C1062.8 380.875 1044.68 373.186 1031.03 373.186L572.591 373.186C556.295 373.186 543.038 386.443 543.038 402.738L543.038 616.079C543.038 621.068 547.08 625.124 552.084 625.124 557.073 625.124 561.129 621.068 561.129 616.079L561.129 402.738C561.129 396.421 566.273 391.277 572.591 391.277L1031.03 391.277C1034.63 391.277 1038.93 392.223 1043.2 393.75 1042.36 396.223 1041.88 399.205 1041.88 402.738L1041.88 466.762C1041.88 483.057 1055.14 496.314 1071.43 496.314L1129.56 496.314C1135.19 496.314 1139.13 495.042 1142 493.346 1144.49 499.084 1146.16 505.359 1146.16 510.264L1146.16 1135.67C1146.16 1142 1141.01 1147.15 1134.69 1147.15L572.591 1147.15C566.273 1147.15 561.129 1142 561.129 1135.67L561.129 870.546C561.129 865.557 557.073 861.501 552.084 861.501 547.08 861.501 543.038 865.557 543.038 870.546L543.038 1135.67C543.038 1151.97 556.295 1165.24 572.591 1165.24L1134.69 1165.24C1150.99 1165.24 1164.25 1151.97 1164.25 1135.67L1164.25 510.264C1164.25 496.71 1156.9 478.464 1147.49 468.712" fill="#FFFFFF" transform="matrix(1.00174 0 0 1 1043.95 1029.97)"/><path d="M742.5 658.026C731.349 658.026 720.777 655.567 711.209 651.27L744.973 589.282 818.649 589.282C814.734 627.837 782.073 658.026 742.5 658.026ZM665.954 581.481C665.954 556.055 678.476 533.541 697.613 519.606L728.508 581.693 695.705 641.928C677.657 627.908 665.954 606.058 665.954 581.481ZM818.268 571.192 743.489 571.192 713.399 510.716C722.374 507.013 732.197 504.935 742.5 504.935 781.21 504.935 813.222 533.852 818.268 571.192ZM742.5 486.845C726.416 486.845 711.265 490.887 697.98 498.01 697.698 498.109 697.415 498.18 697.132 498.321 696.524 498.632 695.959 499.014 695.45 499.423 667.043 515.776 647.864 546.416 647.864 581.481 647.864 633.66 690.32 676.116 742.5 676.116 794.693 676.116 837.135 633.66 837.135 581.481 837.135 529.287 794.693 486.845 742.5 486.845" fill="#FFFFFF" transform="matrix(1.00174 0 0 1 1043.95 1029.97)"/><path d="M979.654 657.418 979.654 591.133 1044.92 591.133C1041.3 625.689 1014.03 653.249 979.654 657.418ZM896.297 591.133 961.564 591.133 961.564 657.418C927.178 653.249 899.915 625.689 896.297 591.133ZM961.564 509.175 961.564 573.043 896.664 573.043C901.286 539.632 927.983 513.246 961.564 509.175ZM1044.54 573.043 979.654 573.043 979.654 509.175C1013.22 513.246 1039.93 539.632 1044.54 573.043ZM970.609 490.477C919.419 490.477 877.782 532.113 877.782 583.304 877.782 634.466 919.419 676.116 970.609 676.116 1021.78 676.116 1063.42 634.466 1063.42 583.304 1063.42 532.113 1021.78 490.477 970.609 490.477" fill="#FFFFFF" transform="matrix(1.00174 0 0 1 1043.95 1029.97)"/><path d="M1044.92 740.069 736.182 740.069C731.193 740.069 727.137 736.027 727.137 731.023 727.137 726.02 731.193 721.978 736.182 721.978L1044.92 721.978C1049.92 721.978 1053.97 726.02 1053.97 731.023 1053.97 736.027 1049.92 740.069 1044.92 740.069" fill="#FFFFFF" transform="matrix(1.00174 0 0 1 1043.95 1029.97)"/><path d="M1044.92 791.937 736.182 791.937C731.193 791.937 727.137 787.881 727.137 782.892 727.137 777.889 731.193 773.847 736.182 773.847L1044.92 773.847C1049.92 773.847 1053.97 777.889 1053.97 782.892 1053.97 787.881 1049.92 791.937 1044.92 791.937" fill="#FFFFFF" transform="matrix(1.00174 0 0 1 1043.95 1029.97)"/><path d="M1044.92 843.792 686.73 843.792C681.741 843.792 677.685 839.736 677.685 834.747 677.685 829.758 681.741 825.702 686.73 825.702L1044.92 825.702C1049.92 825.702 1053.97 829.758 1053.97 834.747 1053.97 839.736 1049.92 843.792 1044.92 843.792" fill="#FFFFFF" transform="matrix(1.00174 0 0 1 1043.95 1029.97)"/><path d="M1044.92 895.647 686.73 895.647C681.741 895.647 677.685 891.604 677.685 886.601 677.685 881.598 681.741 877.556 686.73 877.556L1044.92 877.556C1049.92 877.556 1053.97 881.598 1053.97 886.601 1053.97 891.604 1049.92 895.647 1044.92 895.647" fill="#FFFFFF" transform="matrix(1.00174 0 0 1 1043.95 1029.97)"/><path d="M691.564 1073.54 737.398 1073.54 737.398 942.088 691.564 942.088ZM746.443 1091.63 682.518 1091.63C677.515 1091.63 673.473 1087.57 673.473 1082.59L673.473 933.043C673.473 928.04 677.515 923.998 682.518 923.998L746.443 923.998C751.432 923.998 755.488 928.04 755.488 933.043L755.488 1082.59C755.488 1087.57 751.432 1091.63 746.443 1091.63" fill="#FFFFFF" transform="matrix(1.00174 0 0 1 1043.95 1029.97)"/><path d="M987.639 1073.54 1033.46 1073.54 1033.46 1026.21 987.639 1026.21ZM1042.5 1091.63 978.594 1091.63C973.591 1091.63 969.549 1087.57 969.549 1082.59L969.549 1017.16C969.549 1012.16 973.591 1008.12 978.594 1008.12L1042.5 1008.12C1047.51 1008.12 1051.55 1012.16 1051.55 1017.16L1051.55 1082.59C1051.55 1087.57 1047.51 1091.63 1042.5 1091.63" fill="#FFFFFF" transform="matrix(1.00174 0 0 1 1043.95 1029.97)"/><path d="M790.241 1073.54 836.075 1073.54 836.075 976.46 790.241 976.46ZM845.12 1091.63 781.196 1091.63C776.207 1091.63 772.151 1087.57 772.151 1082.59L772.151 967.415C772.151 962.412 776.207 958.37 781.196 958.37L845.12 958.37C850.124 958.37 854.166 962.412 854.166 967.415L854.166 1082.59C854.166 1087.57 850.124 1091.63 845.12 1091.63" fill="#FFFFFF" transform="matrix(1.00174 0 0 1 1043.95 1029.97)"/><path d="M888.933 1073.54 934.767 1073.54 934.767 944.802 888.933 944.802ZM943.812 1091.63 879.888 1091.63C874.899 1091.63 870.843 1087.57 870.843 1082.59L870.843 935.756C870.843 930.753 874.899 926.711 879.888 926.711L943.812 926.711C948.801 926.711 952.858 930.753 952.858 935.756L952.858 1082.59C952.858 1087.57 948.801 1091.63 943.812 1091.63" fill="#FFFFFF" transform="matrix(1.00174 0 0 1 1043.95 1029.97)"/><path d="M664.81 786.793C646.917 827.482 606.623 853.784 562.146 853.784 546.812 853.784 531.845 850.632 517.655 844.484L516.567 844.004C489.445 831.92 468.585 810.042 457.787 782.341 446.933 754.442 447.583 723.985 459.624 696.581 477.531 655.878 517.825 629.59 562.302 629.59 577.834 629.59 592.985 632.784 607.33 639.087 663.891 663.948 689.67 730.204 664.81 786.793ZM515.45 863.282 513.175 868.454 502.999 864.002 505.289 858.816 509.246 860.554C509.444 860.639 509.642 860.738 509.84 860.837 510.052 860.921 510.249 860.992 510.447 861.077ZM520.114 901.879C518.913 904.621 515.62 906.402 511.733 906.388 509.868 906.388 507.932 905.964 506.137 905.186L480.711 894.007C477.743 892.693 475.312 890.446 474.054 887.817 473.447 886.517 472.585 883.987 473.701 881.485 474.902 878.743 478.181 876.977 482.068 876.977 483.934 876.977 485.87 877.401 487.665 878.178L513.09 889.357C516.058 890.658 518.489 892.919 519.733 895.548 520.355 896.848 521.217 899.364 520.114 901.879ZM495.933 934.103 422.85 1100.37C421.013 1104.51 416.886 1107.21 412.293 1107.21 410.724 1107.21 409.197 1106.88 407.742 1106.24L399.106 1102.44C393.312 1099.88 390.683 1093.12 393.227 1087.32L466.309 921.072C468.133 916.931 472.26 914.232 476.853 914.232 478.422 914.232 479.962 914.557 481.418 915.193L490.053 918.995C492.837 920.224 494.986 922.471 496.102 925.34 497.219 928.209 497.148 931.319 495.933 934.103ZM614.609 622.523C597.96 615.202 580.35 611.499 562.302 611.499 510.659 611.499 463.85 642.027 443.075 689.317 429.083 721.13 428.32 756.506 440.926 788.899 450.706 813.999 467.624 834.973 489.559 849.657L485.417 859.056C484.301 858.943 483.184 858.886 482.068 858.886 471.016 858.886 461.222 864.893 457.137 874.192 454.197 880.863 454.423 888.651 457.731 895.59 458.607 897.427 459.695 899.166 460.939 900.791 456.091 903.872 452.148 908.338 449.745 913.794L376.663 1080.06C370.091 1094.97 376.903 1112.45 391.828 1118.99L400.463 1122.79C404.222 1124.45 408.194 1125.3 412.293 1125.3 424.051 1125.3 434.694 1118.36 439.414 1107.63L512.482 941.381C514.885 935.954 515.564 930.033 514.518 924.294 524.397 923.376 532.933 917.68 536.664 909.158 539.604 902.501 539.378 894.714 536.071 887.76 534.318 884.1 531.788 880.835 528.693 878.107L532.919 868.483C542.473 870.702 552.239 871.875 562.146 871.875 613.789 871.875 660.584 841.319 681.374 794.072 710.248 728.352 680.3 651.397 614.609 622.523" fill="#FFFFFF" transform="matrix(1.00174 0 0 1 1043.95 1029.97)"/><path d="M632.968 772.787C620.629 800.855 592.844 818.988 562.175 818.988 551.462 818.988 541.003 816.769 531.124 812.431 492.117 795.287 474.323 749.594 491.466 710.587 503.805 682.518 531.605 664.386 562.259 664.386 572.972 664.386 583.431 666.576 593.31 670.929 632.332 688.087 650.125 733.779 632.968 772.787ZM600.589 654.365C588.406 649.009 575.502 646.295 562.259 646.295 524.425 646.295 490.138 668.668 474.902 703.308 453.745 751.432 475.694 807.823 523.831 828.995 536.042 834.351 548.946 837.065 562.175 837.079 562.189 837.079 562.189 837.079 562.189 837.079 600.023 837.079 634.31 814.706 649.532 780.08 670.689 731.928 648.74 675.537 600.589 654.365" fill="#FFFFFF" transform="matrix(1.00174 0 0 1 1043.95 1029.97)"/></g></svg>