<svg width="1080" height="601" xmlns="http://www.w3.org/2000/svg" xmlns:xlink="http://www.w3.org/1999/xlink" overflow="hidden"><defs><clipPath id="clip0"><rect x="2847" y="1518" width="1080" height="601"/></clipPath></defs><g clip-path="url(#clip0)" transform="translate(-2847 -1518)"><path d="M1074.64 274.045 960.849 23.4983C954.376 9.2266 940.053 0 924.371 0L167.131 0C166.498 0 165.874 0.102613 165.267 0.23943 165.198 0.256532 165.121 0.247981 165.053 0.265083 164.112 0.504513 163.257 0.932067 162.453 1.46223 162.257 1.5905 162.068 1.72732 161.889 1.87268 161.153 2.45416 160.469 3.11259 159.948 3.92494 159.922 3.9677 159.914 4.019 159.888 4.06176 159.871 4.08741 159.845 4.10451 159.828 4.13017L3.54014 262.107C-1.04323 269.675-1.1886 278.808 3.15534 286.512 7.49929 294.225 15.3834 298.826 24.2337 298.826 30.8523 298.826 37.1031 295.987 41.6181 291.292L73.7957 291.292 73.7957 588.818C73.7957 593.547 77.618 597.369 82.3468 597.369L123.777 597.369 270.983 597.369 1046.27 597.369C1050.99 597.369 1054.81 593.555 1054.82 588.835 1054.92 531.167 1055.21 356.768 1054.9 316.834 1062.05 314.782 1068.31 310.241 1072.46 303.802 1078.23 294.858 1079.04 283.733 1074.64 274.045ZM73.8043 274.19 52.7943 274.19 73.8043 239.498 73.8043 274.19ZM87.5287 183.831 30.2964 278.303C29.0223 280.415 26.6964 281.724 24.2337 281.724 20.4884 281.724 18.667 279.201 18.0513 278.115 17.4356 277.029 16.2299 274.164 18.171 270.966L166.053 26.8418 173.159 42.4817 90.2651 179.324C88.8798 180.479 87.9648 182.027 87.5287 183.831ZM181.719 61.3539 234.351 177.247 111.523 177.247 181.719 61.3539ZM262.441 580.267 132.336 580.267 132.336 316.723 262.441 316.723 262.441 580.267ZM333.073 580.267 279.534 580.267 279.534 308.172C279.534 303.452 275.712 299.621 270.983 299.621L123.785 299.621C119.057 299.621 115.234 303.452 115.234 308.172L115.234 580.267 90.9064 580.267 90.9064 211.271 101.159 194.349 242.124 194.349 285.948 290.839C293.456 307.402 310.062 318.1 328.25 318.1L333.073 318.1 333.073 580.267ZM525.113 580.267 452.129 580.267 452.129 524.899C481.853 521.205 510.61 498.425 510.61 459.038 510.61 456.747 509.695 454.558 508.062 452.942 506.437 451.343 504.428 450.564 501.931 450.487 470.035 450.966 449.153 463.357 440.141 486.581 425.108 462.579 400.412 451.967 367.422 455.695 364.994 455.969 362.805 457.277 361.394 459.269 359.991 461.262 359.496 463.767 360.06 466.144 369.449 506.249 392.716 526.506 429.332 526.506 431.188 526.506 433.103 526.404 435.027 526.301L435.027 580.267 350.175 580.267 350.175 318.091 525.113 318.091 525.113 580.267ZM452.617 507.515C455.19 483.674 468.18 470.959 492.798 468.171 488.865 492.627 469.214 504.376 452.617 507.515ZM432.308 509.362C405.021 510.439 388.27 498.553 379.462 472.053 405.723 471.814 423.021 483.854 432.308 509.362ZM610.546 560.711C602.124 550.774 595.582 538.333 594.128 522.821 602.218 523.736 608.417 526.139 613.026 529.944 609.922 539.983 609.118 550.475 610.546 560.711ZM634.062 577.898C625.596 563.079 624.502 544.994 631.411 529.243 637.516 515.347 648.479 505.898 662.041 502.589 667.086 517.981 666.864 534.228 661.288 548.047 656.149 560.796 646.803 571.006 634.062 577.898ZM706.421 580.267 659.647 580.267C667.223 572.999 673.157 564.345 677.151 554.443 685.172 534.544 684.547 510.918 675.415 489.617 673.953 486.197 670.498 484.136 666.718 484.478 647.342 486.376 630.53 497.219 620.209 513.953 611.256 508.062 599.541 505.026 585.269 505.266 580.66 505.291 576.898 508.96 576.761 513.569 576.026 539.307 585.911 561.968 605.467 580.258L542.223 580.258 542.223 318.083 706.421 318.083 706.421 580.267ZM909.201 580.267 826.144 580.267 826.144 524.899C855.868 521.205 884.625 498.425 884.625 459.038 884.625 456.747 883.71 454.558 882.077 452.942 880.452 451.343 878.306 450.564 875.946 450.487 844.042 450.966 823.169 463.357 814.156 486.581 799.123 462.596 774.445 452.001 741.446 455.695 739.018 455.969 736.829 457.277 735.418 459.269 734.015 461.262 733.519 463.759 734.084 466.144 743.464 506.249 766.732 526.506 803.356 526.506 805.211 526.506 807.127 526.404 809.051 526.301L809.051 580.267 723.523 580.267 723.523 318.091 909.21 318.091 909.21 580.267ZM826.632 507.515C829.206 483.674 842.195 470.959 866.813 468.171 862.88 492.627 843.238 504.376 826.632 507.515ZM806.323 509.362C779.011 510.439 762.285 498.553 753.469 472.053 753.76 472.053 754.042 472.053 754.333 472.053 780.319 472.053 797.139 484.127 806.323 509.362ZM962.654 560.685C957.326 553.451 953.239 544.84 951.956 534.485 957.335 535.28 961.619 536.922 964.92 539.384 962.867 546.362 962.201 553.562 962.654 560.685ZM984.775 577.787C978.396 565.824 977.712 551.484 983.219 538.931 988.033 527.977 996.533 520.401 1007.05 517.442 1010.83 529.807 1010.53 542.762 1006.08 553.819 1002 563.934 994.695 572.118 984.775 577.787ZM1037.74 580.267 1009.03 580.267C1014.51 574.469 1018.89 567.774 1021.95 560.215 1028.87 543.061 1028.33 522.701 1020.46 504.368 1018.99 500.947 1015.5 498.886 1011.76 499.229 995.302 500.845 981.03 509.909 972.043 523.89 964.347 519.264 954.633 516.792 942.969 516.818 938.36 516.844 934.598 520.521 934.461 525.13 933.854 546.259 941.601 564.943 956.873 580.267L926.303 580.267 926.303 318.091 1037.84 318.091C1038.07 354.869 1037.86 508.447 1037.74 580.267ZM1058.09 294.542C1055.45 298.638 1051.14 300.989 1046.27 300.989L718.315 300.989C717.289 300.553 716.152 300.305 714.963 300.305 713.775 300.305 712.646 300.553 711.611 300.989L328.25 300.989C316.757 300.989 306.265 294.225 301.511 283.759L180.41 17.1021 924.371 17.1021C933.366 17.1021 941.575 22.3953 945.286 30.5786L1059.08 281.125C1061.09 285.554 1060.73 290.446 1058.09 294.542Z" fill="#FFFFFF" transform="matrix(1 0 0 1.00167 2847.85 1519.14)"/><path d="M987.674 163.796C986.289 160.743 983.245 158.785 979.893 158.785L826.478 158.785C826.469 158.785 826.469 158.785 826.461 158.785L644.263 158.785C644.255 158.785 644.255 158.785 644.246 158.785L462.057 158.785C462.048 158.785 462.048 158.785 462.04 158.785L276.49 158.785C275.114 158.785 273.814 159.11 272.659 159.683 268.367 161.641 266.468 166.703 268.427 171.004L317.92 280.005C319.305 283.057 322.35 285.016 325.702 285.016L1029.45 285.016C1032.36 285.016 1035.06 283.536 1036.65 281.099 1038.22 278.654 1038.44 275.575 1037.24 272.933L987.674 163.796ZM697.477 175.887 670.994 205.063 657.74 175.887 697.477 175.887ZM522 175.887 491.028 210.014 475.525 175.887 522 175.887ZM331.217 267.914 289.419 175.887 438.567 175.887 355.049 267.914 331.217 267.914ZM378.137 267.914 458.389 179.478 478.518 223.799 438.49 267.905 378.137 267.905ZM461.57 267.914 486.214 240.755 498.544 267.914 461.57 267.914ZM517.331 267.914 498.733 226.971 545.088 175.887 638.962 175.887 658.475 218.856 613.95 267.914 517.331 267.914ZM637.046 267.914 666.18 235.813 680.759 267.914 637.046 267.914ZM678.698 222.02 720.564 175.887 780.918 175.887 698.828 266.34 678.698 222.02ZM720.487 267.914 804.006 175.887 821.176 175.887 862.974 267.914 720.487 267.914ZM881.752 267.914 839.954 175.887 974.377 175.887 1016.17 267.914 881.752 267.914Z" fill="#FFFFFF" transform="matrix(1 0 0 1.00167 2847.85 1519.14)"/><path d="M225.244 479.826C240.448 479.826 252.821 467.461 252.821 452.249 252.821 437.037 240.456 424.672 225.244 424.672 210.031 424.672 197.667 437.037 197.667 452.249 197.667 467.461 210.04 479.826 225.244 479.826ZM225.244 441.782C231.016 441.782 235.719 446.486 235.719 452.258 235.719 458.029 231.016 462.733 225.244 462.733 219.472 462.733 214.769 458.029 214.769 452.258 214.769 446.486 219.472 441.782 225.244 441.782Z" fill="#FFFFFF" transform="matrix(1 0 0 1.00167 2847.85 1519.14)"/><path d="M632.591 149.712C632.6 149.712 632.608 149.712 632.608 149.712L967.998 149.712C970.906 149.712 973.608 148.233 975.19 145.796 976.763 143.35 976.985 140.272 975.78 137.629L928.791 34.1701C927.406 31.1173 924.362 29.1591 921.01 29.1591L217.266 29.1591C214.358 29.1591 211.656 30.6385 210.074 33.0755 208.501 35.5211 208.278 38.5995 209.484 41.2418L231.691 90.1368C231.7 90.1539 231.7 90.1625 231.708 90.1796L256.472 144.701C256.472 144.71 256.481 144.718 256.489 144.727 256.524 144.795 256.583 144.855 256.618 144.924 257.045 145.787 257.618 146.531 258.285 147.19 258.379 147.284 258.413 147.412 258.516 147.497 258.653 147.617 258.824 147.66 258.961 147.771 259.508 148.216 260.098 148.575 260.748 148.866 261.004 148.985 261.244 149.122 261.509 149.216 262.39 149.515 263.305 149.721 264.271 149.721L632.574 149.721C632.574 149.704 632.582 149.712 632.591 149.712ZM759.839 132.601 787.613 101.997 801.517 132.601 759.839 132.601ZM954.727 132.601 843.281 132.601 917.555 50.7677 954.727 132.601ZM898.563 46.2527 820.261 132.533 800.132 88.2128 838.21 46.2527 898.563 46.2527ZM815.131 46.2527 792.436 71.2561 781.08 46.2527 815.131 46.2527ZM639.654 46.2527 612.47 76.2071 598.866 46.2527 639.654 46.2527ZM230.545 46.2527 264.305 46.2527 241.85 71.1278 230.545 46.2527ZM249.554 88.1017 287.35 46.2527 338.845 46.2527 266.674 125.778 249.554 88.1017ZM283.562 132.601 361.924 46.2442 397.881 46.2442 437.105 132.601 283.562 132.601ZM455.883 132.601 416.659 46.2527 556.213 46.2527 477.842 132.61 455.883 132.61ZM500.93 132.601 579.301 46.2442 580.087 46.2442 599.952 89.9915 561.284 132.601 500.93 132.601ZM584.38 132.601 607.665 106.948 619.311 132.601 584.38 132.601ZM662.742 46.2527 762.294 46.2527 779.917 85.0489 736.752 132.61 638.089 132.61 620.175 93.1639 662.742 46.2527Z" fill="#FFFFFF" transform="matrix(1 0 0 1.00167 2847.85 1519.14)"/></g></svg>