<svg width="1039" height="839" xmlns="http://www.w3.org/2000/svg" xmlns:xlink="http://www.w3.org/1999/xlink" overflow="hidden"><defs><clipPath id="clip0"><rect x="1050" y="2485" width="1039" height="839"/></clipPath></defs><g clip-path="url(#clip0)" transform="translate(-1050 -2485)"><path d="M1005.64 652.499C1000.19 652.499 994.738 652.75 989.094 653.251 955.243 582.837 883.886 537.712 805.411 537.712 726.627 537.712 655.181 583.058 621.419 653.826 614.758 653.118 608.111 652.764 601.597 652.764 496.817 652.764 411.577 738.004 411.577 842.799 411.577 939.843 484.821 1020.16 578.932 1031.42L578.932 1012.41C495.254 1001.27 430.441 929.438 430.441 842.799 430.441 748.408 507.221 671.628 601.597 671.628 609.511 671.628 617.661 672.217 625.81 673.367 630.01 673.956 634.093 671.672 635.787 667.796 665.203 600.241 731.785 556.576 805.411 556.576 878.728 556.576 945.192 599.976 974.726 667.148 976.406 670.965 980.399 673.219 984.511 672.718 991.865 671.805 998.776 671.363 1005.64 671.363 1100.02 671.363 1176.8 748.158 1176.8 842.534 1176.8 929.792 1111.13 1001.97 1026.63 1012.36L1026.63 1031.37C1121.57 1020.9 1195.66 940.226 1195.66 842.534 1195.66 737.753 1110.42 652.499 1005.64 652.499" fill="#FFFFFF" transform="matrix(1 0 0 1.00029 767.425 2102.38)"/><path d="M378.846 780.078 291.986 780.078C286.784 780.078 282.554 775.849 282.554 770.646 282.554 765.444 286.784 761.215 291.986 761.215L378.846 761.215C384.048 761.215 388.278 765.444 388.278 770.646 388.278 775.849 384.048 780.078 378.846 780.078" fill="#FFFFFF" transform="matrix(1 0 0 1.00029 767.425 2102.38)"/><path d="M1312.16 782.185 1225.31 782.185C1220.1 782.185 1215.88 777.971 1215.88 772.754 1215.88 767.552 1220.1 763.322 1225.31 763.322L1312.16 763.322C1317.36 763.322 1321.59 767.552 1321.59 772.754 1321.59 777.971 1317.36 782.185 1312.16 782.185" fill="#FFFFFF" transform="matrix(1 0 0 1.00029 767.425 2102.38)"/><path d="M1145.62 623.894C1142.27 623.894 1139.01 622.097 1137.32 618.943 1134.84 614.36 1136.55 608.627 1141.14 606.166L1217.59 564.946C1222.19 562.485 1227.89 564.195 1230.37 568.778 1232.85 573.361 1231.12 579.079 1226.54 581.555L1150.1 622.76C1148.67 623.526 1147.13 623.894 1145.62 623.894" fill="#FFFFFF" transform="matrix(1 0 0 1.00029 767.425 2102.38)"/><path d="M1014.78 524.316C1013.28 524.316 1011.75 523.948 1010.33 523.181 1005.75 520.72 1004.02 515.002 1006.48 510.404L1047.51 433.889C1049.99 429.277 1055.71 427.567 1060.29 430.028 1064.87 432.489 1066.6 438.192 1064.14 442.79L1023.11 519.32C1021.4 522.503 1018.14 524.316 1014.78 524.316" fill="#FFFFFF" transform="matrix(1 0 0 1.00029 767.425 2102.38)"/><path d="M474.578 623.894C473.06 623.894 471.528 623.526 470.113 622.76L393.657 581.57C389.074 579.094 387.364 573.376 389.84 568.793 392.301 564.209 398.019 562.485 402.617 564.961L479.058 606.166C483.642 608.627 485.351 614.36 482.89 618.943 481.181 622.097 477.938 623.894 474.578 623.894" fill="#FFFFFF" transform="matrix(1 0 0 1.00029 767.425 2102.38)"/><path d="M624.749 524.316C621.374 524.316 618.132 522.503 616.423 519.32L575.38 442.776C572.919 438.192 574.643 432.474 579.241 430.013 583.824 427.552 589.542 429.277 592.003 433.875L633.046 510.404C635.507 515.002 633.783 520.72 629.2 523.181 627.77 523.948 626.252 524.316 624.749 524.316" fill="#FFFFFF" transform="matrix(1 0 0 1.00029 767.425 2102.38)"/><path d="M809.464 489.905C809.449 489.905 809.434 489.905 809.434 489.905 804.217 489.89 800.017 485.646 800.032 480.444L800.268 393.583C800.283 388.381 804.512 384.181 809.7 384.181 809.714 384.181 809.729 384.181 809.729 384.181 814.946 384.196 819.146 388.44 819.131 393.642L818.896 480.488C818.881 485.69 814.651 489.905 809.464 489.905" fill="#FFFFFF" transform="matrix(1 0 0 1.00029 767.425 2102.38)"/><path d="M803.613 890.135C750.869 890.135 707.97 933.034 707.97 985.793 707.97 1038.54 750.869 1081.45 803.613 1081.45 856.372 1081.45 899.286 1038.54 899.286 985.793 899.286 933.034 856.372 890.135 803.613 890.135ZM803.613 1100.31C740.465 1100.31 689.106 1048.94 689.106 985.793 689.106 922.645 740.465 871.271 803.613 871.271 866.762 871.271 918.15 922.645 918.15 985.793 918.15 1048.94 866.762 1100.31 803.613 1100.31ZM772.459 1201.1 834.782 1201.1 834.782 1140.86C834.782 1136.57 837.685 1132.82 841.826 1131.73 845.982 1130.64 850.345 1132.5 852.437 1136.23L881.97 1188.75 936.321 1158.2 903.162 1099.22C901.084 1095.53 901.733 1090.88 904.754 1087.91 907.775 1084.91 912.417 1084.31 916.087 1086.43L974.726 1120.17 1005.81 1066.12 950.94 1034.57C947.226 1032.44 945.428 1028.09 946.519 1023.96 947.624 1019.84 951.367 1016.96 955.641 1016.96L1018.94 1016.96 1018.94 954.624 966.104 954.624C961.772 954.624 957.999 951.677 956.953 947.477 955.906 943.277 957.837 938.9 961.668 936.866L1008.3 912.019 978.955 857.006 919.27 888.823C915.527 890.813 910.899 890.076 907.981 886.981 905.063 883.901 904.562 879.259 906.758 875.619L941.803 817.761 888.484 785.457 852.29 845.216C850.094 848.841 845.747 850.551 841.679 849.416 837.612 848.296 834.782 844.568 834.782 840.338L834.782 770.484 772.459 770.484 772.459 830.729C772.459 835.033 769.556 838.761 765.415 839.852 761.274 840.942 756.897 839.085 754.804 835.357L725.271 782.834 670.935 813.384 704.079 872.347C706.157 876.061 705.508 880.688 702.502 883.68 699.481 886.657 694.839 887.276 691.155 885.139L632.53 851.42 601.45 905.461 656.316 937.013C660.015 939.15 661.828 943.498 660.722 947.624 659.617 951.75 655.874 954.624 651.615 954.624L588.319 954.624 588.319 1016.96 641.137 1016.96C645.47 1016.96 649.242 1019.91 650.289 1024.11 651.335 1028.31 649.39 1032.69 645.573 1034.72L598.959 1059.57 628.286 1114.58 687.971 1082.75C691.715 1080.76 696.342 1081.51 699.26 1084.59 702.178 1087.69 702.679 1092.33 700.483 1095.97L665.453 1153.84 718.772 1186.11 754.951 1126.36C757.147 1122.73 761.495 1121.02 765.562 1122.16 769.63 1123.29 772.459 1127 772.459 1131.25ZM844.214 1219.97 763.027 1219.97C757.81 1219.97 753.596 1215.74 753.596 1210.53L753.596 1165.04 730.031 1203.95C728.734 1206.1 726.641 1207.63 724.21 1208.23 721.763 1208.82 719.214 1208.44 717.077 1207.14L647.621 1165.08C643.156 1162.39 641.741 1156.58 644.438 1152.13L666.573 1115.54 628.831 1135.65C624.248 1138.12 618.53 1136.38 616.069 1131.78L577.871 1060.11C576.692 1057.9 576.441 1055.34 577.163 1052.94 577.9 1050.55 579.551 1048.54 581.761 1047.35L603.395 1035.83 578.887 1035.83C573.67 1035.83 569.456 1031.6 569.456 1026.39L569.456 945.192C569.456 939.975 573.67 935.761 578.887 935.761L616.29 935.761 583.869 917.104C579.344 914.51 577.797 908.733 580.391 904.238L620.873 833.839C622.126 831.673 624.174 830.081 626.591 829.433 629.023 828.784 631.587 829.123 633.754 830.376L670.832 851.7 649.861 814.401C647.312 809.862 648.933 804.114 653.472 801.565L724.239 761.76C726.435 760.551 729.014 760.242 731.416 760.905 733.818 761.583 735.867 763.175 737.09 765.356L753.596 794.712 753.596 761.052C753.596 755.85 757.81 751.621 763.027 751.621L844.214 751.621C849.431 751.621 853.646 755.85 853.646 761.052L853.646 806.561 877.225 767.625C879.937 763.16 885.728 761.745 890.179 764.442L959.635 806.502C964.085 809.199 965.515 814.99 962.818 819.441L940.668 856.033 978.41 835.917C983.008 833.471 988.726 835.21 991.172 839.807L1029.37 911.474C1030.55 913.685 1030.8 916.263 1030.08 918.651 1029.34 921.053 1027.69 923.043 1025.48 924.236L1003.85 935.761 1028.37 935.761C1033.57 935.761 1037.8 939.975 1037.8 945.192L1037.8 1026.39C1037.8 1031.6 1033.57 1035.83 1028.37 1035.83L990.951 1035.83 1023.39 1054.48C1027.9 1057.06 1029.46 1062.84 1026.85 1067.35L986.368 1137.75C985.13 1139.91 983.067 1141.49 980.65 1142.15 978.233 1142.8 975.669 1142.46 973.488 1141.21L936.424 1119.9 957.38 1157.19C959.929 1161.72 958.323 1167.46 953.784 1170.02L883.002 1209.81C878.463 1212.38 872.715 1210.75 870.151 1206.22L853.646 1176.86 853.646 1210.53C853.646 1215.74 849.431 1219.97 844.214 1219.97" fill="#FFFFFF" transform="matrix(1 0 0 1.00029 767.425 2102.38)"/></g></svg>