<svg width="781" height="788" xmlns="http://www.w3.org/2000/svg" xmlns:xlink="http://www.w3.org/1999/xlink" overflow="hidden"><defs><clipPath id="clip0"><rect x="5546" y="1425" width="781" height="788"/></clipPath></defs><g clip-path="url(#clip0)" transform="translate(-5546 -1425)"><path d="M991.433 697.62 942.611 697.62C939.898 697.62 937.339 696.403 935.646 694.291 933.94 692.179 933.297 689.41 933.87 686.753 935.045 681.383 935.646 675.901 935.646 670.489 935.646 627.988 899.747 592.102 857.246 592.102 814.759 592.102 778.859 627.988 778.859 670.489 778.859 675.915 779.447 681.383 780.621 686.753 781.209 689.41 780.551 692.179 778.859 694.291 777.153 696.403 774.594 697.62 771.881 697.62L683.956 697.62C679.019 697.62 675.006 693.62 675.006 688.669 675.006 683.732 679.019 679.719 683.956 679.719L761.42 679.719C761.112 676.642 760.958 673.565 760.958 670.489 760.958 618.296 805.053 574.201 857.246 574.201 909.452 574.201 953.547 618.296 953.547 670.489 953.547 673.565 953.393 676.642 953.086 679.719L991.433 679.719C997.684 679.719 1002.77 674.628 1002.77 668.377L1002.77 396.436C1002.77 390.171 997.684 385.094 991.433 385.094L680.348 385.094C675.397 385.094 671.398 381.08 671.398 376.144 671.398 371.193 675.397 367.193 680.348 367.193L991.433 367.193C1007.56 367.193 1020.68 380.311 1020.68 396.436L1020.68 668.377C1020.68 684.502 1007.56 697.62 991.433 697.62" fill="#FFFFFF" transform="matrix(1.00021 0 0 1 5175.37 1058.03)"/><path d="M468.781 701.424 468.781 707.213C468.781 748.078 502.038 781.335 542.916 781.335 583.781 781.335 617.037 748.078 617.037 707.213L617.037 701.424C616.506 696.878 617.891 692.389 620.995 688.683 625.848 682.921 634.295 679.621 644.155 679.621L678.88 679.621C685.131 679.621 690.221 674.53 690.221 668.265L690.221 636.169C690.221 630.925 688.669 627.792 687.788 626.771 687.62 626.785 687.452 626.799 687.201 626.799L680.991 626.799C628.799 626.799 584.704 582.704 584.704 530.511 584.704 478.305 628.799 434.21 680.991 434.21L687.117 434.21C687.327 434.21 687.564 434.21 687.788 434.224 688.669 433.231 690.221 430.098 690.221 424.84L690.221 396.324C690.221 390.073 685.131 384.982 678.88 384.982L406.939 384.982C400.688 384.982 395.597 390.073 395.597 396.324L395.597 668.265C395.597 674.53 400.688 679.621 406.939 679.621L441.664 679.621C451.538 679.621 459.971 682.935 464.823 688.683 467.928 692.389 469.327 696.878 468.781 701.424ZM542.916 799.235C492.164 799.235 450.88 757.951 450.88 707.213L450.88 700.892C450.88 700.612 450.894 700.305 450.922 699.997 449.985 699.13 446.922 697.522 441.664 697.522L406.939 697.522C390.814 697.522 377.696 684.404 377.696 668.265L377.696 396.324C377.696 380.199 390.814 367.081 406.939 367.081L678.88 367.081C695.004 367.081 708.122 380.199 708.122 396.324L708.122 424.84C708.122 441.496 698.864 453.453 686.627 452.111L680.991 452.111C638.505 452.111 602.605 488.011 602.605 530.511 602.605 572.998 638.505 608.898 680.991 608.898L686.627 608.898C698.85 607.555 708.122 619.499 708.122 636.169L708.122 668.265C708.122 684.404 695.004 697.522 678.88 697.522L644.155 697.522C638.896 697.522 635.833 699.13 634.896 699.997 634.924 700.263 634.938 700.543 634.938 700.808L634.938 707.213C634.938 757.951 593.654 799.235 542.916 799.235" fill="#FFFFFF" transform="matrix(1.00021 0 0 1 5175.37 1058.03)"/><path d="M400.995 798.047C394.73 798.047 389.639 803.137 389.639 809.389L389.639 1081.33C389.639 1087.59 394.73 1092.69 400.995 1092.69L672.936 1092.69C679.187 1092.69 684.278 1087.59 684.278 1081.33L684.278 1046.6C684.278 1031.08 692.837 1019.38 704.179 1019.38 704.808 1019.38 705.451 1019.4 706.081 1019.49L711.87 1019.49C752.735 1019.49 785.992 986.231 785.992 945.366 785.992 904.487 752.735 871.245 711.87 871.245L706.081 871.245C699.27 872.014 692.781 868.49 688.753 861.805 685.83 856.966 684.278 850.841 684.278 844.114L684.278 809.389C684.278 803.137 679.187 798.047 672.936 798.047L640.826 798.047C635.582 798.047 632.449 799.613 631.442 800.48 631.456 800.676 631.456 800.872 631.456 801.068L631.456 807.277C631.456 859.469 587.361 903.578 535.169 903.578 482.962 903.578 438.867 859.469 438.867 807.277L438.867 801.151C438.867 800.942 438.881 800.704 438.895 800.48 437.888 799.613 434.755 798.047 429.497 798.047ZM672.936 1110.59 400.995 1110.59C384.856 1110.59 371.738 1097.45 371.738 1081.33L371.738 809.389C371.738 793.264 384.856 780.146 400.995 780.146L429.497 780.146C439.44 780.146 447.929 783.432 452.796 789.166 455.873 792.788 457.271 797.18 456.768 801.641L456.768 807.277C456.768 849.778 492.668 885.677 535.169 885.677 577.655 885.677 613.555 849.778 613.555 807.277L613.555 801.641C613.066 797.18 614.464 792.788 617.527 789.166 622.394 783.432 630.883 780.146 640.826 780.146L672.936 780.146C689.061 780.146 702.179 793.264 702.179 809.389L702.179 844.114C702.179 849.372 703.787 852.449 704.654 853.372 704.92 853.344 705.144 853.344 705.465 853.344L711.87 853.344C762.608 853.344 803.893 894.614 803.893 945.366 803.893 996.104 762.608 1037.39 711.87 1037.39L705.549 1037.39C705.269 1037.39 704.962 1037.37 704.654 1037.35 703.787 1038.28 702.179 1041.35 702.179 1046.6L702.179 1081.33C702.179 1097.45 689.061 1110.59 672.936 1110.59" fill="#FFFFFF" transform="matrix(1.00021 0 0 1 5175.37 1058.03)"/><path d="M840.464 1088.06C839.583 1089.06 838.016 1092.2 838.016 1097.45L838.016 1125.97C838.016 1132.22 843.107 1137.31 849.358 1137.31L1121.31 1137.31C1127.56 1137.31 1132.65 1132.22 1132.65 1125.97L1132.65 854.015C1132.65 847.764 1127.56 842.673 1121.31 842.673L1086.59 842.673C1076.71 842.673 1068.28 839.373 1063.43 833.611 1060.32 829.919 1058.93 825.43 1059.46 820.87L1059.46 815.081C1059.46 774.216 1026.21 740.96 985.335 740.96 944.471 740.96 911.214 774.216 911.214 815.081L911.214 820.87C911.746 825.43 910.361 829.919 907.243 833.611 902.404 839.373 893.957 842.673 884.083 842.673L849.358 842.673C843.107 842.673 838.016 847.764 838.016 854.015L838.016 886.125C838.016 891.383 839.583 894.502 840.464 895.523 840.631 895.509 840.799 895.495 841.051 895.495L847.246 895.495C899.453 895.495 943.548 939.59 943.548 991.783 943.548 1043.99 899.453 1088.08 847.246 1088.08L841.135 1088.08C840.925 1088.08 840.687 1088.07 840.464 1088.06ZM1121.31 1155.21 849.358 1155.21C833.233 1155.21 820.115 1142.09 820.115 1125.97L820.115 1097.45C820.115 1080.8 829.401 1068.83 841.624 1070.18L847.246 1070.18C889.747 1070.18 925.647 1034.28 925.647 991.783 925.647 949.296 889.747 913.396 847.246 913.396L841.624 913.396C829.401 914.753 820.115 902.781 820.115 886.125L820.115 854.015C820.115 837.89 833.233 824.772 849.358 824.772L884.083 824.772C889.342 824.772 892.404 823.178 893.341 822.297 893.327 822.031 893.313 821.752 893.313 821.486L893.313 815.081C893.313 764.343 934.597 723.059 985.335 723.059 1036.09 723.059 1077.36 764.343 1077.36 815.081L1077.36 821.402C1077.36 821.682 1077.34 821.989 1077.32 822.297 1078.25 823.164 1081.33 824.772 1086.59 824.772L1121.31 824.772C1137.44 824.772 1150.56 837.89 1150.56 854.015L1150.56 1125.97C1150.56 1142.09 1137.44 1155.21 1121.31 1155.21" fill="#FFFFFF" transform="matrix(1.00021 0 0 1 5175.37 1058.03)"/></g></svg>