<svg width="1400" height="1399" xmlns="http://www.w3.org/2000/svg" xmlns:xlink="http://www.w3.org/1999/xlink" overflow="hidden"><defs><clipPath id="clip0"><rect x="4135" y="26" width="1400" height="1399"/></clipPath></defs><g clip-path="url(#clip0)" transform="translate(-4135 -26)"><path d="M668.374 958.966C664.722 958.966 661.399 956.531 660.412 952.846 660.28 952.287 645.31 895.992 632.972 847.954 631.82 843.546 634.485 839.071 638.894 837.952 643.303 836.801 647.778 839.466 648.896 843.842 661.235 891.846 676.172 948.043 676.304 948.635 677.488 953.011 674.889 957.519 670.48 958.703 669.789 958.868 669.065 958.966 668.374 958.966" fill="#FFFFFF" transform="matrix(1.00072 0 0 1 4135 26.0001)"/><path d="M726.809 957.716C726.118 957.716 725.427 957.65 724.736 957.453 720.327 956.334 717.695 951.859 718.813 947.451L745.629 843.216C746.747 838.808 751.255 836.175 755.631 837.294 760.04 838.413 762.705 842.92 761.553 847.296L734.771 951.53C733.817 955.248 730.461 957.716 726.809 957.716" fill="#FFFFFF" transform="matrix(1.00072 0 0 1 4135 26.0001)"/><path d="M800.871 878.849C798.305 880.33 796.726 883.028 796.726 885.989L796.726 943.042 599.313 943.042 599.313 885.989C599.313 883.028 597.766 880.33 595.2 878.849 531.238 842.065 491.525 773.431 491.525 699.829 491.525 585.955 584.178 493.335 698.019 493.335 811.861 493.335 904.513 585.955 904.513 699.829 904.513 773.464 864.8 842.065 800.871 878.849ZM786.296 1044.25 609.743 1044.25C603.985 1044.25 599.313 1039.58 599.313 1033.82L599.313 959.493 796.726 959.493 796.726 1033.82C796.726 1039.58 792.054 1044.25 786.296 1044.25ZM698.019 476.884C575.097 476.884 475.074 576.906 475.074 699.829 475.074 777.741 516.268 850.389 582.862 890.661L582.862 951.267C582.862 951.465 582.895 951.629 582.927 951.794 582.895 951.958 582.862 952.123 582.862 952.32L582.862 1033.82C582.862 1048.66 594.937 1060.7 609.743 1060.7L786.296 1060.7C801.135 1060.7 813.177 1048.66 813.177 1033.82L813.177 951.761C813.177 951.695 813.144 951.596 813.144 951.53 813.144 951.432 813.177 951.366 813.177 951.267L813.177 890.661C879.771 850.422 920.964 777.741 920.964 699.829 920.964 576.906 820.942 476.884 698.019 476.884" fill="#FFFFFF" transform="matrix(1.00072 0 0 1 4135 26.0001)"/><path d="M432.762 725.657 343.828 725.657C339.287 725.657 335.602 721.972 335.602 717.432 335.602 712.858 339.287 709.206 343.828 709.206L432.762 709.206C437.303 709.206 440.988 712.858 440.988 717.432 440.988 721.972 437.303 725.657 432.762 725.657" fill="#FFFFFF" transform="matrix(1.00072 0 0 1 4135 26.0001)"/><path d="M1055.17 727.796 966.238 727.796C961.697 727.796 958.012 724.111 958.012 719.57 958.012 715.03 961.697 711.345 966.238 711.345L1055.17 711.345C1059.71 711.345 1063.4 715.03 1063.4 719.57 1063.4 724.111 1059.71 727.796 1055.17 727.796" fill="#FFFFFF" transform="matrix(1.00072 0 0 1 4135 26.0001)"/><path d="M946.858 593.39C943.93 593.39 941.1 591.811 939.587 589.08 937.448 585.066 938.962 580.065 942.943 577.926L1021.22 535.713C1025.23 533.541 1030.2 535.055 1032.37 539.069 1034.54 543.05 1033.03 548.051 1029.05 550.19L950.741 592.403C949.523 593.061 948.174 593.39 946.858 593.39" fill="#FFFFFF" transform="matrix(1.00072 0 0 1 4135 26.0001)"/><path d="M831.931 477.805C830.615 477.805 829.266 477.476 828.049 476.818 824.035 474.679 822.521 469.678 824.693 465.697L866.709 387.324C868.847 383.31 873.848 381.797 877.83 383.968 881.844 386.107 883.357 391.075 881.218 395.089L839.17 473.462C837.689 476.226 834.859 477.805 831.931 477.805" fill="#FFFFFF" transform="matrix(1.00072 0 0 1 4135 26.0001)"/><path d="M433.552 585.264C432.236 585.264 430.887 584.935 429.669 584.244L351.362 542.063C347.381 539.924 345.867 534.923 348.039 530.909 350.178 526.928 355.179 525.447 359.193 527.586L437.467 569.8C441.481 571.938 442.962 576.939 440.823 580.92 439.31 583.684 436.48 585.264 433.552 585.264" fill="#FFFFFF" transform="matrix(1.00072 0 0 1 4135 26.0001)"/><path d="M548.479 469.678C545.551 469.678 542.721 468.099 541.24 465.335L499.224 386.962C497.053 382.948 498.566 377.98 502.58 375.808 506.562 373.67 511.563 375.183 513.701 379.164L555.75 457.57C557.889 461.551 556.375 466.553 552.361 468.691 551.144 469.349 549.795 469.678 548.479 469.678" fill="#FFFFFF" transform="matrix(1.00072 0 0 1 4135 26.0001)"/><path d="M699.072 443.686 699.039 443.686C694.532 443.653 690.847 439.968 690.847 435.427L691.11 346.493C691.11 341.952 694.696 338.267 699.335 338.3 703.909 338.3 707.561 341.985 707.561 346.526L707.298 435.493C707.298 440.001 703.613 443.686 699.072 443.686" fill="#FFFFFF" transform="matrix(1.00072 0 0 1 4135 26.0001)"/><path d="M630.076 689.267C630.076 652.68 659.853 622.904 696.44 622.904 733.027 622.904 762.804 652.68 762.804 689.267 762.804 725.887 733.027 755.631 696.44 755.631 659.853 755.631 630.076 725.887 630.076 689.267ZM806.432 775.306 772.608 759.349C769.549 757.901 765.929 758.461 763.495 760.797 761.027 763.1 760.204 766.686 761.455 769.812L775.175 804.589 717.695 827.292 703.678 791.79C702.428 788.665 699.401 786.592 696.045 786.592L696.012 786.592C692.656 786.592 689.662 788.599 688.412 791.725L674.099 827.127 616.784 803.964 628.991 773.793C630.241 770.634 629.451 767.015 626.951 764.679 624.483 762.376 620.798 761.817 617.738 763.33L587.665 778.004 560.521 722.466 610.861 697.888C612.046 697.295 613.066 696.44 613.856 695.42 616.981 738.226 652.845 772.082 696.44 772.082 742.108 772.082 779.255 734.935 779.255 689.267 779.255 643.599 742.108 606.453 696.44 606.453 652.055 606.453 615.731 641.526 613.691 685.385 612.934 684.431 611.914 683.608 610.763 683.049L560.093 659.162 586.448 603.261 620.271 619.186C623.331 620.633 626.951 620.074 629.385 617.771 631.853 615.435 632.676 611.881 631.425 608.756L617.705 573.945 675.185 551.276 689.201 586.777C690.452 589.903 693.479 591.943 696.835 591.976L696.868 591.976C700.224 591.976 703.218 589.936 704.468 586.843L718.781 551.44 776.096 574.57 762.705 607.736C761.455 610.894 762.244 614.514 764.745 616.817 767.212 619.153 770.898 619.712 773.957 618.199L805.214 602.899 832.359 658.438 784.519 681.831C781.657 683.213 779.88 686.142 779.913 689.3 779.913 692.459 781.755 695.321 784.618 696.67L832.786 719.373ZM847.263 708.022 807.123 689.103 846.967 669.625C851.047 667.618 852.758 662.682 850.751 658.635L816.401 588.291C815.447 586.349 813.736 584.836 811.696 584.145 809.623 583.421 807.353 583.553 805.412 584.507L786 594.016 794.423 573.123C796.133 568.911 794.094 564.107 789.882 562.397L717.333 533.081C713.088 531.403 708.318 533.443 706.607 537.654L696.934 561.574 687.491 537.555C685.813 533.344 681.009 531.271 676.797 532.949L604.018 561.673C601.978 562.462 600.333 564.042 599.477 566.049 598.622 568.023 598.589 570.326 599.379 572.333L608.492 595.463 586.02 584.869C584.046 583.947 581.776 583.816 579.736 584.54 577.663 585.296 575.985 586.843 575.064 588.784L541.701 659.59C539.76 663.702 541.537 668.605 545.616 670.546L588.258 690.616 545.913 711.312C541.833 713.286 540.122 718.221 542.129 722.301L576.479 792.613C578.486 796.693 583.388 798.404 587.468 796.397L605.696 787.513 598.457 805.445C597.635 807.452 597.635 809.722 598.523 811.729 599.346 813.736 600.991 815.315 602.998 816.138L675.58 845.454C677.587 846.276 679.857 846.244 681.864 845.388 683.871 844.533 685.451 842.92 686.273 840.913L695.946 816.993 705.389 840.979C706.705 844.236 709.798 846.178 713.056 846.178 714.076 846.178 715.095 846.013 716.083 845.618L788.862 816.895C793.107 815.217 795.179 810.446 793.501 806.234L784.355 783.071 806.86 793.699C808.834 794.62 811.104 794.719 813.144 793.995 815.217 793.238 816.895 791.725 817.816 789.75L851.179 718.978C853.12 714.865 851.343 709.93 847.263 708.022" fill="#FFFFFF" transform="matrix(1.00072 0 0 1 4135 26.0001)"/></g></svg>