<svg width="916" height="916" xmlns="http://www.w3.org/2000/svg" xmlns:xlink="http://www.w3.org/1999/xlink" overflow="hidden"><defs><clipPath id="clip0"><rect x="4418" y="2490" width="916" height="916"/></clipPath></defs><g clip-path="url(#clip0)" transform="translate(-4418 -2490)"><path d="M797.806 522.282 797.806 413.677C814.102 413.677 827.355 400.425 827.355 384.129L827.355 354.581C827.355 350.015 826.232 345.746 824.37 341.89 843.99 328.593 856.903 306.136 856.903 280.71 856.903 257.544 845.793 235.796 827.355 221.923 827.355 221.82 827.355 221.716 827.355 221.613 827.355 180.88 794.216 147.742 753.484 147.742 737.439 147.742 721.896 153.105 709.161 162.782 696.426 153.105 680.883 147.742 664.839 147.742 624.106 147.742 590.968 180.88 590.968 221.613 590.968 221.716 590.968 221.834 590.968 221.923 572.529 235.796 561.419 257.529 561.419 280.71 561.419 306.136 574.332 328.593 593.952 341.89 592.09 345.746 590.968 350.015 590.968 354.581L590.968 384.129C590.968 400.425 604.22 413.677 620.516 413.677L620.516 508.321C595.178 484.298 565.083 466.155 531.871 455.252L531.871 88.6451C548.167 88.6451 561.419 75.3927 561.419 59.0968L561.419 29.5484C561.419 13.2524 548.167 0 531.871 0L384.129 0C367.833 0 354.581 13.2524 354.581 29.5484L354.581 59.0968C354.581 75.3927 367.833 88.6451 384.129 88.6451L384.129 455.252C363.194 462.151 343.323 472.257 325.032 484.697L325.032 413.677C341.328 413.677 354.581 400.425 354.581 384.129L354.581 354.581C354.581 338.285 341.328 325.032 325.032 325.032L147.742 325.032C131.446 325.032 118.194 338.285 118.194 354.581L118.194 384.129C118.194 400.425 131.446 413.677 147.742 413.677L147.742 542.626 13.2524 771.242C4.59477 785.987 0 802.829 0 819.938 0 872.903 43.0963 916 96.0618 916L376.712 916C387.808 916 398.416 914.02 408.329 910.548 424.61 914.02 441.261 916 458 916 504.849 916 549.6 902.334 588.293 876.656 622.333 901.299 664.026 916 709.161 916 823.218 916 916 823.218 916 709.161 916 628.76 869.934 556.455 797.806 522.282ZM723.935 206.839C732.091 206.839 738.709 213.472 738.709 221.613 738.709 229.753 732.091 236.387 723.935 236.387 715.78 236.387 709.161 229.753 709.161 221.613 709.161 213.472 715.78 206.839 723.935 206.839ZM613.764 242.252 622.451 237.362 620.944 225.764C620.752 224.405 620.516 223.046 620.516 221.613 620.516 197.176 640.402 177.29 664.839 177.29 675.845 177.29 685.995 181.56 694.165 189.006 685.286 197.117 679.613 208.671 679.613 221.613 679.613 246.049 699.499 265.935 723.935 265.935 748.372 265.935 768.258 246.049 768.258 221.613 768.258 202.436 755.951 186.229 738.872 180.068 743.526 178.384 748.387 177.29 753.484 177.29 777.92 177.29 797.806 197.176 797.806 221.613 797.806 223.046 797.57 224.405 797.378 225.779L795.871 237.377 804.558 242.267C818.623 250.171 827.355 264.901 827.355 280.71 827.355 305.146 807.469 325.032 783.032 325.032L706.443 325.032C708.097 320.393 709.161 315.458 709.161 310.258 709.161 285.821 689.275 265.935 664.839 265.935 640.402 265.935 620.516 285.821 620.516 310.258 620.516 314.705 621.373 318.901 622.599 322.949 604.368 317.453 590.968 300.714 590.968 280.71 590.968 264.901 599.699 250.171 613.764 242.252ZM650.064 310.258C650.064 302.117 656.683 295.484 664.839 295.484 672.994 295.484 679.613 302.117 679.613 310.258 679.613 318.399 672.994 325.032 664.839 325.032 656.683 325.032 650.064 318.399 650.064 310.258ZM797.806 354.581 797.821 384.129 620.516 384.129 620.516 354.581 797.806 354.581ZM384.129 29.5484 531.871 29.5484 531.886 59.0968 384.129 59.0968 384.129 29.5484ZM402.848 480.471 413.677 477.457 413.677 88.6451 502.322 88.6451 502.322 118.194 443.226 118.194 443.226 147.742 502.322 147.742 502.322 177.29 472.774 177.29 472.774 206.839 502.322 206.839 502.322 236.387 443.226 236.387 443.226 265.935 502.322 265.935 502.322 295.484 472.774 295.484 472.774 325.032 502.322 325.032 502.322 477.457 513.152 480.457C547.014 489.794 577.567 507.538 602.58 532.004 577.272 547.192 555.879 567.358 539.435 590.953L353.472 590.953 325.032 542.626 325.032 521.75C347.755 502.677 374.407 488.302 402.848 480.471ZM147.742 354.581 325.032 354.581 325.047 384.129 147.742 384.129 147.742 354.581ZM96.0618 886.451C59.3922 886.451 29.5484 856.607 29.5484 819.938 29.5484 808.089 32.7248 796.432 38.7379 786.223L177.29 550.664 177.29 413.677 295.484 413.677 295.484 550.664 434.036 786.208C440.049 796.432 443.226 808.089 443.226 819.938 443.226 856.607 413.382 886.451 376.712 886.451L96.0618 886.451ZM458 886.451C454.144 886.451 450.317 885.993 446.461 885.786 462.728 868.575 472.774 845.423 472.774 819.938 472.774 802.829 468.179 785.987 459.522 771.242L370.847 620.516 522.282 620.516C509.429 647.656 502.322 677.766 502.322 709.161 502.322 766.972 526.227 819.258 564.596 856.829 532.506 876.228 496.029 886.451 458 886.451ZM709.161 886.451C611.4 886.451 531.871 806.922 531.871 709.161 531.871 637.388 574.686 573.15 640.978 545.507L650.064 541.71 650.064 413.677 768.258 413.677 768.258 541.71 777.344 545.507C843.636 573.15 886.451 637.388 886.451 709.161 886.451 806.922 806.922 886.451 709.161 886.451Z" fill="#FFFFFF" transform="matrix(1 0 0 1 4418 2490)"/><path d="M841.538 643.49 815.077 656.654C818.756 664.055 821.504 671.753 823.528 679.627L594.794 679.627C596.818 671.753 599.566 664.055 603.245 656.654L576.784 643.49C566.59 664.011 561.419 686.099 561.419 709.161 561.419 790.626 627.696 856.903 709.161 856.903 790.626 856.903 856.903 790.626 856.903 709.161 856.903 686.099 851.732 664.011 841.538 643.49ZM679.613 723.935C679.613 732.091 672.994 738.709 664.839 738.709 656.683 738.709 650.064 732.091 650.064 723.935 650.064 715.78 656.683 709.161 664.839 709.161 672.994 709.161 679.613 715.78 679.613 723.935ZM738.709 783.032C738.709 774.877 745.328 768.258 753.484 768.258 761.639 768.258 768.258 774.877 768.258 783.032 768.258 791.187 761.639 797.806 753.484 797.806 745.328 797.806 738.709 791.187 738.709 783.032ZM797.348 787.582C797.511 786.061 797.806 784.583 797.806 783.032 797.806 758.596 777.92 738.709 753.484 738.709 729.047 738.709 709.161 758.596 709.161 783.032 709.161 801.515 720.552 817.352 736.656 823.986 727.821 826.114 718.646 827.355 709.161 827.355 643.992 827.355 590.968 774.33 590.968 709.161L623.234 709.161C621.58 713.8 620.516 718.735 620.516 723.935 620.516 748.372 640.402 768.258 664.839 768.258 689.275 768.258 709.161 748.372 709.161 723.935 709.161 718.735 708.097 713.8 706.443 709.161L827.355 709.161C827.355 739.271 815.949 766.692 797.348 787.582Z" fill="#FFFFFF" transform="matrix(1 0 0 1 4418 2490)"/><path d="M315.281 642.574 289.796 657.555 302.782 679.613 170.021 679.613 182.993 657.555 157.508 642.574 64.2382 801.175C60.8697 806.818 59.0968 813.334 59.0968 819.938 59.0968 840.326 75.6734 856.903 96.0618 856.903L376.712 856.903C397.101 856.903 413.677 840.326 413.677 819.938 413.677 813.349 411.919 806.863 408.58 801.204L315.281 642.574ZM206.839 723.935C206.839 732.091 200.22 738.709 192.064 738.709 183.909 738.709 177.29 732.091 177.29 723.935 177.29 715.78 183.909 709.161 192.064 709.161 200.22 709.161 206.839 715.78 206.839 723.935ZM265.935 812.58C265.935 804.425 272.554 797.806 280.71 797.806 288.865 797.806 295.484 804.425 295.484 812.58 295.484 820.736 288.865 827.355 280.71 827.355 272.554 827.355 265.935 820.736 265.935 812.58ZM376.712 827.355 322.314 827.355C323.968 822.716 325.032 817.781 325.032 812.58 325.032 788.144 305.146 768.258 280.71 768.258 256.273 768.258 236.387 788.144 236.387 812.58 236.387 817.781 237.451 822.716 239.105 827.355L96.0618 827.355C91.9841 827.355 88.6451 824.016 88.6451 819.938 88.6451 818.623 88.9849 817.338 89.6793 816.185L148.525 716.134C148.082 718.676 147.742 721.261 147.742 723.935 147.742 748.372 167.628 768.258 192.064 768.258 216.501 768.258 236.387 748.372 236.387 723.935 236.387 718.735 235.323 713.8 233.669 709.161L320.157 709.161 383.124 816.2C383.789 817.323 384.129 818.608 384.129 819.938 384.129 824.016 380.79 827.355 376.712 827.355Z" fill="#FFFFFF" transform="matrix(1 0 0 1 4418 2490)"/><path d="M265.935 251.161C265.935 275.598 285.821 295.484 310.258 295.484 334.694 295.484 354.581 275.598 354.581 251.161 354.581 226.725 334.694 206.839 310.258 206.839 285.821 206.839 265.935 226.725 265.935 251.161ZM325.032 251.161C325.032 259.302 318.413 265.935 310.258 265.935 302.103 265.935 295.484 259.302 295.484 251.161 295.484 243.021 302.103 236.387 310.258 236.387 318.413 236.387 325.032 243.021 325.032 251.161Z" fill="#FFFFFF" transform="matrix(1 0 0 1 4418 2490)"/><path d="M812.58 118.194C837.017 118.194 856.903 98.3074 856.903 73.8709 856.903 49.4344 837.017 29.5484 812.58 29.5484 788.144 29.5484 768.258 49.4344 768.258 73.8709 768.258 98.3074 788.144 118.194 812.58 118.194ZM812.58 59.0968C820.736 59.0968 827.355 65.7304 827.355 73.8709 827.355 82.0115 820.736 88.6451 812.58 88.6451 804.425 88.6451 797.806 82.0115 797.806 73.8709 797.806 65.7304 804.425 59.0968 812.58 59.0968Z" fill="#FFFFFF" transform="matrix(1 0 0 1 4418 2490)"/><path d="M635.29 88.6451C659.727 88.6451 679.613 68.7591 679.613 44.3226 679.613 19.8861 659.727 0 635.29 0 610.854 0 590.968 19.8861 590.968 44.3226 590.968 68.7591 610.854 88.6451 635.29 88.6451ZM635.29 29.5484C643.445 29.5484 650.064 36.182 650.064 44.3226 650.064 52.4631 643.445 59.0968 635.29 59.0968 627.135 59.0968 620.516 52.4631 620.516 44.3226 620.516 36.182 627.135 29.5484 635.29 29.5484Z" fill="#FFFFFF" transform="matrix(1 0 0 1 4418 2490)"/><path d="M132.968 236.387C157.404 236.387 177.29 216.501 177.29 192.064 177.29 167.628 157.404 147.742 132.968 147.742 108.531 147.742 88.6451 167.628 88.6451 192.064 88.6451 216.501 108.531 236.387 132.968 236.387ZM132.968 177.29C141.123 177.29 147.742 183.924 147.742 192.064 147.742 200.205 141.123 206.839 132.968 206.839 124.812 206.839 118.194 200.205 118.194 192.064 118.194 183.924 124.812 177.29 132.968 177.29Z" fill="#FFFFFF" transform="matrix(1 0 0 1 4418 2490)"/><path d="M251.161 147.742C291.894 147.742 325.032 114.603 325.032 73.8709 325.032 33.1385 291.894 0 251.161 0 210.429 0 177.29 33.1385 177.29 73.8709 177.29 114.603 210.429 147.742 251.161 147.742ZM251.161 29.5484C275.598 29.5484 295.484 49.4344 295.484 73.8709 295.484 98.3074 275.598 118.194 251.161 118.194 226.725 118.194 206.839 98.3074 206.839 73.8709 206.839 49.4344 226.725 29.5484 251.161 29.5484Z" fill="#FFFFFF" transform="matrix(1 0 0 1 4418 2490)"/></g></svg>