<svg width="982" height="782" xmlns="http://www.w3.org/2000/svg" xmlns:xlink="http://www.w3.org/1999/xlink" overflow="hidden"><defs><clipPath id="clip0"><rect x="371" y="1403" width="982" height="782"/></clipPath></defs><g clip-path="url(#clip0)" transform="translate(-371 -1403)"><path d="M856.488 636.061C804.299 636.061 777.761 609.509 766.157 592.589 724.573 645.208 657.075 631.217 656.353 631.064 651.565 630.023 648.525 625.29 649.566 620.488 650.621 615.699 655.34 612.673 660.129 613.7 662.794 614.27 725.864 627.025 759.301 571.283 761.063 568.341 764.367 566.689 767.767 567.008 771.182 567.341 774.097 569.604 775.276 572.824 776.137 575.114 797.762 629.94 882.429 616.06 887.287 615.269 891.84 618.544 892.631 623.389 893.422 628.233 890.147 632.799 885.303 633.59 874.934 635.298 865.343 636.061 856.488 636.061" fill="#FFFFFF" transform="matrix(1.00096 0 0 1 105.671 1038.75)"/><path d="M770.543 521.635C712.303 521.635 664.931 571.256 664.931 632.258 664.931 693.246 712.303 742.867 770.543 742.867 828.784 742.867 876.156 693.246 876.156 632.258 876.156 571.256 828.784 521.635 770.543 521.635ZM770.543 760.619C702.504 760.619 647.165 703.045 647.165 632.258 647.165 561.47 702.504 503.869 770.543 503.869 838.583 503.869 893.922 561.47 893.922 632.258 893.922 703.045 838.583 760.619 770.543 760.619" fill="#FFFFFF" transform="matrix(1.00096 0 0 1 105.671 1038.75)"/><path d="M595.962 1128.42 945.125 1128.42 945.125 928.261C945.125 849.34 880.903 785.131 801.968 785.131L739.119 785.131C660.184 785.131 595.962 849.34 595.962 928.261ZM954.008 1146.19 587.079 1146.19C582.179 1146.19 578.196 1142.21 578.196 1137.31L578.196 928.261C578.196 839.541 650.385 767.365 739.119 767.365L801.968 767.365C890.702 767.365 962.891 839.541 962.891 928.261L962.891 1137.31C962.891 1142.21 958.908 1146.19 954.008 1146.19" fill="#FFFFFF" transform="matrix(1.00096 0 0 1 105.671 1038.75)"/><path d="M763.77 1026.86 736.926 975.758 761.758 865.288C763.229 866.287 764.964 866.828 766.768 866.828 768.309 866.828 769.78 866.398 771.085 865.663L793.195 979.644ZM766.768 815.445 781.259 830.338 766.768 845.217 752.278 830.338ZM811.295 979.686 786.269 850.644 800.01 836.529C803.369 833.073 803.369 827.576 800.01 824.134L773.139 796.513C769.794 793.071 763.742 793.071 760.397 796.513L733.526 824.134C730.167 827.576 730.167 833.073 733.526 836.529L746.92 850.297 718.882 975.05C718.411 977.104 718.702 979.256 719.674 981.116L755.248 1048.86C756.719 1051.68 759.606 1053.49 762.785 1053.61 762.896 1053.61 763.007 1053.61 763.118 1053.61 766.171 1053.61 769.017 1052.03 770.654 1049.43L810.115 986.085C811.309 984.183 811.725 981.893 811.295 979.686" fill="#FFFFFF" transform="matrix(1.00096 0 0 1 105.671 1038.75)"/><path d="M510.711 714.746C510.67 714.746 510.628 714.746 510.6 714.746 506.742 714.746 503.327 717.231 502.148 720.895L483.077 779.968 472.098 756.83 515.889 676.84 526.812 714.941ZM438.467 782.716 412.15 714.871C410.818 711.415 407.445 709.153 403.767 709.208L387.25 709.402 400.186 675.452 450.82 756.525C450.542 756.927 450.264 757.358 450.042 757.829ZM547.188 721.52 528.63 656.853C527.284 652.134 522.357 649.413 517.651 650.774 517.11 650.926 516.597 651.135 516.111 651.384 512.571 650.885 508.921 652.564 507.103 655.895L461.243 739.661 409.874 657.394C408.888 655.84 407.514 654.688 405.946 653.994 405.085 651.69 403.309 649.76 400.838 648.817 396.244 647.068 391.122 649.372 389.373 653.952L365.986 715.288C364.945 718.036 365.319 721.117 367.013 723.532 368.692 725.947 371.482 727.432 374.397 727.335L397.826 727.044 429.445 808.588C430.735 811.892 433.872 814.126 437.439 814.237 437.537 814.251 437.634 814.251 437.731 814.251 441.173 814.251 444.324 812.253 445.781 809.116L461.354 775.624 476.622 807.839C478.094 810.948 481.231 812.905 484.645 812.905 484.839 812.905 485.034 812.891 485.228 812.891 488.864 812.641 491.987 810.212 493.098 806.756L517.041 732.596 538.541 732.859C541.358 732.943 543.995 731.596 545.703 729.362 547.41 727.127 547.951 724.226 547.188 721.52" fill="#FFFFFF" transform="matrix(1.00096 0 0 1 105.671 1038.75)"/><path d="M570.173 528.589C569.229 528.589 568.285 528.436 567.355 528.131 539.304 518.776 524.702 491.821 518.012 474.582 453.637 535.043 348.094 515.805 343.375 514.903 338.559 513.987 335.408 509.337 336.31 504.521 337.226 499.705 341.876 496.526 346.693 497.456 347.817 497.664 459.328 517.86 515.139 451.833 517.318 449.265 520.788 448.141 524.064 448.946 527.34 449.765 529.866 452.36 530.601 455.664 530.699 456.094 541.011 500.621 572.977 511.281 577.627 512.821 580.139 517.86 578.598 522.509 577.349 526.229 573.879 528.589 570.173 528.589" fill="#FFFFFF" transform="matrix(1.00096 0 0 1 105.671 1038.75)"/><path d="M581.999 1023.31 273.781 1023.31C268.868 1023.31 264.898 1019.34 264.898 1014.43L264.898 805.382C264.898 716.662 337.088 644.486 425.808 644.486L488.67 644.486C577.391 644.486 649.58 716.662 649.58 805.382L649.58 807.603C649.58 812.516 645.61 816.486 640.697 816.486 635.797 816.486 631.814 812.516 631.814 807.603L631.814 805.382C631.814 726.461 567.605 662.252 488.67 662.252L425.808 662.252C346.873 662.252 282.664 726.461 282.664 805.382L282.664 1005.54 581.999 1005.54C586.898 1005.54 590.882 1009.53 590.882 1014.43 590.882 1019.34 586.898 1023.31 581.999 1023.31" fill="#FFFFFF" transform="matrix(1.00096 0 0 1 105.671 1038.75)"/><path d="M457.246 398.77C399.006 398.77 351.62 448.391 351.62 509.379 351.62 570.367 399.006 619.988 457.246 619.988 515.486 619.988 562.858 570.367 562.858 509.379 562.858 448.391 515.486 398.77 457.246 398.77ZM457.246 637.754C389.207 637.754 333.854 580.167 333.854 509.379 333.854 438.591 389.207 381.004 457.246 381.004 525.271 381.004 580.625 438.591 580.625 509.379 580.625 580.167 525.271 637.754 457.246 637.754" fill="#FFFFFF" transform="matrix(1.00096 0 0 1 105.671 1038.75)"/><path d="M1069.48 382.419C1052.57 382.419 1038.81 392.691 1038.81 405.321 1038.81 417.938 1052.57 428.209 1069.48 428.209 1086.38 428.209 1100.12 417.938 1100.12 405.321 1100.12 392.691 1086.38 382.419 1069.48 382.419ZM1069.48 445.976C1042.77 445.976 1021.05 427.737 1021.05 405.321 1021.05 382.891 1042.77 364.653 1069.48 364.653 1096.18 364.653 1117.89 382.891 1117.89 405.321 1117.89 427.737 1096.18 445.976 1069.48 445.976" fill="#FFFFFF" transform="matrix(1.00096 0 0 1 105.671 1038.75)"/><path d="M1146.86 551.393C1099.04 551.393 1074.35 527.423 1063.26 511.628 1024.5 559.805 962.239 546.91 961.573 546.758 956.77 545.717 953.744 540.984 954.785 536.195 955.826 531.406 960.546 528.367 965.348 529.408 967.902 529.949 1025.73 541.553 1056.37 490.475 1058.14 487.532 1061.44 485.866 1064.84 486.2 1068.25 486.519 1071.17 488.781 1072.35 492.001 1073.13 494.097 1092.99 544.329 1170.74 531.573 1175.59 530.782 1180.15 534.057 1180.94 538.902 1181.74 543.746 1178.46 548.312 1173.62 549.103 1163.98 550.686 1155.07 551.393 1146.86 551.393" fill="#FFFFFF" transform="matrix(1.00096 0 0 1 105.671 1038.75)"/><path d="M1067.35 445.545C1013.84 445.545 970.303 491.155 970.303 547.216 970.303 603.263 1013.84 648.872 1067.35 648.872 1120.86 648.872 1164.39 603.263 1164.39 547.216 1164.39 491.155 1120.86 445.545 1067.35 445.545ZM1067.35 666.638C1004.05 666.638 952.537 613.062 952.537 547.216 952.537 481.355 1004.05 427.779 1067.35 427.779 1130.66 427.779 1182.15 481.355 1182.15 547.216 1182.15 613.062 1130.66 666.638 1067.35 666.638" fill="#FFFFFF" transform="matrix(1.00096 0 0 1 105.671 1038.75)"/><path d="M1102.36 772.57 1078.47 747.308 1140.55 698.534 1142.07 699.464ZM1028.32 771.723 995.232 697.466 999.284 695.953 1052.75 745.643ZM1158.54 688.721 1144.57 680.157C1141.4 678.214 1137.35 678.45 1134.43 680.74L1066.46 734.136 1007.36 679.2C1004.89 676.91 1001.34 676.202 998.188 677.381L980.158 684.141C977.868 685.002 976.036 686.778 975.078 689.027 974.134 691.289 974.162 693.843 975.161 696.078L1017.54 791.183C1018.74 793.917 1021.24 795.847 1024.17 796.332 1024.67 796.416 1025.16 796.457 1025.64 796.457 1028.09 796.457 1030.44 795.458 1032.14 793.64L1064.83 758.732 1097.86 793.667C1099.55 795.458 1101.88 796.457 1104.31 796.457 1104.69 796.457 1105.08 796.443 1105.47 796.388 1108.28 796.013 1110.75 794.32 1112.11 791.821L1161.71 700.533C1163.96 696.383 1162.57 691.192 1158.54 688.721" fill="#FFFFFF" transform="matrix(1.00096 0 0 1 105.671 1038.75)"/><path d="M1237.06 1023.31 955.16 1023.31C950.261 1023.31 946.277 1019.34 946.277 1014.43 946.277 1009.53 950.261 1005.54 955.16 1005.54L1228.18 1005.54 1228.18 821.052C1228.18 748.405 1169.08 689.29 1096.42 689.29L1038.27 689.29C967.999 689.29 911.674 740.355 907.247 808.061 906.927 812.961 902.736 816.666 897.795 816.347 892.895 816.028 889.189 811.808 889.508 806.909 894.56 729.723 958.505 671.524 1038.27 671.524L1096.42 671.524C1178.86 671.524 1245.94 738.606 1245.94 821.052L1245.94 1014.43C1245.94 1019.34 1241.97 1023.31 1237.06 1023.31" fill="#FFFFFF" transform="matrix(1.00096 0 0 1 105.671 1038.75)"/></g></svg>