<svg width="817" height="817" xmlns="http://www.w3.org/2000/svg" xmlns:xlink="http://www.w3.org/1999/xlink" overflow="hidden"><defs><clipPath id="clip0"><rect x="5535" y="423" width="817" height="817"/></clipPath></defs><g clip-path="url(#clip0)" transform="translate(-5535 -423)"><path d="M5679.95 791.968C5701.75 791.968 5719.48 774.231 5719.48 752.436 5719.48 730.64 5701.75 712.903 5679.95 712.903 5658.16 712.903 5640.42 730.64 5640.42 752.436 5640.42 774.231 5658.16 791.968 5679.95 791.968ZM5679.95 739.258C5687.23 739.258 5693.13 745.162 5693.13 752.436 5693.13 759.709 5687.23 765.613 5679.95 765.613 5672.68 765.613 5666.77 759.709 5666.77 752.436 5666.77 745.162 5672.68 739.258 5679.95 739.258Z" fill="#FFFFFF"/><path d="M5838.08 791.968C5859.88 791.968 5877.61 774.231 5877.61 752.436 5877.61 730.64 5859.88 712.903 5838.08 712.903 5816.29 712.903 5798.55 730.64 5798.55 752.436 5798.55 774.231 5816.29 791.968 5838.08 791.968ZM5838.08 739.258C5845.35 739.258 5851.26 745.162 5851.26 752.436 5851.26 759.709 5845.35 765.613 5838.08 765.613 5830.81 765.613 5824.9 759.709 5824.9 752.436 5824.9 745.162 5830.81 739.258 5838.08 739.258Z" fill="#FFFFFF"/><path d="M5697.12 849.052C5704.24 877.516 5729.68 897.387 5759.02 897.387 5788.35 897.387 5813.79 877.516 5820.91 849.052L5828.61 818.323 5689.43 818.323 5697.12 849.052ZM5794.79 844.677C5789.96 860.306 5775.53 871.032 5759.02 871.032 5742.5 871.032 5728.08 860.306 5723.24 844.677L5794.79 844.677Z" fill="#FFFFFF"/><path d="M6141.16 660.194 6325.65 660.194C6340.18 660.194 6352 648.373 6352 633.839L6352 449.355C6352 434.82 6340.18 423 6325.65 423L6141.16 423C6126.63 423 6114.81 434.82 6114.81 449.355L6114.81 475.71 6088.45 475.71C6073.92 475.71 6062.1 487.53 6062.1 502.065L6062.1 633.839 5983.03 633.839C5983.03 619.304 5971.21 607.484 5956.68 607.484L5955.75 607.484 5955.65 606.114C5948.34 503.435 5861.96 423 5759.02 423 5656.07 423 5569.7 503.435 5562.37 606.114L5562.28 607.484 5561.35 607.484C5546.82 607.484 5535 619.304 5535 633.839L5535 660.194C5535 674.728 5546.82 686.548 5561.35 686.548L5587.71 686.548 5587.71 712.903C5558.64 712.903 5535 736.544 5535 765.613 5535 794.682 5558.64 818.323 5587.71 818.323L5592.49 818.323C5595.39 830.525 5599.61 842.187 5604.96 853.23L5554.02 904.173 5573.11 923.268C5577.55 927.708 5578.88 934.337 5576.34 940.49 5573.95 946.328 5568.31 950.097 5562 950.097L5535 950.097 5535 1081.87 5562.17 1081.87C5568.39 1081.87 5573.94 1085.59 5576.56 1092 5578.92 1097.72 5577.62 1104.22 5573.24 1108.59L5554.03 1127.81 5647.21 1220.98 5666.3 1201.89C5670.74 1197.44 5677.38 1196.12 5683.52 1198.66 5689.36 1201.05 5693.13 1206.69 5693.13 1213L5693.13 1240 5824.9 1240 5824.9 1212.83C5824.9 1206.61 5828.62 1201.06 5834.87 1198.49 5840.68 1196.12 5847.3 1197.45 5851.73 1201.88L5870.83 1220.97 5964 1127.79 5944.91 1108.7C5940.47 1104.26 5939.14 1097.63 5941.73 1091.35 5944.11 1085.59 5949.65 1081.87 5955.86 1081.87L5983.03 1081.87 5983.03 976.452 6062.1 976.452 6062.1 1108.23C6062.1 1122.76 6073.92 1134.58 6088.45 1134.58L6114.81 1134.58 6114.81 1213.65C6114.81 1228.18 6126.63 1240 6141.16 1240L6325.65 1240C6340.18 1240 6352 1228.18 6352 1213.65L6352 1029.16C6352 1014.63 6340.18 1002.81 6325.65 1002.81L6141.16 1002.81C6126.63 1002.81 6114.81 1014.63 6114.81 1029.16L6114.81 1108.23 6088.45 1108.23 6088.45 976.452C6088.45 961.917 6076.63 950.097 6062.1 950.097L5983.03 950.097 5969.85 950.097 5955.86 950.097C5949.64 950.097 5944.09 946.394 5941.47 939.963 5939.11 934.244 5940.42 927.748 5944.79 923.373L5964 904.16 5913.06 853.216C5918.41 842.174 5922.63 830.512 5925.53 818.323L5930.32 818.323 6114.81 818.323 6114.81 923.742C6114.81 938.277 6126.63 950.097 6141.16 950.097L6325.65 950.097C6340.18 950.097 6352 938.277 6352 923.742L6352 739.258C6352 724.723 6340.18 712.903 6325.65 712.903L6141.16 712.903C6126.63 712.903 6114.81 724.723 6114.81 739.258L6114.81 791.968 5975.71 791.968C5980.24 784.18 5983.03 775.259 5983.03 765.613 5983.03 736.544 5959.39 712.903 5930.32 712.903L5930.32 686.548 5956.68 686.548C5971.21 686.548 5983.03 674.728 5983.03 660.194L6062.1 660.194C6076.63 660.194 6088.45 648.373 6088.45 633.839L6088.45 502.065 6114.81 502.065 6114.81 633.839C6114.81 648.373 6126.63 660.194 6141.16 660.194ZM6207.05 1029.16 6259.76 1029.16 6259.76 1081.87 6207.05 1081.87 6207.05 1029.16ZM6141.16 1029.16 6180.69 1029.16 6180.69 1081.87C6180.69 1096.41 6192.51 1108.23 6207.05 1108.23L6259.76 1108.23C6274.29 1108.23 6286.11 1096.41 6286.11 1081.87L6286.11 1029.16 6325.65 1029.16 6325.65 1213.65 6141.16 1213.65 6141.13 1029.16 6141.16 1029.16ZM6207.05 739.258 6259.76 739.258 6259.76 791.968 6207.05 791.968 6207.05 739.258ZM6141.16 739.258 6180.69 739.258 6180.69 791.968C6180.69 806.502 6192.51 818.323 6207.05 818.323L6259.76 818.323C6274.29 818.323 6286.11 806.502 6286.11 791.968L6286.11 739.258 6325.65 739.258 6325.65 923.742 6141.16 923.742 6141.13 739.258 6141.16 739.258ZM5929.32 607.484 5903.97 607.484 5903.97 554.774 5877.61 554.774 5877.61 607.484 5851.26 607.484 5851.26 528.419 5824.9 528.419 5824.9 607.484 5798.55 607.484 5798.55 454.217C5869.19 471.19 5923.72 532.333 5929.32 607.484ZM5772.19 450.001 5772.19 607.484 5745.84 607.484 5745.84 450.001C5750.2 449.658 5754.58 449.355 5759.02 449.355 5763.46 449.355 5767.83 449.658 5772.19 450.001ZM5719.48 454.217 5719.48 607.484 5693.13 607.484 5693.13 528.419 5666.77 528.419 5666.77 607.484 5640.42 607.484 5640.42 554.774 5614.06 554.774 5614.06 607.484 5588.71 607.484C5594.31 532.333 5648.84 471.19 5719.48 454.217ZM5587.71 791.968C5573.17 791.968 5561.35 780.148 5561.35 765.613 5561.35 751.078 5573.17 739.258 5587.71 739.258L5587.71 778.79C5587.71 783.244 5588.04 787.606 5588.38 791.968L5587.71 791.968ZM5926.75 904.173 5926.18 904.74C5914.25 916.652 5910.69 934.429 5917.38 950.65 5923.8 966.318 5938.9 976.452 5955.86 976.452L5956.68 976.452 5956.68 1055.52 5955.86 1055.52C5938.91 1055.52 5923.8 1065.65 5917.15 1081.82 5910.7 1097.47 5914.29 1115.35 5926.26 1127.33L5926.73 1127.79 5870.81 1183.71 5870.35 1183.24C5858.36 1171.25 5840.45 1167.68 5824.32 1174.32 5808.68 1180.78 5798.55 1195.88 5798.55 1212.83L5798.55 1213.65 5719.48 1213.65 5719.48 1213C5719.48 1195.95 5709.3 1180.74 5693.18 1174.13 5677.53 1167.68 5659.65 1171.25 5647.67 1183.24L5647.21 1183.71 5591.29 1127.79 5591.86 1127.23C5603.8 1115.32 5607.36 1097.54 5600.68 1081.3 5594.22 1065.65 5579.12 1055.52 5562.17 1055.52L5561.35 1055.52 5561.35 976.452 5562 976.452C5579.05 976.452 5594.26 966.266 5600.87 950.15 5607.32 934.495 5603.73 916.613 5591.75 904.635L5591.29 904.173 5618.7 876.764C5628.86 891.26 5641.24 904.055 5655.28 914.794 5628.93 941.742 5614.06 977.769 5614.06 1015.98 5614.06 1095.9 5679.1 1160.94 5759.02 1160.94 5838.94 1160.94 5903.97 1095.9 5903.97 1015.98 5903.97 977.769 5889.1 941.742 5862.76 914.794 5876.81 904.055 5889.18 891.26 5899.34 876.764L5926.75 904.173ZM5840.08 929.645C5857.11 945.616 5868.93 965.883 5874.28 988.232 5860.18 974.844 5842.06 966.12 5822.16 963.867L5816.21 940.069C5824.44 937.143 5832.47 933.744 5840.08 929.645ZM5702.31 989.932 5745.84 1022.57 5745.84 1055.52 5693.13 1055.52 5693.13 991.131C5696.13 990.512 5699.19 990.117 5702.31 989.932ZM5815.72 989.932C5818.84 990.117 5821.9 990.512 5824.9 991.131L5824.9 1055.52 5772.19 1055.52 5772.19 1022.57 5815.72 989.932ZM5666.77 1090.37C5654.95 1075.74 5646.52 1058.27 5642.73 1039.14L5646.27 1030.28C5650.66 1019.28 5657.88 1010.15 5666.77 1003.25L5666.77 1090.37ZM5693.13 1081.87 5745.84 1081.87 5745.84 1133.8C5726.49 1131.66 5708.53 1124.87 5693.13 1114.52L5693.13 1081.87ZM5772.19 1081.87 5824.9 1081.87 5824.9 1114.52C5809.5 1124.86 5791.54 1131.66 5772.19 1133.8L5772.19 1081.87ZM5851.26 1003.25C5860.15 1010.15 5867.37 1019.28 5871.78 1030.28L5875.32 1039.14C5871.51 1058.27 5863.09 1075.73 5851.27 1090.37L5851.27 1003.25ZM5790.79 947.026 5796.82 971.167 5759.02 999.512 5721.21 971.154 5727.25 947.013C5737.55 948.964 5748.14 950.097 5759.02 950.097 5769.89 950.097 5780.48 948.964 5790.79 947.026ZM5695.87 963.867C5675.97 966.12 5657.84 974.857 5643.75 988.245 5649.1 965.896 5660.94 945.616 5677.96 929.645 5685.56 933.757 5693.59 937.143 5701.84 940.069L5695.87 963.867ZM5956.68 765.613C5956.68 780.148 5944.86 791.968 5930.32 791.968L5929.65 791.968C5929.99 787.606 5930.32 783.244 5930.32 778.79L5930.32 739.258C5944.86 739.258 5956.68 751.078 5956.68 765.613ZM5903.97 778.79C5903.97 858.711 5838.94 923.742 5759.02 923.742 5679.1 923.742 5614.06 858.711 5614.06 778.79L5614.06 686.548 5903.97 686.548 5903.97 778.79ZM5561.35 660.194 5561.35 633.839 5956.68 633.839 5956.7 660.194 5561.35 660.194ZM6207.05 449.355 6259.76 449.355 6259.76 502.065 6207.05 502.065 6207.05 449.355ZM6141.16 449.355 6180.69 449.355 6180.69 502.065C6180.69 516.599 6192.51 528.419 6207.05 528.419L6259.76 528.419C6274.29 528.419 6286.11 516.599 6286.11 502.065L6286.11 449.355 6325.65 449.355 6325.65 633.839 6141.16 633.839 6141.13 449.355 6141.16 449.355Z" fill="#FFFFFF"/></g></svg>