<svg width="649" height="732" xmlns="http://www.w3.org/2000/svg" xmlns:xlink="http://www.w3.org/1999/xlink" overflow="hidden"><defs><clipPath id="clip0"><rect x="160" y="2401" width="649" height="732"/></clipPath></defs><g clip-path="url(#clip0)" transform="translate(-160 -2401)"><path d="M463.724 590.548 446.783 607.488 491.195 651.899 595.508 547.586 578.567 530.646 491.195 618.019Z" fill="#FFFFFF" transform="matrix(1.00154 0 0 1 160.531 2401)"/><path d="M634.959 431.293 646.939 431.293 646.939 311.489 604.157 311.489C597.388 311.489 591.446 306.925 589.565 299.82 587.816 293.243 590.703 286.271 596.598 282.868L633.545 261.531 573.643 157.781 536.624 179.142C530.718 182.557 523.218 181.562 518.102 176.447 513.274 171.619 512.292 164.119 515.706 158.213L537.067 121.205 433.318 61.3035 411.981 98.2509C408.578 104.157 401.606 107.033 394.465 105.152 387.936 103.402 383.371 97.4722 383.371 90.7033L383.371 47.9214 275.548 47.9214 275.548 83.8625C275.548 86.4263 274.566 88.6666 273.2 90.6074 262.526 38.9481 216.689 0 161.915 0L125.626 0C62.9568 0 11.9804 50.9764 11.9804 113.634 11.9804 143.98 23.805 172.517 45.2618 193.986L49.7664 198.491 13.394 261.531 50.3415 282.868C56.2358 286.271 59.135 293.243 57.2302 300.383 55.481 306.925 49.5508 311.489 42.7819 311.489L0 311.489 0 431.293 42.7819 431.293C49.5508 431.293 55.493 435.857 57.3739 442.962 59.1231 449.539 56.2358 456.512 50.3415 459.914L13.394 481.251 73.2958 585.001 110.315 563.64C116.197 560.214 123.709 561.196 128.837 566.335 133.665 571.164 134.647 578.663 131.233 584.57L109.86 621.577 213.61 681.479 234.995 644.423C238.361 638.601 245.25 635.702 252.342 637.607 258.955 639.356 263.568 645.358 263.568 652.199L263.568 694.861 383.371 694.861 383.371 679.011 515.155 731.724 646.939 679.011 646.939 495.064 599.018 475.896 599.018 467.234C599.018 447.418 615.143 431.293 634.959 431.293ZM525.399 446.448 515.155 442.351 467.234 461.519 467.234 251.587C467.234 238.373 456.488 227.627 443.273 227.627L208.626 227.627 242.267 193.986C251.072 185.18 258.153 175.141 263.568 164.311 282.964 158.716 303.079 155.745 323.47 155.745 442.375 155.745 539.116 252.486 539.116 371.391 539.116 397.329 534.324 422.463 525.399 446.448ZM107.823 119.804 95.8429 119.804C89.2417 119.804 83.8625 114.436 83.8625 107.823 83.8625 101.21 89.2417 95.8429 95.8429 95.8429 102.444 95.8429 107.823 101.21 107.823 107.823L107.823 119.804ZM155.745 215.646 131.784 215.646 131.784 143.764 155.745 143.764 155.745 215.646ZM179.705 239.607 179.705 251.587C179.705 271.403 163.58 287.529 143.764 287.529 123.949 287.529 107.823 271.403 107.823 251.587L107.823 239.607 179.705 239.607ZM118.246 305.571C126.021 309.261 134.611 311.489 143.764 311.489 157.302 311.489 169.666 306.805 179.705 299.197L179.705 491.195C179.705 504.409 190.452 515.155 203.666 515.155L383.371 515.155 383.371 578.424C363.963 584.042 343.884 587.037 323.47 587.037 204.565 587.037 107.823 490.296 107.823 371.391 107.823 348.808 111.453 326.764 118.246 305.571ZM393.052 491.195 203.666 491.195 203.666 251.587 251.587 251.587 251.587 275.548C251.587 288.763 262.334 299.509 275.548 299.509L371.391 299.509C384.605 299.509 395.352 288.763 395.352 275.548L395.352 251.587 443.273 251.587 443.273 471.104 393.052 491.195ZM371.391 251.587 371.391 275.548 335.45 275.548 335.45 251.587 371.391 251.587ZM311.489 275.548 275.548 275.548 275.548 251.587 311.489 251.587 311.489 275.548ZM35.9411 113.634C35.9411 64.1788 76.1711 23.9607 125.614 23.9607L161.903 23.9607C211.357 23.9607 251.587 64.1788 251.587 113.634 251.587 137.582 242.255 160.105 225.327 177.046L186.726 215.646 179.705 215.646 179.705 143.764 191.686 143.764C211.501 143.764 227.627 127.639 227.627 107.823 227.627 88.0077 211.501 71.8821 191.686 71.8821 171.87 71.8821 155.745 88.0077 155.745 107.823L155.745 119.804 131.784 119.804 131.784 107.823C131.784 88.0077 115.658 71.8821 95.8429 71.8821 76.0274 71.8821 59.9018 88.0077 59.9018 107.823 59.9018 127.639 76.0274 143.764 95.8429 143.764L107.823 143.764 107.823 215.646 100.803 215.646 62.202 177.046C45.2738 160.105 35.9411 137.582 35.9411 113.634ZM179.705 119.804 179.705 107.823C179.705 101.21 185.085 95.8429 191.686 95.8429 198.287 95.8429 203.666 101.21 203.666 107.823 203.666 114.436 198.287 119.804 191.686 119.804L179.705 119.804ZM359.411 658.92 359.411 670.9 287.529 670.9 287.529 652.199C287.529 634.504 275.596 618.989 257.961 614.305 241.033 609.764 223.026 617.24 214.245 632.443L204.828 648.736 142.59 612.795 151.971 596.55C160.788 581.263 158.237 561.867 145.465 549.096 132.982 536.6 113.586 534.06 98.3108 542.878L82.0654 552.271 46.1244 490.033 62.3338 480.676C77.5968 471.87 85.0845 453.828 80.4002 436.229 75.8476 419.205 60.393 407.332 42.7819 407.332L23.9607 407.332 23.9607 335.45 42.7819 335.45C60.393 335.45 75.8476 323.577 80.532 306.002 85.0725 288.966 77.5848 270.924 62.3218 262.118L46.1124 252.762 67.3176 216.042 83.8625 232.587 83.8625 251.587C83.8625 266.323 89.4094 279.645 98.2629 290.092 88.8583 316.126 83.8625 343.405 83.8625 371.391 83.8625 503.51 191.35 610.998 323.47 610.998 343.812 610.998 363.879 608.363 383.371 603.343L383.371 625.183C369.462 630.143 359.411 643.321 359.411 658.92ZM622.979 662.789 515.155 705.919 407.332 662.789 407.332 511.286 515.155 468.156 622.979 511.286 622.979 662.789ZM547.622 455.337C557.686 428.525 563.077 400.408 563.077 371.391 563.077 239.272 455.589 131.784 323.47 131.784 306.422 131.784 289.553 133.689 273.056 137.223 274.398 130.837 275.129 124.296 275.357 117.659 289.374 112.747 299.509 99.5328 299.509 83.8625L299.509 71.8821 359.411 71.8821 359.411 90.7033C359.411 108.302 371.295 123.757 388.858 128.453 405.918 132.958 423.937 125.482 432.742 110.231L442.087 94.0338 504.337 129.975 494.956 146.22C486.139 161.507 488.691 180.903 501.462 193.674 513.945 206.158 533.33 208.71 548.617 199.892L564.874 190.512 600.815 252.75 584.606 262.106C569.343 270.912 561.855 288.954 566.539 306.553 571.092 323.577 586.546 335.45 604.157 335.45L622.979 335.45 622.979 408.542C595.963 414.053 575.56 437.822 575.141 466.347L547.622 455.337Z" fill="#FFFFFF" transform="matrix(1.00154 0 0 1 160.531 2401)"/><path d="M227.627 443.273 251.587 443.273 251.587 467.234 227.627 467.234Z" fill="#FFFFFF" transform="matrix(1.00154 0 0 1 160.531 2401)"/><path d="M275.548 443.273 299.509 443.273 299.509 467.234 275.548 467.234Z" fill="#FFFFFF" transform="matrix(1.00154 0 0 1 160.531 2401)"/></g></svg>