<svg width="927" height="853" xmlns="http://www.w3.org/2000/svg" xmlns:xlink="http://www.w3.org/1999/xlink" overflow="hidden"><defs><clipPath id="clip0"><rect x="3247" y="2340" width="927" height="853"/></clipPath></defs><g clip-path="url(#clip0)" transform="translate(-3247 -2340)"><path d="M68.5489 680.165C87.6016 680.165 103.103 664.458 103.103 645.155 103.103 625.852 87.6016 610.145 68.5489 610.145 49.4961 610.145 33.995 625.852 33.995 645.155 33.995 664.458 49.4961 680.165 68.5489 680.165ZM68.5489 624.859C79.4908 624.859 88.3958 633.963 88.3958 645.162 88.3958 656.362 79.4981 665.465 68.5489 665.465 57.5996 665.465 48.7019 656.362 48.7019 645.162 48.7019 633.963 57.5996 624.859 68.5489 624.859Z" fill="#FFFFFF" transform="matrix(1.0005 0 0 1 3247 2340)"/><path d="M109.346 783.863C124.648 783.863 137.098 771.259 137.098 755.773 137.098 740.286 124.648 727.683 109.346 727.683 94.0433 727.683 81.5939 740.286 81.5939 755.773 81.5939 771.259 94.0433 783.863 109.346 783.863ZM109.346 742.39C116.537 742.39 122.391 748.39 122.391 755.773 122.391 763.156 116.537 769.156 109.346 769.156 102.154 769.156 96.3008 763.156 96.3008 755.773 96.3008 748.39 102.154 742.39 109.346 742.39Z" fill="#FFFFFF" transform="matrix(1.0005 0 0 1 3247 2340)"/><path d="M919.181 603.931 894.819 603.931 894.819 490.916C902.776 487.438 908.526 478.114 908.526 467.062 908.526 453.068 899.349 441.678 888.076 441.678L770.2 441.678C758.92 441.678 749.75 453.061 749.75 467.062 749.75 479.232 756.692 489.409 765.921 491.865L765.921 603.931 704.497 603.931 704.497 491.387C713.086 488.379 719.439 478.673 719.439 467.062 719.439 462.069 718.233 457.443 716.219 453.509L716.219 119.369C716.219 115.309 712.924 112.015 708.865 112.015L666.112 112.015C662.053 112.015 658.759 115.309 658.759 119.369L658.759 254.584 608.182 254.584 608.182 251.753C608.182 247.694 604.887 244.399 600.828 244.399L571.547 244.399 571.547 207.154C583.812 203.999 592.923 193.285 592.923 180.468 592.923 165.181 580.033 152.746 564.193 152.746L457.311 152.746C441.472 152.746 428.581 165.181 428.581 180.468 428.581 193.285 437.692 203.999 449.958 207.154L449.958 244.399 414.558 244.399C410.499 244.399 407.205 247.694 407.205 251.753L407.205 254.584 371.805 254.584C367.746 254.584 364.452 257.878 364.452 261.937L364.452 302.675C364.452 306.734 367.746 310.029 371.805 310.029L407.205 310.029 407.205 312.86C407.205 316.919 410.499 320.213 414.558 320.213L449.958 320.213 449.958 381.659 404.146 441.678 392.02 441.678C380.747 441.678 371.57 453.061 371.57 467.062 371.57 471.93 372.739 476.445 374.658 480.313L365.65 492.137C360.496 499.998 352.098 516.352 353.782 537.486 354.738 549.457 358.848 561.23 365.672 571.517 367.04 573.569 369.334 574.804 371.798 574.804L385.277 574.804 385.277 603.924 360.915 603.924C356.856 603.924 353.561 607.218 353.561 611.278L353.561 620.506C349.657 618.374 345.259 617.057 340.516 617.057L131.208 617.057C127.7 609.035 122.773 601.792 116.699 595.703L116.699 486.034C116.699 471.091 128.649 458.929 143.348 458.929L165.563 458.929 215.927 535.743C216.236 536.214 216.691 536.537 217.089 536.919 217.361 537.184 217.544 537.508 217.868 537.736L217.956 537.795C217.964 537.802 217.971 537.802 217.978 537.809L251.973 561.576C253.238 562.465 254.709 562.907 256.187 562.907 257.628 562.907 259.069 562.487 260.312 561.642L324.258 518.293C326.721 516.624 327.934 513.631 327.331 510.719L318.838 469.687C318.838 469.68 318.831 469.672 318.831 469.665L318.801 469.54C318.728 469.172 318.5 468.893 318.375 468.547 318.184 468.025 318.066 467.481 317.75 466.996L185.528 265.349C185.528 265.349 185.528 265.349 185.528 265.349 185.528 265.349 185.528 265.349 185.528 265.349L168.541 239.436C167.46 237.789 165.769 236.641 163.835 236.259 161.901 235.869 159.893 236.274 158.268 237.384L132.472 254.871 117.118 231.479C118.486 229.141 118.56 226.155 116.971 223.743L94.5359 189.609C93.455 187.962 91.7563 186.814 89.815 186.432 87.8737 186.05 85.8736 186.461 84.2411 187.572L51.9374 209.625C48.6284 211.89 47.7386 216.383 49.9373 219.736L72.3653 253.87C73.4463 255.518 75.1523 256.665 77.0862 257.047 77.5568 257.143 78.0348 257.187 78.5128 257.187 78.7996 257.187 79.0716 257.091 79.3511 257.062L94.7124 280.461 68.7327 298.072C65.4089 300.322 64.5045 304.83 66.7105 308.19L101.838 361.76C56.1583 366.511 20.3985 405.807 20.3985 453.428L20.3985 595.718C7.81672 608.329 0 625.83 0 645.155 0 664.48 7.81672 681.981 20.3985 694.607L20.3985 797.938C8.67707 801.225 0 812.012 0 824.91 0 840.396 12.4494 853 27.7519 853L340.524 853C345.642 853 350.385 851.493 354.502 849.037 355.738 851.36 358.106 853 360.922 853L919.181 853C923.24 853 926.535 849.706 926.535 845.647L926.535 611.285C926.535 607.226 923.24 603.931 919.181 603.931ZM770.2 456.384 888.076 456.384C890.363 456.384 893.819 460.642 893.819 467.062 893.819 473.481 890.363 477.739 888.076 477.739L770.2 477.739C767.913 477.739 764.457 473.481 764.457 467.062 764.457 460.642 767.913 456.384 770.2 456.384ZM780.628 492.446 880.112 492.446 880.112 603.931 780.628 603.931 780.628 492.446ZM780.628 662.847 880.112 662.847 880.112 727.903C880.112 754.604 857.795 776.326 830.366 776.326 802.938 776.326 780.628 754.604 780.628 727.903L780.628 662.847ZM880.112 648.14 780.628 648.14 780.628 618.638 880.112 618.638 880.112 648.14ZM590.306 695.93 689.79 695.93 689.79 727.903C689.79 754.604 667.48 776.326 640.052 776.326 612.623 776.326 590.306 754.604 590.306 727.903L590.306 695.93ZM689.79 681.224 590.306 681.224 590.306 618.638 689.79 618.638 689.79 681.224ZM590.306 603.931 590.306 492.446 689.79 492.446 689.79 603.931 590.306 603.931ZM399.991 492.446 499.476 492.446 499.476 530.728 399.991 530.728 399.991 492.446ZM575.599 500.174 575.599 560.105 514.175 560.105 514.175 500.174 575.599 500.174ZM514.183 574.812 575.606 574.812 575.606 603.931 514.183 603.931 514.183 574.812ZM698.99 477.739 581.114 477.739C578.827 477.739 575.371 473.481 575.371 467.062 575.371 460.642 578.827 456.384 581.114 456.384L698.99 456.384C701.276 456.384 704.733 460.642 704.733 467.062 704.733 473.481 701.276 477.739 698.99 477.739ZM571.547 320.221 600.828 320.221C604.887 320.221 608.182 316.926 608.182 312.867L608.182 310.036 658.759 310.036 658.759 441.685 617.359 441.685 571.547 381.666 571.547 320.221ZM673.466 126.729 701.512 126.729 701.512 442.001C700.674 441.869 699.85 441.685 698.99 441.685L673.466 441.685 673.466 302.683 673.466 261.945 673.466 126.729ZM658.759 269.298 658.759 295.329 608.182 295.329 608.182 269.298 658.759 269.298ZM443.288 180.476C443.288 173.299 449.575 167.46 457.311 167.46L564.193 167.46C571.929 167.46 578.216 173.299 578.216 180.476 578.216 187.653 571.929 193.491 564.193 193.491L521.44 193.491 457.311 193.491C449.575 193.491 443.288 187.653 443.288 180.476ZM464.664 208.198 556.84 208.198 556.84 244.407 464.664 244.407 464.664 208.198ZM379.159 295.329 379.159 269.298 407.205 269.298 407.205 295.329 379.159 295.329ZM421.912 302.683 421.912 261.945 421.912 259.113 593.475 259.113 593.475 261.945 593.475 302.683 593.475 305.514 421.912 305.514 421.912 302.683ZM463.157 388.615C464.135 387.336 464.664 385.762 464.664 384.152L464.664 320.221 556.84 320.221 556.84 384.152C556.84 385.762 557.369 387.336 558.347 388.615L598.858 441.685 581.114 441.685C569.841 441.685 560.664 453.068 560.664 467.069 560.664 474.327 563.164 480.842 567.113 485.467L523.904 485.467C527.853 480.835 530.353 474.327 530.353 467.069 530.353 453.075 521.176 441.685 509.903 441.685L422.654 441.685 463.157 388.615ZM392.027 456.384 509.903 456.384C512.19 456.384 515.646 460.642 515.646 467.062 515.646 473.481 512.19 477.739 509.903 477.739L392.027 477.739C389.74 477.739 386.284 473.481 386.284 467.062 386.284 460.642 389.733 456.384 392.027 456.384ZM375.908 560.105C372.614 554.355 369.239 546.244 368.452 536.324 367.114 519.558 373.835 506.498 377.651 500.63L385.115 490.85C385.174 490.872 385.225 490.894 385.284 490.916L385.284 560.105 375.908 560.105ZM399.991 545.435 499.476 545.435 499.476 603.931 399.991 603.931 399.991 545.435ZM399.991 618.638 499.476 618.638 499.476 727.903C499.476 754.604 477.165 776.326 449.737 776.326 422.309 776.326 399.991 754.604 399.991 727.903L399.991 618.638ZM292.778 686.195 123.773 686.195C126.678 682.172 129.193 677.856 131.208 673.245L340.524 673.245C345.267 673.245 349.664 671.921 353.569 669.796L353.569 800.261C349.664 798.129 345.267 796.812 340.524 796.812L327.479 796.812 327.479 721.351C327.479 701.968 311.911 686.195 292.778 686.195ZM340.524 631.772C347.59 631.772 353.569 637.904 353.569 645.162 353.569 652.42 347.59 658.546 340.524 658.546L135.796 658.546C136.634 654.207 137.098 649.743 137.098 645.162 137.098 640.581 136.634 636.11 135.796 631.772L340.524 631.772ZM256.238 546.633 235.038 531.809 306.624 483.283 311.926 508.888 256.238 546.633ZM224.126 521.44 100.036 332.177 177.387 279.747 301.477 469.01 224.126 521.44ZM86.3589 203.933 98.4112 222.273C97.4332 223.957 97.1758 225.935 97.6906 227.839L83.5425 237.494C82.0204 236.318 80.1452 235.803 78.2481 236.016L66.2031 217.684 86.3589 203.933ZM92.0064 249.525 105.382 240.392 120.295 263.114 106.89 272.203 92.0064 249.525ZM160.335 253.738 169.321 267.445 91.9696 319.875 82.9837 306.168 160.335 253.738ZM35.1054 453.421C35.1054 410.72 69.218 375.975 111.155 375.975L111.162 375.975 155.915 444.229 143.341 444.229C120.538 444.229 101.985 462.981 101.985 486.041L101.985 584.489C92.0799 578.842 80.6894 575.591 68.5415 575.591 56.3936 575.591 45.0031 578.849 35.098 584.489L35.098 453.421ZM14.7069 645.155C14.7069 614.903 38.863 590.291 68.5489 590.291 98.2347 590.291 122.391 614.903 122.391 645.155 122.391 675.407 98.2347 700.019 68.5489 700.019 38.863 700.019 14.7069 675.414 14.7069 645.155ZM68.5489 714.733C83.8587 714.733 97.9627 709.549 109.39 700.909L292.785 700.909C303.808 700.909 312.772 710.086 312.772 721.359L312.772 796.82 35.1054 796.82 35.1054 705.828C45.0105 711.476 56.401 714.733 68.5489 714.733ZM340.524 838.293 27.7519 838.293C20.6853 838.293 14.7069 832.168 14.7069 824.91 14.7069 817.652 20.6853 811.519 27.7519 811.519L340.524 811.519C347.59 811.519 353.569 817.652 353.569 824.91 353.569 832.168 347.59 838.293 340.524 838.293ZM911.828 838.293 368.275 838.293 368.275 618.638 385.284 618.638 385.284 727.903C385.284 762.715 414.198 791.033 449.737 791.033 485.276 791.033 514.183 762.715 514.183 727.903L514.183 618.638 575.606 618.638 575.606 727.903C575.606 762.715 604.52 791.033 640.059 791.033 675.598 791.033 704.505 762.715 704.505 727.903L704.505 618.638 765.928 618.638 765.928 727.903C765.928 762.715 794.842 791.033 830.374 791.033 865.913 791.033 894.827 762.715 894.827 727.903L894.827 618.638 911.828 618.638 911.828 838.293Z" fill="#FFFFFF" transform="matrix(1.0005 0 0 1 3247 2340)"/><path d="M446.619 75.8141C468.356 75.8141 486.034 58.8055 486.034 37.907 486.034 17.0085 468.356 0 446.619 0 424.882 0 407.205 17.0085 407.205 37.907 407.205 58.8055 424.89 75.8141 446.619 75.8141ZM446.619 14.7069C460.245 14.7069 471.327 25.112 471.327 37.907 471.327 50.702 460.245 61.1072 446.619 61.1072 432.993 61.1072 421.912 50.702 421.912 37.907 421.912 25.112 432.993 14.7069 446.619 14.7069Z" fill="#FFFFFF" transform="matrix(1.0005 0 0 1 3247 2340)"/><path d="M471.334 109.191C471.334 124.479 484.225 136.914 500.064 136.914 515.903 136.914 528.794 124.479 528.794 109.191 528.794 93.9036 515.911 81.4689 500.064 81.4689 484.217 81.4689 471.334 93.9109 471.334 109.191ZM500.064 96.1758C507.792 96.1758 514.087 102.014 514.087 109.191 514.087 116.368 507.8 122.207 500.064 122.207 492.328 122.207 486.041 116.368 486.041 109.191 486.041 102.014 492.328 96.1758 500.064 96.1758Z" fill="#FFFFFF" transform="matrix(1.0005 0 0 1 3247 2340)"/></g></svg>